<svg xmlns="http://www.w3.org/2000/svg" viewBox="0 0 255.03 315.05"><defs><style>.cls-1{fill:#a02d22;}</style></defs><title>city_paris</title><g id="Layer_2" data-name="Layer 2"><g id="Layer_1-2" data-name="Layer 1"><path id="city_paris" class="cls-1" d="M95.73,204c-12.57,28.47-31.34,61.43-64.83,67.1-15.44,3.85-32-6.12-30.84-23,.28-9.12,4.69-16.3,10.37-23C54.31,172.8,51.5,100.6,58.26,36.42c3.49-32,42.12-53,60.16-19.07a149.34,149.34,0,0,1,11.31,43.84c7.08,67.4,29.71,176.34,104,198.18,23.54,6,30.14,40.73,6.77,51.92-31.74,13.15-64.16-10.74-85.5-32.2a235.31,235.31,0,0,1-45.39-63.29c-1.34-2.76-8.33-22.5-10.3-22.16-1.12.19-1.29,1.72-1.46,2.61C97.3,198.88,95.53,201.16,95.73,204Z"/></g></g></svg>