<svg xmlns="http://www.w3.org/2000/svg" viewBox="0 0 253.61 372.14"><defs><style>.cls-1{fill:#3fb54a;}.cls-2{fill:#525ca9;}.cls-3{fill:#f7ed43;}</style></defs><title>city_rio</title><g id="Layer_2" data-name="Layer 2"><g id="Layer_1-2" data-name="Layer 1"><g id="city_rio"><path class="cls-1" d="M149.69,293.44a296.36,296.36,0,0,0,.06-77.36A66.9,66.9,0,0,0,185.49,228c4.58.16,9.77-.46,12.55-4.1,3.62-4.75,1.06-11.6-2.1-16.65A87,87,0,0,0,165.52,178c-7.84-4.48-16.65-7.94-22.41-14.88-9.14-11-8.12-27.62-16.22-39.4-7.62-11.1-23.38-15.75-35.81-10.55-3.33-11.11,6.18-22.84,17.34-26s23.07,0,34.06,3.7c26.52,8.94,52.26,21.54,72.79,40.56,14.4,13.34,26,30,32.44,48.65,3.18,9.27,4.14,18.49,5.33,28.09a79.19,79.19,0,0,1-1.64,28,80.32,80.32,0,0,1-25.09,41.91C205.72,296,175.57,302,149.69,293.5Z"/><path class="cls-1" d="M77.9,146.92a146,146,0,0,1,16.21,34.84c4.65,14.38,7.56,29.23,10.07,44.11,1.09,6.47,2.15,12.89,2.72,19.43.28,3.28-.45,20.38,1.85,22.11-14-10.52-28-21.14-39.67-34.18S48.2,204.42,45.7,187.11c-2-13.52.08-28.11-6.27-40.21-2.86-5.45-7.47-10.79-6.5-16.87,1-6.52,8.59-10.4,15.13-9.5s12,5.29,16.69,10A104.79,104.79,0,0,1,77.9,146.92Z"/><path class="cls-2" d="M163.86,115.44c1-10,7.14-19.58,16.55-23.09,4.24-1.58,9.1-2.09,12.46-5.13,4.15-3.77,4.49-10.64,1.57-15.42s-8.43-7.56-14-8.24-11.19.48-16.55,2.12a95.16,95.16,0,0,0-51.75,39.22c-4.22,6.58-7.68,13.76-13.12,19.38S85.44,133.79,78,131.55s-12.37-10.35-13-18.28,2-15.73,5-23.1c8-19.76,18.67-38.61,33.19-54.2s33-27.83,53.64-33.14,43.42-3.3,61.91,7.29c22.19,12.7,34.7,36.37,34.37,61.61a131.29,131.29,0,0,1-3.36,29.63c-3.19,13-9.31,25.52-19,34.72S207.33,150.82,194,149.23s-25.77-11-29.36-23.88A27.37,27.37,0,0,1,163.86,115.44Z"/><path class="cls-3" d="M82.24,146c-5.38-60.77,55.4-41,59.18,19.07C202.56,436.2-11.38,444.48.48,169.86c-.54-11,2.23-25.36,9.67-34.74a16.58,16.58,0,0,1,28.49,4.3c4,10.29,4.86,23.89,6.1,32.12,6.09,37.35,9.39,76.12,24.54,111.12,9,19.29,33.83,29.26,37.53.88,1.18-5.51.4-8.36.74-14a78.31,78.31,0,0,0,0-13C107.62,217.54,93,183.18,82.24,146Z"/></g></g></g></svg>