<svg xmlns="http://www.w3.org/2000/svg" viewBox="0 0 312.15 139.6"><defs><style>.cls-1{fill:#231f20;}</style></defs><title>direction_loin</title><g id="Layer_2" data-name="Layer 2"><g id="Layer_1-2" data-name="Layer 1"><path id="direction_loin" class="cls-1" d="M311.84,12.22C303-24.69,222.11,33.09,201.28,40.4c-15.79,10.82-32.12-1.36-49,.7-34.89,4.39-32.41,28.27-47.2,33.92-9.06-.48-15-9.67-23.63-12.3a47.73,47.73,0,0,0-50.18,8C19.23,81.17-13.46,125,6.1,137.42c5.36,3.22,12.41,2.66,17.93-.27,6.41-3.4,10.22-9.14,13.86-15.14,31.09-50.6,38.66,9.88,84.48-13.89,5.9-2.93,12-6.79,15.87-12.07,17.52-22,41,6.62,82.64-14.9,15-6,29.05-14.09,43.05-22.15C280.45,49.17,315.79,35.47,311.84,12.22Z"/></g></g></svg>