<svg xmlns="http://www.w3.org/2000/svg" viewBox="0 0 141.42 317.82"><defs><style>.cls-1{fill:#231f20;}</style></defs><title>direction_haut</title><g id="Layer_2" data-name="Layer 2"><g id="Layer_1-2" data-name="Layer 1"><path id="direction_haut" class="cls-1" d="M141.36,221.5c2.11-40.64-50.61-36.74-77.54-28.63-8.72,2.83-11.25-6.79-2-8,97.46,3.32,109.67-107.7,0-68.54-7.68,2.74.93-6.52,2-7.6C73.29,99.4,84.06,91.28,85.29,77c1.82-21-18.64-29.92-23.82-48.2C56.91,12.73,46.13-3.68,26.73.73c-17.29,3.93-14,27.05-6.92,38.19,4.79,7.5,11,14.4,13.25,23,3.26,12.41-3.48,24.68-13.86,31.22C4.71,102.28-6,124.7,3.76,140.52c7,11.25,21.5,15.92,34.68,14.77,9-.78,17.57-3.82,25.78-7.43,5.87-2.58,14-7.29,20.61-7.44,5.58-.12,7.78,6.78,2.56,9.3-9.12,2.95-19.28,2.23-28.76,4.06-20.36,2.36-46.21,15.51-52.88,36-3.1,16.1,9,29.69,24.91,30.9,18.52,3.36,37-2.33,55.23-3.75,2.79.81,3.13,4.3,1.41,6.3-2,2.31-5.21,2.18-7.94,2.8C16.61,244.44,49,327.21,106.89,316.94c7.59-.91,16.87-6.17,15.7-14.88-2.48-12.4-28.75-14-31.54-34.51C90.65,235.61,138,254.17,141.36,221.5Z"/></g></g></svg>