<svg xmlns="http://www.w3.org/2000/svg" viewBox="0 0 309.94 158.48"><defs><style>.cls-1{fill:#231f20;}</style></defs><title>direction_fort</title><g id="Layer_2" data-name="Layer 2"><g id="Layer_1-2" data-name="Layer 1"><path id="direction_fort" class="cls-1" d="M106.86,70.5c11.23-14.88,21.24-33.85,39.75-40.36,14.16-5,26.22,9,21,22.53-.73,3.23-2.33,5.7-1,9,18.61-19.91,31.64-51.17,60.25-57.73a16.15,16.15,0,0,1,19.86,14.48c.43,3-2.62,12.74,1,13.92,3.16,1,6.81-5.39,8.41-7.19C267.94,11.83,281.54,1.45,300,.17c8.91-1.43,13.24,6.37,7.16,13.29-11,14-18.12,30.76-30.14,44-14.79,17.56-67.75,47.34-77.7,12.3,0-2.2-2.39-2.34-2.57-.13-5.18,15.24-12,32.28-26.61,40.65-15,7.29-50.74,13.18-46.09-13.66,1-2.79-.53-3.35-2.21-1.09-13.43,11.78-19.82,31.68-35.38,41.12C66.84,143.92,57.85,127.77,60,110a148.43,148.43,0,0,0-24.34,31.06c-3.65,6.2-7.29,13.09-13.83,16.09a16.38,16.38,0,0,1-20.17-6.3c-9.89-13.08,27.65-60.52,37.61-71.32,9.32-10.41,21.28-20.78,36-20.9A22.49,22.49,0,0,1,98.78,82.35C102,79.33,104,74.16,106.86,70.5Z"/></g></g></svg>