<svg xmlns="http://www.w3.org/2000/svg" viewBox="0 0 280.72 323.1"><defs><style>.cls-1{fill:#c9dc5b;}</style></defs><title>element_terre</title><g id="Layer_2" data-name="Layer 2"><g id="Layer_1-2" data-name="Layer 1"><path id="element_terre" class="cls-1" d="M118.29,278.16c26.9,30.61-23,60.07-48.71,36.25C19.66,273.35-31.27,186.59,23.93,130.74,35.7,120.86,48.8,119.32,50.09,138c5.67,4.61,10.26-3.79,10.63-8.93,20.55-76.37,98.54,5.77,161-113.22C248.34-19.47,266.47,11,248.46,41.2c-14.18,30.52-39.93,53.25-66.33,73.1,21.41-8,38.58-24.49,57.61-36.8,13.18-8.81,36.8-4.61,26.2,15-25.66,40.38-73.69,61.79-114.75,83.66,28.14,2.43,56-4.25,80.9-17.34,13.44-4.56,21.57-18.73,36.16-20.31,32.54,4.89-7.33,47.45-21.13,55-22.67,18.27-50.65,26.4-78.46,32.94,15.57,5.57,46.52-3.48,41.44,23.24-18.45,40.87-80.43,29.09-112.94,12.39C104.9,266.06,111.74,273,118.29,278.16Z"/></g></g></svg>