<svg xmlns="http://www.w3.org/2000/svg" viewBox="0 0 306.06 255.06"><defs><style>.cls-1{fill:#6acde8;}</style></defs><title>element_air</title><g id="Layer_2" data-name="Layer 2"><g id="Layer_1-2" data-name="Layer 1"><g id="element_air"><path class="cls-1" d="M207.1,229.91c-25.53.86-51.16-2.46-76.77-2.76-29.71-.33-61,4-84.74,21.87-4.4,3.3-9.53,7.26-14.79,5.67-16.82-5.08,7.26-26.49,12.41-30.5C55.88,214.32,71,207.77,86.54,204c23.21-5.7,47.41-5.7,71.3-5q22.08.66,44.12,2.11c15.38,1,31.49,2.19,45.56-4.09s24.89-22.85,19.19-37.17c-4.85-12.18-21.65-17.72-32.8-10.81-5.54,3.44-11.73,9.52-17.32,6.19-3.24-1.93-4.14-6.45-3-10s3.93-6.4,6.72-8.92c8.85-8,19.25-14.51,30.82-17.28s24.4-1.46,34.33,5.1c7.05,4.66,12.31,11.69,15.83,19.37,3.69,8,5.59,17,4.37,25.78-1.08,7.74-4.54,15-9,21.38C279.61,215,249,226.36,219.38,229.14Q213.25,229.71,207.1,229.91Z"/><path class="cls-1" d="M214.09,5.37c20,.89,37.83,18,42.3,37.88,4.82,21.37-3.48,44.12-17.46,61S205.86,132.88,186.45,143c-54.22,28.3-115.33,47-158.82,90-2.52,2.48-5.13,5.14-8.54,6.07a10.12,10.12,0,0,1-11.52-5.46c-3.93-8.84,9.6-23.16,15.23-28.82,9.53-9.57,21.23-16.72,32.86-23.42a847.35,847.35,0,0,1,82-41.49c15.82-7,31.94-13.48,46.43-22.89S211.5,95,218,79c3.09-7.57,4.68-16,3.05-24s-6.87-15.53-14.44-18.6-17.35-.83-21.82,6c-1.88,2.87-2.76,6.27-4.47,9.24s-4.74,5.64-8.15,5.28c-5.6-.58-7.22-8.13-6.11-13.65,2.32-11.56,10-21.58,19.54-28.47,7-5.07,15.23-8.67,23.86-9.37A35.24,35.24,0,0,1,214.09,5.37Z"/><path class="cls-1" d="M150.48,60.93c-.47,22.62-11.61,44.55-26.93,61.5a137.52,137.52,0,0,1-40.69,30.84C61,164.14,34.56,170.5,21.45,191.1c-2.27,3.58-4.39,7.77-8.37,9.19C8.31,202,2.84,198.49,1,193.78S.13,183.69,2.05,179C7.1,166.74,18,157.73,29.53,151.26s24.21-10.89,35.92-17.13c14.41-7.67,27.54-18.27,36.37-32s13.05-30.78,9.67-46.76C108.66,42,98,28.6,84.43,29.45c-8.77.55-16.15,6.9-21.35,14-1.57,2.13-3.07,4.42-5.32,5.82A9.29,9.29,0,0,1,45.6,46.64c-6.46-9.62,10-26.4,16.45-32C72.86,5.14,87-1,101.55.14c25.69,2,45.91,26.47,48.57,52.1A70.25,70.25,0,0,1,150.48,60.93Z"/></g></g></g></svg>