<svg xmlns="http://www.w3.org/2000/svg" viewBox="0 0 338.6 235.71"><defs><style>.cls-1{fill:#64a744;}</style></defs><title>failure_surmotive</title><g id="Layer_2" data-name="Layer 2"><g id="Layer_1-2" data-name="Layer 1"><path id="failure_surmotive" class="cls-1" d="M335.38,15.58C316.73-6.9,276.69-.59,251.77,7,232,14,217.17,26.88,200.61,39.2c-7.16,6.83-16.69,5.6-25.74,3.73-30-4.39-55.35,13.26-68.85,38.73-4.37,8.24-12.37,7.13-21.32,6.44-105.4-8.45-107,176.44-34.87,143.73,20-18.1,6.05-57.14,11.76-80.92,12.4-21.12,35.9-17.4,43.21,6,6.21,14.94,17.06,30.68,35.89,24.19a25.27,25.27,0,0,0,16.47-20.18c1.84-14-19.67-55,8.15-57.21a13.79,13.79,0,0,1,12.61,6.45c3.12,5.14,2.48,11.61,3.53,17.53,2,11.34,11.06,21.53,22.46,23.89a28.77,28.77,0,0,0,27.83-10.12c11.11-14.09,2.06-30.83,2.93-46.7,2.48-31.53,38-44,65.43-45.44C318.49,49.77,348.51,38.29,335.38,15.58Z"/></g></g></svg>