<svg xmlns="http://www.w3.org/2000/svg" viewBox="0 0 337.53 163.16"><defs><style>.cls-1{fill:#64a744;}</style></defs><title>failure_enerve</title><g id="Layer_2" data-name="Layer 2"><g id="Layer_1-2" data-name="Layer 1"><path id="failure_enerve" class="cls-1" d="M337.36,134.41c-1.07-24.29-21.87-38.46-41-49.48C249.64,57.72,203,27,155.13,1.37c-16.5-5.41-34,5.84-36.36,23-3.06,17,5.74,34.88,14.91,48.63A303.53,303.53,0,0,1,94.84,46.81C71,28.5,46.28-9,12.16,8.48c-14,9.11-15.48,25.41-6.63,38.88,9.07,13.78,24.6,21.24,36.6,32.17q34.81,27.25,71.76,51.59c18,10.49,33.88,26.84,55.23,29.9,29.29,2.7,40.75-25.88,27-49.14,0-1.1-11.09-22.54-7-20.23,37.41,25.27,72.76,59.79,117.19,71.26C323.41,165.11,339.37,152,337.36,134.41Z"/></g></g></svg>