<svg xmlns="http://www.w3.org/2000/svg" viewBox="0 0 257.27 228.64"><defs><style>.cls-1{fill:#64a744;}</style></defs><title>failure_effondre</title><g id="Layer_2" data-name="Layer 2"><g id="Layer_1-2" data-name="Layer 1"><path id="failure_effondre" class="cls-1" d="M52.5,103.06c2.64-8,6.12-56.71,17-46.36-.06,16.25-.53,33.49.94,49.82-.33,28.06,16.25,57.4,47.82,52.27,14.09-2.5,26.13-29.9,30.08-27.4,3.57,2.26-4.86,32.16-2.77,48.16,3.35,42.57,48.45,63.94,82.74,37.46,26.29-20.52,42.21-73,14.18-97.54-16.81-12.54-42.65.12-41,21.6-.07,2.57,2.81,16.42-2.52,16.42-7.28,0-3.38-24.44-3.44-26.3-.25-18.48,3.25-38.32-4.34-55.74-13.93-29.62-57.14-28.05-75.13-3C121.7,32,102.29-6.66,56.47,1,18.57,8.8,4.05,49.51.82,83.75-6.56,120.66,38,139.23,52.5,103.06Z"/></g></g></svg>