<svg xmlns="http://www.w3.org/2000/svg" viewBox="0 0 253.09 230.02"><defs><style>.cls-1{fill:#fbe009;}</style></defs><title>introextra_extra</title><g id="Layer_2" data-name="Layer 2"><g id="Layer_1-2" data-name="Layer 1"><path id="introextra_extra" class="cls-1" d="M252.3,124c-2.7-23.58-12.15-45.05-39.79-34.71-29.81,15.21-7.59,77.57-50.13,76.74-27.94-9.4-28.36-51-32.7-75.87-2.37-19.19-5.07-38.77-13.76-56C99.58-2.46,53.43-12.67,26.4,18.53,5.24,40.84-20.72,112,26.77,117.72c32.54-4,20.52-45.91,38.13-46.42,7.45,1,8.58,10,8.14,16.12-.53,27.3.78,55.16,10.26,80.76C120.77,276.37,265,230.43,252.3,124Z"/></g></g></svg>