<svg xmlns="http://www.w3.org/2000/svg" xmlns:xlink="http://www.w3.org/1999/xlink" viewBox="0 0 421.34 499.16"><defs><style>.cls-1,.cls-3{fill:none;}.cls-2{clip-path:url(#clip-path);}.cls-3{stroke:#d9ac4f;stroke-miterlimit:10;stroke-width:0.89px;}.cls-4{fill:#d91b5d;}.cls-5{fill:#fbe009;}.cls-6{fill:#ef4136;}.cls-7{fill:#64a744;}.cls-8{fill:#62b0e2;}.cls-9{fill:#5356a5;}.cls-10{fill:#4e8cca;}.cls-11{fill:#231f20;}</style><clipPath id="clip-path" transform="translate(0 -0.49)"><rect class="cls-1" x="29.93" width="362.1" height="500.16"/></clipPath></defs><title>logo</title><g id="Layer_2" data-name="Layer 2"><g id="Layer_1-2" data-name="Layer 1"><g id="Group_422" data-name="Group 422"><g class="cls-2"><g id="Group_421" data-name="Group 421"><path id="Path_2254" data-name="Path 2254" class="cls-3" d="M391.05,250.09c0,24.8.08,49.6,0,74.39a171.61,171.61,0,0,1-26.39,91.81c-17,27.22-40.05,47.79-68.42,62.52a181.22,181.22,0,0,1-52.07,17.48,186.62,186.62,0,0,1-41,2.74c-37.22-1.64-71.15-13-101.37-34.95a168.54,168.54,0,0,1-43.33-45.75A172.22,172.22,0,0,1,30.89,325.2q0-75.46,0-150.92A168.88,168.88,0,0,1,48,100.54,173.94,173.94,0,0,1,60.34,79.11C77.09,54,99.21,35,125.91,21.19A182.33,182.33,0,0,1,176.84,4a188.56,188.56,0,0,1,43-2.81,183.65,183.65,0,0,1,76.51,20.22,176,176,0,0,1,43.35,31.35,163,163,0,0,1,20.35,24.07,174,174,0,0,1,26.25,58.7,176,176,0,0,1,4.2,27.12c.31,4.15.49,8.32.5,12.49Q391.09,212.61,391.05,250.09Z" transform="translate(0 -0.49)"/></g></g></g><path id="strength_i" class="cls-4" d="M282.57,188c-11.74,7.05-18.12,16.18-25.65,27.32-1.49,2.2-3.13,4.42-5.44,5.75s-5.46,1.53-7.49-.19c-2.74-2.33-2.2-6.62-1.41-10.12,2.64-11.83,5.88-23.31,5.76-35.49a100.83,100.83,0,0,0-5.27-30.94c-6.61-19.68-19.21-37.47-36.3-49.38-32-22.29-77.71-22.69-110.09-1S47.35,158.2,55.87,196.26s41.94,69.24,80.49,75.11c9.29,1.41,19.16,1.6,27.23,6.4,16.07,9.55,17.58,32.71,11.73,50.46s-17,33.78-20,52.22c-4.6,28.15,13.21,58.31,40.07,67.88s59.73-2.51,74-27.22c7.55-13.08,8.83-27.81,6.35-42.39-2.33-13.64-8.76-23.1-18.38-33-9.07-9.3-19-19.2-22.08-32.28-.79-3.28-.55-6.95,1.4-9.7s5.87-4.2,8.89-2.7a12.06,12.06,0,0,1,4,3.92c10.29,14,21.81,27.09,38.65,33.37,39,16.48,83.78-.22,104.33-36.71a79.08,79.08,0,0,0,8.91-24.29c7.49-40.3-18.89-84.45-58.21-96.37a76.82,76.82,0,0,0-51.33,2.31A70.79,70.79,0,0,0,282.57,188Z" transform="translate(0 -0.49)"/><path id="introextra_extra" class="cls-5" d="M348.9,323.2c-3.47-16.11-11.47-30.3-29.86-21.27-19.57,12.55,0,54.13-29.41,56.46-19.94-4.59-23.08-33.33-27.77-50.2-2.95-13.1-6.15-26.45-13.34-37.79-13.79-24.19-46.38-28.09-62.93-4.68-13.1,16.86-26.18,67.82,7,68.52,22.21-5,11-33.13,23.18-34.69,5.21.16,6.61,6.3,6.73,10.59,1.49,18.9,4.3,38.06,12.6,55.11C268.41,437.45,365,395.85,348.9,323.2Z" transform="translate(0 -0.49)"/><path id="city_tokyo" class="cls-6" d="M195.41,399.11c51.69-89-71.48-160.19-131-77.51-22.31,26.62-5.06,65.6,31.22,55,18.19-5.71,23.94-27.17,38-38.54,12.93-8.29,22.08,10.27,13.78,20.27-7.29,12.22-20.7,20.5-25.68,33.84-8.29,20.8,10.57,44.58,32.72,41.18C172.88,430.32,185.52,413.7,195.41,399.11Z" transform="translate(0 -0.49)"/><path id="failure_enerve" class="cls-7" d="M366.49,213.44c5.87-12.32-.7-24.83-7.27-35.33-16-25.82-31-53.38-48-78.68a15.82,15.82,0,0,0-24.09,1.81c-6,7.61-6.35,18.81-5.43,28a170.37,170.37,0,0,1-12.35-23.22c-7-15.37-9.36-40.45-30.87-40.81-9.36.82-14.38,8.52-13.54,17.53.85,9.22,6.59,17,9.65,25.6q10.06,22.7,22,44.5c6.17,10,9.72,22.24,19.49,29.38,13.81,9.07,27-2.08,26.33-17.24.3-.54.45-14.1,1.85-11.89,11.88,22.4,20.3,48.83,39.3,66.23C351.47,225,362.84,222.7,366.49,213.44Z" transform="translate(0 -0.49)"/><g id="palmares_i"><path d="M111.45,64.69a16.85,16.85,0,0,0-2.17,1.08,17.5,17.5,0,0,0-7.27,8c-1.16,2.83-.46,6.39-3.76,7.84-1.67.73-4.35-5-5.3-6a14.15,14.15,0,0,0-9.16-4.08c-6.05-.38-11.23,3.17-14.26,8.2-4.41,7.34-5.53,17.93-2.24,27.05,1.78,4.92,4.79,9.27,3.62,10.26-.66.55-6.74-1.37-7.76-1.56-3.23-.59-6.48-1.1-9.74-1.5a93.24,93.24,0,0,0-20.65-.55c-12.3,1.27-28.14,9.59-24.82,24.37,1.45,6.43,6.58,10.48,11.85,13.87,5.52,3.55,9.62,3.93,9.69,6,.09,2.72-7.3,3.33-14.76,8.32C7,171.16-1.46,181.56.21,190.38c1.46,7.69,9.66,11.66,16.47,13.54,15.6,4.3,32.34,1.47,46.8-5.31,6-2.79,11.92-6,16.71-10.59A24.24,24.24,0,0,0,86,180c1.39-3.3.84-6.79,2.88-9.8,9.4-2.54,19.94-2,26.11-11.28,4.49-7.34,7-14.22-.29-22.2-4.8-3.91-5.33-4.24-1.79-9.54,2-4,1.56-8.37,1.12-12.68-.46-4.6-1.55-6.81-.48-7.6,1.23-.92,6.41,1.47,8.19,1.39a19.21,19.21,0,0,0,10.44-3.66c8.36-6.13,10.92-19.62,6.37-28.73C133.74,66.31,121.62,60.44,111.45,64.69ZM62.16,170.56c7.1-.56,6.15,6.62,1.6,9.86-8.41,8.28-38.2,17.45-48.85,11.47-3.32-3.2.61-8.43,3.42-10.34,3-2.08,6.7-3,10.15-4.11C39.38,173.74,50.58,170.78,62.16,170.56Zm-3-37.42c6.74,1,51.67,9.32,46.9,18.39-5.39,10-53.75-3.5-63.18-7.63-4.79-1.48-16.53-5.42-10.11-11.73C37.36,128.7,52.87,132.74,59.17,133.14ZM92.9,101.36a39.53,39.53,0,0,1,7,15.14c1.33,9.06-7.37,5.09-10.22.33-5-6.83-10.87-15.68-11.34-24.25C80.4,86.38,91.18,98.81,92.9,101.36ZM122.06,81c13.29,7.29,5.78,13.38-5.31,8.38C107.58,84.74,114,76.55,122.06,81Z" transform="translate(0 -0.49)"/></g><g id="personalitly_audacieux"><path class="cls-8" d="M129.08,142h0Z" transform="translate(0 -0.49)"/><path class="cls-8" d="M293.9,151.74c-2.88-17.18-24.63-27.53-38.62-16-2.95,3-8.86,7.57-12.07,2.53-1.25-3,1.72-4.41,3.92-5.15,15.8-3.7,28-20.35,18.47-35.68-15.3-20.4-40.74-8.06-41.34,15.84-1.87,6.07-9.64,9.12-11.43,1.11C212,102.65,223.3,96.08,216,82.43c-7.06-14.37-27.38-18.15-40-8.85-17.6,12-14.12,41,5.82,48.44,3.53,1.42,7.81,2.48,9.38,6a6.11,6.11,0,0,1-2.87,7.77c-7,2.9-16.56-12.35-31.27-12-20-.48-35.69,21.15-32,40.23,5.62,28.35,40.46,33.94,54.54,8.53,12.15-14.33,22.24-1.49,15.74,12.68-22.8,47.36,48.75,61,54.64,13.42,1-15.67-9.76-20.4-19.78-29.21-6.8-6.11.74-13.93,7-7.72,4.68,8.29,7.13,18.41,16.41,23.21C274.67,198.28,299.17,173.51,293.9,151.74Z" transform="translate(0 -0.49)"/></g><path id="senses_toucher" class="cls-9" d="M361.11,153.38a14,14,0,0,1,9.65,4.57c4.29,5,3.9,12.69.84,18.5s-8.25,10.12-13.32,14.28L326.91,216.5c-2.59,2.13-5.25,4.34-6.83,7.3s-1.83,6.89.3,9.48,6,3.1,9.17,2.23,6-2.9,8.71-4.77a128.53,128.53,0,0,1,43.13-18.89c6-1.4,12.35-2.35,18.31-.72s11.42,6.4,12.1,12.54c.58,5.15-2.31,10.22-6.31,13.51s-9,5.08-14,6.58A169,169,0,0,1,342.84,251c-4,0-8.24-.11-12,1.51s-6.77,5.56-5.9,9.52c.66,3,3.46,5.25,6.44,6.12s6.17.67,9.27.45l42.59-3c8.44-.6,17.23-1.14,25.07,2.05s14.35,11.34,12.75,19.65c-1.46,7.6-9.19,12.7-16.87,13.66s-15.35-1.31-22.76-3.56L343,285.67c-3-.92-6.18-1.85-9.33-1.46s-6.31,2.49-6.91,5.6c-1,5.19,4.93,8.76,9.86,10.65l45.16,17.39c5.69,2.19,11.53,4.48,15.93,8.7s7,10.9,4.71,16.54-8.55,8.49-14.49,8.47-11.58-2.45-16.9-5.11c-16.28-8.13-31.25-18.64-46-29.28-12.1-8.71-24.33-17.76-32.9-29.95-6.34-9-10.35-20-10-31.07s2.47-17.74,8.36-27.32a422.12,422.12,0,0,1,45.88-61.35c4.54-5,9.4-10.11,15.67-12.68A19.88,19.88,0,0,1,361.11,153.38Z" transform="translate(0 -0.49)"/><path id="element_eau" class="cls-10" d="M83.14,199.1c-9.1,7.76-13.77,19.14-20.56,28.82a78.51,78.51,0,0,1-42.74,30.24c-2.52.7-5.76,2.44-4.91,4.91.71,2,3.52,2.09,5.66,1.83,54.25-9.74,83.64,39.76,120,10.84C190,235.71,135.09,159.38,83.14,199.1Z" transform="translate(0 -0.49)"/><path id="direction_loin" class="cls-11" d="M301.13,263.45c8.11-20.46-49.55-20-61.88-23.46-11.1-.11-14.8-11.34-23.5-16-18-9.54-24.81,2.63-33.71.38-4.14-3.24-3.92-9.6-7.12-13.71a27.68,27.68,0,0,0-26.48-12.92c-9.2,1-39.33,10.89-34.18,23.29,1.48,3.31,5,5.4,8.61,5.85,4.17.52,7.89-.94,11.62-2.57,31.62-13.67,15.07,17.56,44.74,21.54,3.78.58,8,.78,11.55-.44,15.63-4.59,17.25,16.78,44.2,20.45,9.12,2.15,18.49,3,27.82,3.83C273.92,270.53,295.26,275.8,301.13,263.45Z" transform="translate(0 -0.49)"/></g></g></svg>