<svg xmlns="http://www.w3.org/2000/svg" viewBox="0 0 197.14 195.41"><defs><style>.cls-1{fill:#64a744;}</style></defs><title>outfit_gala</title><g id="Layer_2" data-name="Layer 2"><g id="Layer_1-2" data-name="Layer 1"><path id="outfit_gala" class="cls-1" d="M183.39,148.44C153.24,128.3,148,109.85,168.17,78.61c10.25-19.36,24.3-39.78,25.74-62.46C192.43,0,180-.94,170,9.7,160.2,20,141,26.84,127.05,26,110.85,25,101.86,13.45,88.59,6,74.76-1.69,39.73-4.1,30,11.64,25.82,18.39,28.62,28.17,31,35c6.07,17.23,20.46,33,22.43,51.5.79,11.41-7.85,20.22-15.39,27.37a204.06,204.06,0,0,0-23.72,26.55c-5.92,8-11.36,17.23-13.68,27a25.35,25.35,0,0,0,1.82,16.69c1.85,3.61,5.43,6.6,9.49,6.65a13.36,13.36,0,0,0,6.33-1.83c8-4.24,14.51-11.13,22.22-16,8.22-5.14,17.37-8.71,27.2-8.49,21.47.48,34.66,13,52.45,22.28,19.11,9.91,55.88,13.31,73.16-.56C202.17,174.52,194.29,156.47,183.39,148.44Z"/></g></g></svg>