<svg xmlns="http://www.w3.org/2000/svg" viewBox="0 0 346.61 424.82"><title>palmares_i</title><g id="Layer_2" data-name="Layer 2"><g id="Layer_1-2" data-name="Layer 1"><g id="palmares_i"><path d="M345.34,354.88a50.27,50.27,0,0,0-1.93-6.32c-3.43-9.07-10-17.91-18.27-23.1-7.05-4.4-16.92-4.13-19.31-13.63-1.2-4.79,15.32-9.41,18.44-11.49,7.56-5,13-14,15.06-22.71,3.75-16.05-3.42-31.55-15.54-41.93-17.66-15.13-45.55-22.9-71.47-18.2-14,2.55-27,8.65-29.13,5.06-1.2-2,6.71-17.43,7.67-20.08,3-8.4,5.87-16.87,8.41-25.43,5.32-17.93,9.59-36.39,10.8-55.1,2.16-33.53-13-79.75-54.12-77.52-17.89,1-31,12.9-42.52,25.5-12,13.17-14.88,24-20.33,23.26-7.35-1-5.66-21-15.65-43.31C107.11,26.84,83-.49,58.65,0,37.37.44,23,20.63,14.92,38-3.65,77.89-3.61,124.06,8,165.86c4.79,17.2,10.79,34.67,20.86,49.57,5,7.43,11.12,14.32,18.75,19.16,8.23,5.22,17.82,5.32,25,12.16,2.54,26.34-3.67,54.34,18.44,75.07C108.7,337.17,126,347,150.7,331.06c12.65-11.1,13.75-12.39,26.38-.48,9.93,7.16,21.73,7.94,33.48,8.72,12.53.83,18.93-1.11,20.59,2.14,1.89,3.71-6.85,16.51-7.44,21.3a52.36,52.36,0,0,0,5.09,29.65c12.66,25.17,47.66,38.12,74.13,30C330.92,413.89,352.12,384,345.34,354.88ZM83.82,175c-1.72,19.26-20.53,13.49-27.15-.17C38.26,148.55,27.14,64.55,48,38.71c10.07-7.44,22.3,5.45,26.17,13.83,4.19,9.1,4.91,19.3,6.42,29.07C85.57,112.5,88.45,143.85,83.82,175Zm101.65,8.87c-5.71,17.6-48.3,134.29-70.48,117.41-24.47-19,33.64-142.5,49-165.9,6.1-12.16,22-41.85,36-21.8C207.21,127.39,189.38,167.14,185.47,183.86ZM255.4,288.6c-13.55,6.67-28.56,11.6-43.75,12-24.87-.52-10.32-22,3.73-27.54,20.54-10.2,46.94-22.06,70.12-19.44C301.21,261.85,263,285.15,255.4,288.6ZM296.85,376c-25.53,32.31-38.46,9.44-20.07-18C293.34,335.46,312.39,356.36,296.85,376Z"/></g></g></g></svg>