<svg xmlns="http://www.w3.org/2000/svg" viewBox="0 0 253.81 237.33"><defs><style>.cls-1{fill:#62b0e2;}</style></defs><title>personality_consciencieux</title><g id="Layer_2" data-name="Layer 2"><g id="Layer_1-2" data-name="Layer 1"><g id="personality_consciencieux"><path class="cls-1" d="M253.71,121.71c-.66-20.93-3.74-38.2-14.3-56.68a124.17,124.17,0,0,0-83.3-60.67C144,1.82,121-1,108.76.34c-21.63,2.32-34.05,6.2-53.9,16.13A118.17,118.17,0,0,0,19.58,50C6.13,69.2-.27,93.22,0,116.55.32,142.38,9.23,163.79,23.16,185c1.31,2,2.62,4,4,5.94,9.3,13.23,26.33,23.1,40.51,30.3a147.43,147.43,0,0,0,51.68,15.42c35.65,3.58,73-7.47,99.42-31.69a113.32,113.32,0,0,0,30.09-45.85C253.46,146,254.1,134.14,253.71,121.71Zm-41.36,18a84.91,84.91,0,0,1-12.88,32.13c-13.41,20.08-36.43,36.57-60.84,38.95-21.17,2.06-43.17-6.6-59.73-19.47a98.38,98.38,0,0,1-21.52-23.26c-7.72-11.63-11.71-24.62-16.48-37.66l-1.08-12.12A93.9,93.9,0,0,1,95.35,30.61c19.26-8.75,38.75-6.33,57.7,2.38,20.89,9.61,38.66,24.53,49.53,45.08A96.24,96.24,0,0,1,212.35,139.71Z"/><path class="cls-1" d="M188.68,103.2A43.48,43.48,0,0,0,181,86.49,68.94,68.94,0,0,0,149.66,62.9c-18-6.52-38.92-4.65-55.08,5.55s-27,28.67-27.24,47.77c-.32,22.34,14.06,44,34.47,53.06s45.68,5.45,63.23-8.36C182.28,147.35,193.33,124.18,188.68,103.2Zm-39.77,17.72a34.37,34.37,0,0,1-10.54,20.43c-2.82,2.59-6.26,4.77-10.08,5-4.52.33-8.83-2-12.24-5a34.22,34.22,0,0,1,.51-52c3.2-2.74,6.51-5.39,10.91-4.48s8.36,4.24,11.54,7.36a34.18,34.18,0,0,1,9.52,17A33.07,33.07,0,0,1,148.91,120.92Z"/></g></g></g></svg>