<svg xmlns="http://www.w3.org/2000/svg" viewBox="0 0 254.22 238.81"><defs><style>.cls-1{fill:#62b0e2;}</style></defs><title>personalitly_audacieux</title><g id="Layer_2" data-name="Layer 2"><g id="Layer_1-2" data-name="Layer 1"><g id="personalitly_audacieux"><path class="cls-1" d="M6.77,109.79l0,0Z"/><path class="cls-1" d="M253.13,124.42c-4.3-25.69-36.81-41.16-57.73-24-4.4,4.47-13.23,11.32-18,3.79-1.87-4.51,2.58-6.59,5.86-7.69C206.85,91,225.1,66.12,210.83,43.2,188,12.71,149.94,31.15,149,66.88,146.24,76,134.63,80.52,132,68.54c-1.19-17.5,15.66-27.32,4.71-47.73C126.11-.66,95.75-6.31,76.92,7.58,50.63,25.44,55.82,68.87,85.62,80c5.29,2.13,11.67,3.72,14,8.91a9.18,9.18,0,0,1-4.29,11.63c-10.48,4.33-24.75-18.46-46.74-17.89C18.68,81.91-4.73,114.25.82,142.76c8.4,42.38,60.46,50.74,81.52,12.76,18.16-21.42,33.24-2.23,23.52,18.95-34.08,70.79,72.87,91.24,81.68,20.06C189,171.11,172.94,164,158,150.86c-10.17-9.12,1.1-20.82,10.52-11.53,7,12.39,10.66,27.52,24.53,34.68C224.39,194,261,157,253.13,124.42Z"/></g></g></g></svg>