<svg xmlns="http://www.w3.org/2000/svg" viewBox="0 0 423.98 221.33"><defs><style>.cls-1{fill:#bfe6ec;}</style></defs><title>senses_vue</title><g id="Layer_2" data-name="Layer 2"><g id="Layer_1-2" data-name="Layer 1"><path id="senses_vue" class="cls-1" d="M422.65,85.7c-10-27.77-33.7-47.48-58.56-62.1C299.43-16.64,210.93-5.22,163.67,56.31c-6.74,10.34-13.49,17.48-26.62,12.7-25.63-5.16-51-18.15-77.61-13.65C40.65,58.3,36.19,75.79,50,88.63c17.64,19.45,43.88,28.15,69.49,30.16,7.45.63,18.43-2.11,17.63,8.58-.3,4-.9,10.81-3.61,14-5.6,4.62-14.08,3-20.92,4.07-31.39,3.46-59.75-17.37-90.69-16C8,131-7.64,142.65,4.17,156.91c24.46,37.21,76.18,41.36,116.38,33.74,6.77-2.92,14.74-10,14.35,3.06.83,27.33,33.32,37.85,49.67,15.51,19.65-25.32,4.63-61.11,17.83-88.46,41.57,32.8,97.54,8.77,113.3-40.45,1.93-12.7,3.28-12.3,14.64-7.19,20.7,14.76,38.25,35.81,61.57,46.12C411.29,124.84,429.07,104.4,422.65,85.7Z"/></g></g></svg>