<svg xmlns="http://www.w3.org/2000/svg" viewBox="0 0 255.38 350.48"><defs><style>.cls-1{fill:#5356a5;}</style></defs><title>senses_toucher</title><g id="Layer_2" data-name="Layer 2"><g id="Layer_1-2" data-name="Layer 1"><path id="senses_toucher" class="cls-1" d="M123,0c6.71-.13,13.28,1.82,18.15,6.42,8.59,8.11,9.32,22,4.92,33s-12.93,19.67-21.24,28.06l-51.47,52c-4.26,4.29-8.61,8.74-10.9,14.34s-2,12.69,2.3,16.94,11.25,4.46,16.84,2.3,10.15-6.29,14.73-10.15a231.35,231.35,0,0,1,73.82-41.83c10.51-3.61,21.7-6.48,32.67-4.67s21.65,9.37,24,20.24c2,9.12-2.24,18.74-8.82,25.38s-15.21,10.77-23.82,14.38a303.88,303.88,0,0,1-85.9,21.94c-7.26.76-14.81,1.33-21.16,4.91s-11.11,11.23-8.83,18.16c1.75,5.32,7.17,8.77,12.68,9.79s11.17.05,16.69-.92L183.48,197c15-2.63,30.68-5.24,45.32-1s27.82,17.67,26.48,32.87c-1.22,13.88-14.13,24.46-27.71,27.59s-27.76.48-41.45-2.18L115,240.47c-5.61-1.09-11.42-2.18-17-.9s-10.86,5.62-11.37,11.32c-.83,9.48,10.46,14.78,19.64,17.27L190.42,291c10.6,2.87,21.5,5.9,30.16,12.65s14.58,18.25,11.51,28.78c-3,10.28-13.77,16.79-24.41,17.86s-21.23-2.26-31.24-6c-30.69-11.57-59.45-27.65-87.89-44C65.26,286.88,41.65,272.92,24,252.64,11,237.64,1.81,218.78.37,198.8s1.16-32.26,9.94-50.5A760.5,760.5,0,0,1,81.21,29.86C88.41,20,96.19,10,107,4.23A35.88,35.88,0,0,1,123,0Z"/></g></g></svg>