<svg xmlns="http://www.w3.org/2000/svg" viewBox="0 0 250.99 298.3"><defs><style>.cls-1{fill:#4f64ae;}</style></defs><title>senses_ouie</title><g id="Layer_2" data-name="Layer 2"><g id="Layer_1-2" data-name="Layer 1"><g id="senses_ouie"><path class="cls-1" d="M121.68,164.14c42.45-42.15,88.86-23.67,108.81-46.95,15.07-20.57-4.24-32.72-22.75-38.34-55.13-19.19-140.38,44.25-148,98.54.12,10.67,10.6,42.92,26.19,34.62,8-4.25,11.63-13.13,15.49-20.8A98.22,98.22,0,0,1,121.68,164.14Z"/><path class="cls-1" d="M60.33,94.82c62.14-67.69,159.45-23.46,132.44-71.4-15-25.51-47.15-26.37-72.91-20.3C83.12,9.47,46.25,25.54,22,54.61,6.36,72.76-2.73,97.91.73,121.89c1,14.46,15.09,31.8,30.22,23.19,6.16-4,8.06-11.91,10.42-18.86A89.33,89.33,0,0,1,60.33,94.82Z"/><path class="cls-1" d="M245.2,265.65c3.16-24-24.94-33.53-42.35-20.55-8.42,5.37-17,10.36-19.17,20.94-2.65,12.69,7.32,30.77,21.07,32.24C222,299,243,283.19,245.2,265.65Z"/><path class="cls-1" d="M250.76,184.46c-.31-42-57.74-26.38-80.95-12.67-18,11.12-35,25.55-44.66,44.57-8.15,16.89-3.2,43.46,16.28,49.52,14.3-.42,17.28-18.26,26.2-26.57A133.11,133.11,0,0,1,184.4,223.8a106.81,106.81,0,0,1,40.91-18.7C236.47,203.52,253.15,198.57,250.76,184.46Z"/></g></g></g></svg>