<svg xmlns="http://www.w3.org/2000/svg" viewBox="0 0 182.39 232.54"><defs><style>.cls-1{fill:#483f99;}</style></defs><title>strength_myop_technique</title><g id="Layer_2" data-name="Layer 2"><g id="Layer_1-2" data-name="Layer 1"><path id="strength_myop_technique" class="cls-1" d="M181,44.25C177.89,21.7,157.84,8.9,137.53,6.54,107.22,2.18,34.27-8.55,11.62,13.06c-18,19.7-15.27,71,9.69,80.44,8.48,3.2,17.73,0,26.37,2.34C58,110.6,27.26,173.36,25.44,195.39c-4.26,15.48.66,36.25,19.81,32.55C60,225.55,73.15,212.43,88,213c10.48.42,19.92,7.61,29.47,13.11,34.48,21.57,48.77-15.92,42.19-45.22a127,127,0,0,0-16-44.38C136,125,125.81,108.28,134.12,94.75,163.24,110.46,188.81,72.62,181,44.25Z"/></g></g></svg>