<svg xmlns="http://www.w3.org/2000/svg" viewBox="0 0 155.45 306.05"><defs><style>.cls-1{fill:#483f99;}</style></defs><title>strength_myop_tactique</title><g id="Layer_2" data-name="Layer 2"><g id="Layer_1-2" data-name="Layer 1"><path id="strength_myop_tactique" class="cls-1" d="M155.08,123.34C153.6,112.2,146.8,100.89,136,97.05c-5-1.77-10.68-1.94-14.91-5.11-13.74-12.83-.25-46.59-23-73.1C77.66-8.42,37.19-5.92,22.19,25.18,4,65.26,4.81,111.5,1.33,154.71-1.38,203-4.4,265.5,41.22,295.43c48.34,32.39,133.52-14.08,108-74.8-7.8-16.77-26.82-28.25-45.09-25.34-3.16.5-6.64,1.34-9.36-.35-9.59-9.11,5.27-19.61,15.24-18.21C146.31,185.15,157.76,154.4,155.08,123.34Z"/></g></g></svg>