<svg xmlns="http://www.w3.org/2000/svg" viewBox="0 0 389.15 424.33"><defs><style>.cls-1{fill:#5356a5;}</style></defs><title>strength_i</title><g id="Layer_2" data-name="Layer 2"><g id="Layer_1-2" data-name="Layer 1"><path id="strength_i" class="cls-1" d="M73.19,165.46c12.33,9.83,24.75,13,39.79,16.68,3,.72,6,1.6,8.4,3.56s3.85,5.28,2.81,8.16c-1.41,3.89-6.25,5-10.35,5.59-13.83,1.92-27.52,3-40.61,8.06A116,116,0,0,0,42,225.65c-18.57,15-32.7,35.79-38.67,59-11.19,43.49,6.78,93,43.25,119.17s89.11,27.39,126.74,2.9S231.13,333.63,222,289.67c-2.21-10.58-6-21.31-4-31.95,3.84-21.18,28.23-32.13,49.73-33s43.28,4.75,64.39.58c32.21-6.37,57.59-37.71,57.12-70.54S362.39,91.36,330,85.93c-17.15-2.88-33.56,1.66-48.29,10.21-13.78,8-21.41,18.74-28.17,33.08-6.38,13.53-13.08,28.2-25.93,36.82-3.22,2.16-7.29,3.39-11,2.39s-6.89-4.65-6.48-8.51c.23-2.14,1.45-4,2.63-5.84,11-16.74,20.45-34.44,20.45-55.13,2.11-48.68-33.94-90.3-81.58-97.8a91,91,0,0,0-29.78.16C75.32,9.45,38.31,55.66,41.25,102.88A88.47,88.47,0,0,0,64.4,157.33,81.48,81.48,0,0,0,73.19,165.46Z"/></g></g></svg>