<?xml version="1.0" encoding="UTF-8"?>
<svg id="Layer_1" data-name="Layer 1" xmlns="http://www.w3.org/2000/svg" xmlns:xlink="http://www.w3.org/1999/xlink" version="1.1" viewBox="0 0 1086 1924">
  <defs>
    <style>
      .cls-1 {
        clip-path: url(#clippath);
      }

      .cls-2 {
        stroke-width: 0px;
      }

      .cls-2, .cls-3 {
        fill: none;
      }

      .cls-3 {
        stroke: #d8ab4e;
        stroke-miterlimit: 10;
        stroke-width: 2px;
      }
    </style>
    <clipPath id="clippath">
      <rect class="cls-2" x="-.2" y="3.9" width="1086.2" height="1920"/>
    </clipPath>
  </defs>
  <g class="cls-1">
    <g>
      <path id="introextra_extra" data-name="introextra extra" class="cls-3" d="M265.9,2073.7c16.2-33.9,21.6-70.6-24.3-79.9-53-4.6-75.6,97.6-132.3,60.9-29.8-36,4.7-92.2,19.8-129.1,13-27.7,25.8-56.2,28.7-86.7,8.9-62.8-44.8-115.1-107.5-96-47.4,12.2-142.3,85.8-83.1,133.3,47.2,21.9,66.4-44.3,90.5-30.3,9.3,7.5,3.2,20.5-2.6,28.4-23.7,36.1-45.5,74.6-54.2,116.8-40.6,176.4,192.5,235.7,265,82.4v.2Z"/>
      <path id="city_tokyo" data-name="city tokyo" class="cls-3" d="M1145.3,193.5C1263.6-9,981.7-171.1,845.3,17.1c-51.1,60.6-11.6,149.3,71.5,125.1,41.6-13,54.8-61.9,86.9-87.7,29.6-18.9,50.6,23.4,31.6,46.1-16.7,27.8-47.4,46.7-58.7,77-19,47.3,24.1,101.5,74.9,93.7,42.3-6.8,71.3-44.7,93.9-77.9h-.1Z"/>
      <path id="failure_enerve" data-name="failure enerve" class="cls-3" d="M1216.1,1239.7c17.2-26,6.1-56.2-5.4-81.9-28.3-63.2-53.7-130-84.3-192.3-13.2-18-39.8-19.4-55.2-3.4-16,15.3-20.3,40.4-21,61.5-8.3-18.2-15.3-37-20.7-56.2-11.1-36.8-8.6-94.1-57.3-101.6-21.4-1.1-35.3,14.7-36.2,35.3-.9,21.1,9.7,40.4,13.9,60.7,10.5,36.2,22.4,72,35.9,107.2,10.9,24.4,15.1,53.2,35,72.3,28.5,24.7,62,3.7,65.1-30.7.8-1.1,5.4-31.7,7.8-26.2,19.9,54.2,30.8,116.4,68.5,161.5,16.2,15.1,42.7,13.5,53.9-6.3h.1Z"/>
      <g id="palmares_i" data-name="palmares i">
        <path class="cls-3" d="M257.8,128.1c-1.4-1.8-2.8-3.6-4.5-5.3-7.1-7.3-17.2-13.1-27.5-14.6-8.6-1.3-18.1,3.1-24.4-5.1-3.2-4.1,10.9-15.5,13.1-18.8,5.2-8,6.7-18.9,5-28.2-3.1-17-16.6-29-32.7-33.9-23.4-7.2-53.8-3.1-76.9,12.3-12.5,8.3-22.5,19.6-26.1,17-2-1.4-.8-19.6-1-22.6-.6-9.4-1.4-18.7-2.5-28-2.3-19.5-5.9-39.1-12.7-57.6-12-33.2-46.1-71.4-85-52.2-16.9,8.4-24.6,25.4-30.6,42.3-6.1,17.7-4.3,29.3-10,30.9-7.5,2.1-14.3-17.9-33.4-35.2-19.7-17.9-54.5-34.2-77.9-23.5-20.4,9.3-25.8,34.7-26.5,54.9-1.3,46.2,18.1,90.6,47,126.1,11.9,14.6,25,28.9,41,39.1,7.9,5.1,16.8,9.2,26.2,10.6,10.2,1.6,19.5-2.3,29.4,1.3,13.5,24.3,19.2,53.9,49.4,64.7,23.5,7.4,44.5,9.7,61.7-16,7.6-16,8.1-17.7,25.3-11.5,12.7,2.8,24.4-1.4,36.1-5.6,12.5-4.4,17.9-9,20.8-6.5,3.4,2.8.3,18.8,1.7,23.6,3,10.2,9.2,19.6,17.4,26.5,22.8,19,62.2,16.9,84.5-2,23.5-19.9,31.6-57.5,12.8-82.8h.3ZM-71.1,63.8c6.4,19.3-14.3,21.6-26.4,11.2-28.9-17.6-74.9-94-65.6-127.6,6.6-11.4,23.9-4,31.2,2.4,7.8,7,12.9,16.6,18.4,25.3C-95.6,2.8-79.8,31.8-71.1,63.8ZM31.1,29.9c1.8,19.3,9.5,149.6-19.1,142.6C-19.6,164.4-15.1,21.1-10.1-7.8c.8-14.3,3.7-49.5,25.7-36,12.9,10.3,12.2,56,15.4,73.8h0ZM142.8,101.7c-10.4,12.1-22.8,23.1-37.4,29.8-24.3,9.9-19.2-16.9-7.9-28.1,15.6-18.4,36.2-40.8,59.8-48,18.7,1.4-8.5,39.7-14.5,46.3ZM219.7,168.6c-11.2,41.8-33.3,25.1-27.1-9,6.6-28.6,33.9-16.4,27.1,9Z"/>
      </g>
      <g id="personalitly_audacieux" data-name="personalitly audacieux">
        <path class="cls-3" d="M-193.7,954.3h0Z"/>
        <path class="cls-3" d="M178.7,889.9c-15.5-36.6-69.3-48.2-94.5-15.4-5,8.2-15.8,21.4-25.5,11.9-4.4-6,1.5-10.7,6-13.5,33.3-16.5,51.7-59.7,22.4-88.7-44.8-37.2-95,3.4-83.8,56.7-1,14.4-16.7,25.2-24.8,8.4-7.9-25.5,13.8-46-9.8-72.4-23.2-28.1-70.5-25.9-93.7,1.3-32.9,35.7-10,98.2,38.4,104.3,8.6,1.3,18.7,1.4,24,8.3,4.3,5.5,3.2,14.4-2.3,18.7-14.1,10.1-43.3-18.7-75.9-10.2-44.9,9.4-68.4,65.5-50.2,105.8,27.5,59.9,108,54.1,126-9.6,19.5-38.1,48.8-14.9,41.7,19.9-25.9,116.8,140.7,109.8,128.8,1.2-6.1-35.2-32.5-40.1-59.4-54.4-18.4-10-5.6-31.3,11.7-20.8,14.8,15.9,25.5,37.1,48.8,42.8,53.8,18.6,95.3-49,72.2-94.5v.2Z"/>
      </g>
      <path id="senses_toucher" data-name="senses toucher" class="cls-3" d="M874.9,1910.7c-3.7-7.7-4.9-16.2-2.2-24.2,4.8-14.1,20.5-22.3,35.5-23,15-.7,29.6,4.5,43.6,9.6,29.1,10.6,58.2,21.2,87.3,31.7,7.2,2.6,14.7,5.3,22.3,5s15.7-4.4,18.3-11.6c2.6-7.1-.8-15.3-6.2-20.5-5.4-5.3-12.7-8.3-19.5-11.6-32.7-15.3-62.5-36.7-87.4-62.7-9.8-10.2-19-21.5-22.7-35.1-3.7-13.6-.6-29.8,10.7-38.2,9.5-7.1,22.8-7.3,34-3.2,11.2,4.1,20.5,11.8,29.3,19.8,27.8,25.4,51.7,54.8,70.8,87.1,4.7,7.9,9.4,16.3,16.9,21.7,7.5,5.4,18.8,6.8,25.6.6,5.2-4.8,6.3-12.8,4.6-19.7-1.7-6.9-5.8-12.9-9.9-18.7-18.5-26.7-37-53.3-55.5-80-11-15.9-22.3-32.5-25.1-51.5-2.8-19.1,5.6-41.3,23.9-47.7,16.7-5.9,35.7,3.3,46.6,17.3,10.9,13.9,15.3,31.6,19.4,48.7,7.2,29.7,14.5,59.3,21.7,89,1.7,7,3.5,14.3,7.9,20,4.4,5.7,12.3,9.5,19.1,7.1,11.4-4,11.6-19.8,9.6-31.6-6-36.2-12.2-72.4-18.2-108.7-2.3-13.7-4.5-27.8-1.4-41.3,3.2-13.5,13.4-26.4,27.2-28.4,13.5-2,26.7,7,33.6,18.6,6.8,11.7,8.6,25.6,9.6,39,2.9,41.3-.4,82.8-4.2,124.1-3.1,33.8-6.7,68.2-20.8,99.1-10.5,22.9-27.4,43.4-49.7,55.5-22.4,12.2-37.8,15.7-63.6,15.2-58.5-1.1-117-7.5-174.3-19.1-15.2-3.1-30.9-6.7-43.2-16.1-5.6-4.2-10.4-9.9-13.4-16.2h-.1Z"/>
      <path id="direction_loin" data-name="direction loin" class="cls-3" d="M1037.3,1188.3c50.1-5.1,13.1,120.9,13.1,150.1-6.6,24.4,15.8,39.4,20.6,61.4,9.8,45.4-21.2,52.7-21.8,73.6,4.5,11.1,18.7,14.6,25.7,24.1,16.4,17.4,21.1,44,12,66-7.8,19.6-48.5,79.4-72.6,60.4-6.3-5.3-8.7-14.3-7.5-22.5,1.5-9.5,6.9-16.7,12.9-23.9,49.8-60.8-29.3-43.9-19.6-111.3,1.1-8.6,3.2-17.9,8.1-25,19.8-31.4-26.2-48.2-17.5-109.5.9-21.3,4.9-42.3,9-63.3,5.1-24.9,6.8-74.9,37.6-80.1h.1Z"/>
      <path id="direction_haut" data-name="direction haut" class="cls-3" d="M81.6,1493.4c3.6-66.5-83.3-60.3-127.6-47.1-14.4,4.6-18.5-11.1-3.2-13.1,160.5,5.7,180.8-176.1.2-112.2-12.7,4.5,1.5-10.7,3.3-12.4,15.5-15.2,33.3-28.5,35.4-51.8,3-34.3-30.7-49-39.1-79-7.4-26.4-25.1-53.3-57.1-46.1-28.5,6.4-23.2,44.3-11.5,62.5,7.8,12.3,18.1,23.6,21.8,37.7,5.3,20.3-5.8,40.4-22.9,51.1-23.8,14.9-41.5,51.6-25.5,77.5,11.5,18.4,35.4,26.1,57,24.3,14.8-1.3,29-6.2,42.4-12.1,13.5-5.9,23.1-11.9,34-12.1,9.2-.2,12.8,11.1,4.2,15.2-15,4.8-31.8,3.6-47.4,6.6-33.5,3.8-76.1,25.3-87.2,58.8-5.1,26.4,14.8,48.6,40.9,50.7,30.5,5.5,60.9-3.7,90.9-6,4.6,1.3,5.1,7,2.3,10.3-3.3,3.8-8.5,3.6-13.1,4.6-103.4,30-50.3,165.6,45.2,149,12.5-1.5,27.8-10.1,25.9-24.3-4-20.3-47.4-22.9-51.9-56.6-.6-52.3,77.3-21.8,83-75.3v-.2Z"/>
      <path id="podium_fashion" data-name="podium fashion" class="cls-3" d="M67,712.1c-3.1,5.3-8.4,9.7-16.5,12.6-10.4,3.7-21.7,3.1-32.6,1.5-24.7-3.6-49-12.1-69.2-26.7-20.2-14.6-36.1-35.7-42.2-59.7-4.2-16.5-3.5-35.1,6.1-49,17.5-25.2,54.6-25.4,80.7-41.6,5.7-3.5,11.5-9.6,9.6-16-1.1-3.7-4.6-6.2-7.8-8.4-17.1-12.1-33.6-27.3-39.3-47.4-5.6-20.1,3.7-45.5,24-51,8.1-2.2,20-4,19.6-12.4-.2-3.9-3.4-6.9-6.3-9.5-10.4-9.4-19.4-20.9-23.3-34.3-3.9-13.4-2-29.1,7.4-39.4,7.7-8.5,20.7-14.8,20.6-26.2,0-3.1-1.1-6.1-1.3-9.1-.8-9,5.6-17.6,14-21.1,8.3-3.6,18-2.7,26.5.5,16.8,6.3,29.7,22,32.7,39.6,2.9,17.6-4.1,36.6-18,48,17.6,6.6,30.4,24.3,31,43,.6,18.7-11,37.2-28.2,44.9-10.4,4.6-22.7,5.9-30.8,13.9,22.1,10,45.3,20.8,59.5,40.3,19.7,26.8,16.6,67.7-6.9,91.3-9.4,9.4-21.1,15.9-33.1,21.7-16.5,8-33.7,14.7-51.2,20,18.5,3.4,37.5,6.9,53.4,17,18.2,11.5,32.4,39.7,21.7,57.8v-.3Z"/>
      <g id="senses_gout" data-name="senses gout">
        <path class="cls-3" d="M1192.6,306.3c-1.6-5.2-3.8-10.2-6.7-15-2-3.4-4.5-6.8-8.1-8.4-7.6-3.4-16.3,2.6-21.3,9.3-11.2,15.1-14,34.9-24,50.8-19,30.1-58.3,39.3-86.7,60.8-36.4,27.6-53.3,78.1-40.8,121.9-29.5,15.5-47.4,48.2-50.4,81.2-3,33,7.3,66.1,23.4,95.2,17.3,31.2,41.2,59,52.9,92.6,6.7,19.3,9.1,39.9,9,60.3,0,6.8-.4,13.9,1.9,20.3,2.2,6.5,7.7,12.3,14.7,12.7,11.6.6,17.8-13,20.8-24.1,10.7-39.3,21.4-80.5,12.3-120.1-10.7-45.7-46-81.4-65.3-124.2-3.9-8.6-7.1-18.1-5.2-27.3,2-9.2,11.2-17.4,20.3-15.2,7,1.7,12.2,8.8,19.3,9.1,5.5.2,10.4-3.7,14.3-7.6,11.5-11.7,20.1-26.1,25.1-41.7,2-6.1,3.2-13.3-.4-18.6-2.7-3.9-7.3-5.8-11.5-8-11.7-6.4-20.8-17.1-25.2-29.6,41.8-13.1,86.3-27.8,113.7-61.8,10.7-13.2,18-28.9,21.7-45.4,1.9-8.3,2.8-16.9,2.8-25.4s-2.2-16.8-3.1-25.3c-.6-5.6-1.7-11.1-3.3-16.3v-.2Z"/>
        <path class="cls-3" d="M1174.2,470.2c-1.5-.2-3-.2-4.5-.1-9.8.6-18.1,7.1-24.4,14.4-3.4,3.9-6.5,8.2-7.7,13.2-1.2,4.9-.5,10,0,15,1.7,15.4,2.1,30.9,1,46.3-.8,12.1-2.9,25-11.4,33.8-10.3,10.6-27.4,12.6-37.2,23.5-5.3,5.8-7.9,13.5-9.9,21.1-2.5,9.7-4.2,19.6-5.1,29.6-.7,7.5-.4,16.1,5.3,21,3.2,2.7,7.6,3.6,11.9,4,8,.8,16.2.2,23.9-1.7,8.7-2.1,16.9-5.9,25.1-9.6,8.6-4,17.3-7.9,25.4-12.8,28.6-17.2,49-46.4,57-78.4,8.9-34.9.1-71.2-21.6-100-6.9-9.2-16.6-18-27.9-19.3h0Z"/>
      </g>
      <g id="senses_odorat" data-name="senses odorat">
        <path class="cls-3" d="M620.2,3.4c1.3-18-5.6-39.5-11.5-52.1-5.7-12.3-14.9-24.5-28.3-27.2-12.1-2.5-24.3,3.4-33.8,11.1-21.6,17.6-33.3,44.6-39.7,71.7-6.4,27-8.3,54.9-14.6,82-3.7,16.3-10.6,34-25.8,41.2-13.1,6.1-29.3,2.3-40.6-6.6s-18.5-22.1-23.4-35.6c-6.6-18-9.9-38.1-3.9-56.4,1.1-3.3,2.4-6.7,1.7-10.1-1.2-5.5-7.7-8.5-13.4-7.6-5.6.9-10.4,4.5-14.6,8.2-7.4,6.5-14.6,14.1-17.5,23.5-2.6,8.6-1.4,17.8-.1,26.7,2.7,18.1,6,36.2,13.3,53,7.2,16.8,18.9,32.2,34.9,41.1,24.8,13.8,57.3,9.3,80.9-6.8,23.4-16.1,38.6-42.1,46.6-69.3,7.7-26.6,9.2-54.6,15.3-81.7,3.1-13.7,7.3-27.2,12.8-40.2,12.2,9.5,17.6,25.1,20.6,40.2,1.6,7.6,3.2,16,9.5,20.6,6.7,4.9,16.9,3,22.8-2.8,5.8-5.7,8.4-13.8,9.2-22.8h-.2Z"/>
        <path class="cls-3" d="M430.3-146.2c-14.8,1.3-28.6,9.4-39.4,19.7-20.7,19.7-32.1,47.2-38.8,74.9-1.2,4.8-2.2,9.8-4.8,14.1-2.6,4.3-7,7.8-12.1,7.7-5.4,0-10.1-4.1-13.4-8.4-9.4-12-13.2-28.1-10.4-43,1.4-7.3,3.7-16.1-1.9-21-3.2-2.7-8-2.9-12-1.4s-7.2,4.3-10.4,7.1c-6.1,5.4-12.3,11.2-15.9,18.4-6.6,13.2-4.1,29.2.3,43.3,3.9,12.4,9.5,24.7,18.3,34.3,9,9.6,21.7,16.2,34.8,15.4,11.8-.7,22.4-7.2,31.3-14.8,12.4-10.7,22.3-24.1,29.1-38.9,6.9-15.5,10.4-32.4,17.9-47.7,2.7-5.5,6.1-10.9,11.7-13.6,6.1-3.1,13.9-1.9,19.7,1.7s10.1,9.4,13.2,15.5c10.3,19.8,10.4,43.7,3.9,65s-19,40.3-33.2,57.5c-1.8,2.3-3.8,4.6-4.4,7.5-1.6,7.2,6.4,13.6,13.8,13.2,7.3-.4,13.7-5.3,19.1-10.3,42.7-39.8,70.9-112.1,37.6-166.1-10.7-17.3-29.7-30.5-50.1-30.3-1.3,0-2.5,0-3.8.2h-.1Z"/>
        <path class="cls-3" d="M704.5,39.8c2.7,10.3,4.5,20.9,9.2,30.4,1.7,3.6,4,7.1,7.3,9.2,7.6,4.7,18.3,0,23.1-7.4,18.4-28.3-2.3-74.7-20.4-97.9-3.4-4.4-7.4-8.8-12.7-10.8-6.7-2.6-14.5-.8-21.1,2.1-17.7,7.7-31.1,23.3-39.2,40.7-8.1,17.4-11.6,36.6-13.5,55.7-.7,7.2-1.2,14.5-3.6,21.4-2.3,6.9-6.8,13.4-13.4,16.5-10.5,4.9-23.6-.3-30.4-9.6-6.7-9.3-8-21.5-6.8-32.9.5-4.4,1.3-8.8.4-13.1-.9-4.3-3.9-8.6-8.3-9.2-2.2-.3-4.4.3-6.4,1.1-14.2,5.4-24.2,19.1-27.3,33.9-3,14.8.5,30.4,7.3,43.8,5,9.7,12.1,18.8,21.6,24.1,15.9,8.9,36.3,6.1,52.6-2.2,29.9-15.1,49.2-46.6,55.5-79.3,3-15.7,3.5-32,9.4-46.9,8.7,7,13.3,18,16.2,28.8.1.5.3,1.1.4,1.6h.1Z"/>
      </g>
    </g>
  </g>
</svg>