<?xml version="1.0" encoding="UTF-8"?>
<svg xmlns="http://www.w3.org/2000/svg" xmlns:xlink="http://www.w3.org/1999/xlink" viewBox="0 0 418.24 500.16">
  <defs>
    <style>
      .cls-1 {
        clip-path: url(#clippath);
      }

      .cls-2, .cls-3, .cls-4, .cls-5, .cls-6, .cls-7, .cls-8, .cls-9, .cls-10, .cls-11, .cls-12 {
        stroke-width: 0px;
      }

      .cls-2, .cls-13 {
        fill: none;
      }

      .cls-3 {
        fill: #35823f;
      }

      .cls-4 {
        fill: #ee4036;
      }

      .cls-5 {
        fill: #fce80d;
      }

      .cls-14 {
        clip-path: url(#clippath-1);
      }

      .cls-15 {
        clip-path: url(#clippath-4);
      }

      .cls-16 {
        clip-path: url(#clippath-3);
      }

      .cls-17 {
        clip-path: url(#clippath-2);
      }

      .cls-18 {
        clip-path: url(#clippath-7);
      }

      .cls-19 {
        clip-path: url(#clippath-8);
      }

      .cls-20 {
        clip-path: url(#clippath-6);
      }

      .cls-21 {
        clip-path: url(#clippath-5);
      }

      .cls-22 {
        clip-path: url(#clippath-9);
      }

      .cls-6 {
        fill: #000;
      }

      .cls-7 {
        fill: #d91c5c;
      }

      .cls-23 {
        clip-path: url(#clippath-10);
      }

      .cls-8 {
        fill: #700d21;
      }

      .cls-9 {
        fill: #5356a4;
      }

      .cls-10 {
        fill: #f6921e;
      }

      .cls-13 {
        stroke: #d9ac4e;
        stroke-miterlimit: 10;
        stroke-width: .89px;
      }

      .cls-11 {
        fill: #52b3e5;
      }

      .cls-12 {
        fill: #231f20;
      }
    </style>
    <clipPath id="clippath">
      <rect class="cls-2" x="32.49" width="362.1" height="500.16"/>
    </clipPath>
    <clipPath id="clippath-1">
      <rect class="cls-2" x="64.68" y="77.61" width="328.45" height="344.93"/>
    </clipPath>
    <clipPath id="clippath-2">
      <rect class="cls-2" x="6.38" y="219.3" width="145.42" height="134.14"/>
    </clipPath>
    <clipPath id="clippath-3">
      <rect class="cls-2" x="174.36" y="240.63" width="175.89" height="141.21"/>
    </clipPath>
    <clipPath id="clippath-4">
      <rect class="cls-2" x="46.93" y="293.59" width="151.4" height="140.08"/>
    </clipPath>
    <clipPath id="clippath-5">
      <rect class="cls-2" x="206.16" y="54.2" width="178.88" height="136.71"/>
    </clipPath>
    <clipPath id="clippath-6">
      <rect class="cls-2" x="115.01" y="12.66" width="98.53" height="129.92"/>
    </clipPath>
    <clipPath id="clippath-7">
      <rect class="cls-2" x="135.9" y="94.6" width="171.37" height="160.97"/>
    </clipPath>
    <clipPath id="clippath-8">
      <rect class="cls-2" x="79.9" y="230.44" width="188.93" height="39.28"/>
    </clipPath>
    <clipPath id="clippath-9">
      <rect class="cls-2" x=".03" y="88.02" width="114.98" height="113.81"/>
    </clipPath>
    <clipPath id="clippath-10">
      <rect class="cls-2" x="282.27" y="145.16" width="135.97" height="190.93"/>
    </clipPath>
  </defs>
  <g id="bg">
    <g id="Group_422" data-name="Group 422">
      <g class="cls-1">
        <g id="Group_421" data-name="Group 421">
          <path id="Path_2254" data-name="Path 2254" class="cls-13" d="M393.61,250.09c0,24.79.08,49.59-.02,74.39.08,32.49-9.08,64.32-26.39,91.81-16.99,27.22-40.05,47.79-68.42,62.52-16.37,8.44-33.92,14.34-52.07,17.48-13.53,2.42-27.28,3.34-41.02,2.74-37.22-1.64-71.14-12.99-101.37-34.95-17.19-12.39-31.89-27.91-43.33-45.75-17.92-27.76-27.49-60.09-27.55-93.13.03-50.31-.05-100.61.03-150.91.04-25.56,5.88-50.77,17.08-73.75,3.6-7.42,7.73-14.58,12.34-21.42,16.76-25.09,38.88-44.11,65.57-57.92,16.03-8.22,33.19-14.02,50.92-17.21,14.19-2.58,28.63-3.52,43.03-2.81,26.67,1.1,52.78,8,76.52,20.22,15.96,8.18,30.58,18.75,43.34,31.35,7.54,7.35,14.36,15.41,20.35,24.07,12.32,17.77,21.22,37.67,26.25,58.7,2.11,8.92,3.51,17.98,4.21,27.12.31,4.15.48,8.33.49,12.49.04,24.99.05,49.98.02,74.98Z"/>
        </g>
      </g>
    </g>
  </g>
  <g id="pink">
    <g id="Group_404" data-name="Group 404">
      <g class="cls-14">
        <g id="Group_403" data-name="Group 403">
          <path id="Path_2244" data-name="Path 2244" class="cls-7" d="M220.64,422.54c3.52-.05,7.04-.05,10.56-.22,3.39-.04,6.76-.63,9.96-1.75l.47-.12c.35.08.71-.02.97-.27h.05c.42.08.85-.05,1.15-.34l.07-.02.29-.07c.22-.07.44-.14.66-.21.43.11.89-.02,1.2-.35h.03c.19,0,.38,0,.57-.02,3.98-1.19,7.83-2.8,11.48-4.8,1.56-.8,2.6-2.26,4.01-3.29,6.55-4.75,11.61-11.27,14.59-18.79,1.65-3.83,2.79-7.85,3.42-11.98.56-3.43.92-6.89,1.07-10.37-.06-4.55-.65-9.08-1.76-13.5-.93-4.55-2.42-8.96-4.44-13.14-2.11-4.15-4.76-7.99-7.88-11.44-.88-.99-1.29-2.25-2.21-3.2-.2-.15-.23-.44-.08-.64.04-.05.08-.08.13-.11.7-.39.27-.75.04-1.17-.89-1.3-1.52-2.76-1.86-4.3-.08-.64-.58-.91-1.13-1.18-.65-.33-1.53-.44-1.72-1.36-.51,1.05-.5,1.06.29,1.73.28.23.09.41-.07.58-.32.36-.72.16-1.09.18-.18-.24-.27-.56-.63-.62.38-.55-.63-1.2-.04-1.59,1.23-.8.07-1.29-.2-1.79-.43-.8-.7-.15-.99.23-.18.23-.45-.04-.61-.02-1.48.19-.85-1.37-1.81-1.76.47-.08.95.04,1.31.34.29.17.5.77.92.34.32-.32.05-.71-.16-1.05-.77-1.55-2.1-2.75-3.72-3.37-.37-.11-.18-.77-.62-.59-.55.22.04.55,0,.82-.06.42-.35.41-.6.16-.37-.3-.66-.68-.84-1.12-.24-.68-.68-.57-.97.06-.81-.17-.46-1.12-.97-1.45-1.98-1.31-3.05-3.5-4.86-4.97-.2-.58.08-1.56-1.11-1.31-.17-.08-.34-.17-.52-.25.03-.2-.1-.24-.26-.24.03-.13.05-.26.08-.4-.15-.11-.3-.22-.45-.34-.15-.03-.3-.08-.43-.15.13.07.28.13.43.15.34-.6.34-1.05-.49-1.14-.24-.03-.42-.21-.46-.45.29-.91-.68-1.4-.75-2.1.06-.97-.28-1.92-.95-2.63-.58-.79-.97-2.09-.46-2.71,1.13-1.37.89-3.15,1.8-4.53.37-.58.57-1.24.6-1.92.09-1.64,1.94-2.48,1.96-4.18,0-.1.3-.25.47-.29,1.16-.36,2.14-1.16,2.72-2.23.3-.45.55-1.05,1.22-1.14-.17.32-.48.73-.02.93.5.16,1.04-.05,1.29-.51l1.24.45.04.11h.11c1.49.68,2.3,2.14,3.52,3.13.45-.03.91.1,1.28.36-.37-.26-.82-.39-1.28-.36l1.86,2.24c.12.18.23.35.35.52.35.78.58,1.62,1.67,1.74.4.08.69.43.7.83.08,1.12.93,1.71,1.58,2.47.81.96,2.22,1.32,2.69,2.49.88,2.18,3.29,2.59,4.6,4.23.03.04.18-.02.27-.03l.51.28c0,.28.13.54.36.69.47,1.2,1.79,1.5,2.54,2.41q.19.93,1.15.71c.3-.07.42.11.52.35.88,2.03,2.67,3.46,3.51,5.57.4,1,1.22,1.79.97,3.04-.03.55.22,1.07.65,1.4.96,1.02,2.16,1.79,3.49,2.24,3.49,1.15,6.79,2.88,10.39,3.71,3.86.89,7.75,1.61,11.68,2.16,4.65.68,9.35.82,14.03.42,4.52-.41,9.09-.35,13.52-1.56,2.5-.68,5.05-1.16,7.55-1.86,1.58-.44,3.07-1.16,4.62-1.7,3.78-1.15,7.42-2.73,10.84-4.71,1.14-.72,2.62-.63,3.57-1.75.67-.8,1.4-1.61,2.68-1.24.43.12.62-.35.91-.6,1.39-1.25,3.36-1.82,4.24-3.65.03-.06.17-.05.26-.08,1.79-.6,3.27-1.87,4.13-3.55.32-.66.77-1.26,1.32-1.75.76-.59.83-1.63,1.61-2.2,1.57-1.21,2.91-2.69,3.95-4.37.93-1.43,1.94-2.81,2.97-4.18.97-1.08,1.45-2.53,1.32-3.98,0-.15.23-.28.33-.43.58-.87,1.58-1.71,1.65-2.62.25-1.41.71-2.78,1.35-4.06.14-.39.49-.79-.06-1.14-.04-.53.41-.85.56-1.3.38-1,.76-2,1.14-2.99.14-.26.28-.51.42-.77.47-.25.64-.84.38-1.31-.03-.05-.06-.1-.1-.15l.33-.8c.44-.76.75-1.6.9-2.47.09-.27.19-.54.28-.8.47-.16.44-.43.14-.74.06-.24.11-.47.17-.7-.03-.05-.06-.1-.08-.15-.08-.16-.18-.32-.3-.45.12.13.22.28.3.45.03.04.05.09.08.15,1.04-.41.13-1.44.48-1.82,1.01-1.09.12-1.48-.53-2.03-.09-.18-.18-.35-.27-.53,1.18-.03,1.63-1.16,2.48-1.69.21-.13-.31-.52-.46-.8-.3-.57-.29-1.13.54-1.02.54.07.76-.1.82-.52.12-.86-.44-.25-.7-.3s-.52-.17-.44-.45c.06-.42.24-.82.52-1.15.32-.26.22.46.59.47.22-1.08,1.39-2.33-.63-2.96-.09-.04-.15-.12-.18-.21-.15-.52.79-.79.32-1.38.77-.3.53-.47-.05-.74-.33-.23-.44-.66-.27-1.02.95-.92.5-1.91.26-2.9-.03-.13-.14-.22,0-.37.9-.92.63-1.92.22-2.95-.5-1.24.31-2.47.07-3.72-.05-.29.22-.49.6-.41.34.07.78.08.69-.43-.08-.46-.4-.62-.86-.31-.33.21-.7.16-.83-.23-.12-.34.04-.72.37-.87.73-.09,1.25-.74,1.18-1.46.02-.37.8-.76.3-1.19-.46-.4-.84.24-1.21.48-.24.16-.38.45-.72.26-.26-.17-.34-.5-.2-.78.23-.77.25-1.6.04-2.38-.07-.42-.41-1.47.82-1.37.17,0,.31-.15.3-.33,0-.08-.04-.16-.09-.21-.39-.31.3-1.91-1.16-.98-.44.28-.69-.28-.61-.52.34-1.07-.49-2.26.55-3.29.68-.64.73-1.7.13-2.41-.73-.7-1.27-1.57-1.59-2.54-.06-.17-.02-.38.28-.36,1.48.1,1.24-1.06.75-1.51-1.24-1.16-.99-2.91-1.98-4.18-1.27-1.63-1.5-3.87-2.88-5.51-.29-.34-.46-.7-.93-.78-.16-.35-.54-.34-.82-.51-.12-.62.39-1.43-.54-1.81-.09-.36-.35-.65-.7-.79.06-.2,0-.32-.22-.34v-.03c.08-.48.02-.89-.5-1.09l-.03-.03c.43-.63.03-1.02-.42-1.38-.47-.85-1.05-1.65-1.71-2.36.32-.31.08-.59-.04-.89-.18-.47.62-1.42-.47-1.4-.92.01.15,1.01-.41,1.35-.06-.05-.13-.09-.21-.1.05-.13-.02-.28-.16-.32-.03-.01-.06-.02-.09-.01h0c.36-.94.13-1.53-.96-1.59h0c.26-.54.16-1.18-.25-1.61-1.18-1.56-1.85-3.43-2.9-5.04-.6-.91-.96-2.17-2.17-2.57-1.63-.42-3.01-1.51-3.78-3.01-.17-.49-.7-.75-1.19-.58-.1.03-.19.08-.27.15l-.42-.25c.37-.55.11-.89-.4-1.08-.7-.37-1.36-.81-1.97-1.32-.02-.06-.04-.11-.08-.16.24-.51.33-1.01-.43-1.02-.6,0-.85-.43-1.15-.77-.4-.48-.99-.76-1.62-.76-.96,0-1.75-.74-1.81-1.7-.03-.57-.22-.5-.57-.67-1.5-.61-2.94-1.36-4.3-2.24-1.05-.67-2.14-1.26-3.28-1.76-1.8-.82-3.67-1.5-5.57-2.03-3.72-1.27-7.6-1.94-11.4-2.89-.54-.13-1.08-.19-1.64-.36-1.42-.38-2.88-.62-4.35-.75-1.07-.13-2.12.12-3.03-.67-.08-.07-.29.01-.43,0-1.4-.22-2.86.31-4.24-.4-.32-.17-.9.12-1.35.25-.15.04-.2.54-.46.15-.61-.96-1.7-.48-2.5-.86-.31-.18-.71-.07-.89.24-.05.09-.08.2-.08.3-.08.52.1.76.69.83,1.32.16,2.63.42,3.94.66.55.1,1.2.07,1.51.79-2.22-.03-4.3.46-6.44.38-.63-.02-.85.02-1.12-.6-.42-.94-1.52-1.35-2.45-.93-.13.06-.25.13-.36.22-.26.19-.61.24-.91.11-1.54-.23-3.11-.21-4.65.04-.5.06-.65.4-.14.76.3.15.5.45.53.78-1.16-.33-2.29-.54-3.24.45-.71.16-1.41.33-2.12.49-1.36-.32-2.64.41-3.99.32-2.12-.29-4.28.15-6.11,1.26-1.05.72-2.49.48-3.31,1.2-1.58,1.4-3.89,1.18-5.36,2.73-.33.35-1.47.2-1.29.81.2.69,1.1.37,1.73.19.03,0,.07.04.19.11-.18.25-.46.48-.42.83-2.68,1.1-4.69,3.21-7.15,4.64-.55-.49-.31-.6.24-.96,1.84-1.21,3.59-2.57,5.59-4.04-1.43-.23-2.88.18-3.97,1.13-1.75,1.18-3.06,2.87-4.82,4.07-1.97,1.43-3.66,3.21-5.01,5.24-1.94,2.75-4.46,5.07-5.74,8.32-.53,1.8-1.25,3.54-2.14,5.19-.08.02-.14.07-.18.13-.29.04-.5.32-.45.61,0,.01,0,.02,0,.03-.47.37-.79.89-.91,1.47-.88.7-1.53,1.65-1.85,2.73.59,0,.92-.71,1.42-.26.09.11.11.26.07.39-.26.53-.76.28-1.16.29-.64,0-1.22.37-1.49.95-1.37,2.32-3.09,4.41-5.11,6.19-.41.37-.92.89-1.75.24-1.13-.83-2.18-1.76-3.14-2.78-.79-.95-1.3-2.11-1.47-3.34-.12-.65.26-1.76-.23-1.85-1.59-.28-1.57-1.9-2.56-2.61.05-.06.09-.12.13-.19,1.32-.63-.32-1.18-.05-1.78.16-.28.32-.57.48-.85.28-.17.4-.52.27-.83.47-1.53.94-3.06,1.42-4.59.72-.88,1.22-1.92,1.46-3.04.16-.35.32-.71.48-1.06.15-.1.3-.21.46-.32.59-.43,1.07-2,1.85-.09.2.5.62.08.85-.27,1.17-1.53,1.94-3.33,2.24-5.23.09-1.48.28-2.95.56-4.41.74-2.77.17-5.57.53-8.33.13-1.02-.72-1.66-.7-2.6.08-5.32-1.08-10.5-1.9-15.71-.31-2.11-.8-4.19-1.48-6.21-1.02-2.97-2.04-5.95-3.15-8.9-1.23-3.72-2.73-7.34-4.49-10.84-1.05-1.91-2.42-3.67-3.26-5.6-1.65-3.81-4.51-6.74-6.73-10.11-2.53-3.84-6.3-6.62-9.33-10.06-2.21-2.51-5.11-4.33-7.66-6.51-2.71-2.31-6.09-3.79-9.38-5.27-2.3-1.03-4.54-2.2-6.87-3.15-1.66-.67-3.11-1.98-4.83-2.22-2.01-.42-4-.95-5.96-1.58-5.57-1.43-11.26-1.91-16.9-2.79-3.03-.47-6.11-.54-9.15-.85-1.38-.14-2.8-.64-4.14-.26-2.74.79-5.61.8-8.36,1.65-1.6.54-3.23.96-4.89,1.27-5.81.9-11.33,2.91-16.97,4.46-3.44,1-6.81,2.24-10.08,3.7-2.82,1.04-5.53,2.36-8.1,3.92-3.63,2.48-7.29,4.91-10.9,7.41-1.15.73-2.17,1.65-3,2.73-.55.74-1.25,1.36-2.06,1.82-2.04,1.15-3.72,2.84-4.88,4.87-.3.77-.74,1.48-1.3,2.08-2.04,1.87-3.8,4.01-5.25,6.37-2.42,3.36-4.51,6.94-6.26,10.69-.84,1.96-2.06,3.8-2.59,5.82-1.56,5.96-3.84,11.74-4.23,18-.23,3.67-.84,7.3-.65,11,.12,2.37.89,4.69.59,7.08-.12,1.45-.03,2.91.28,4.33.28,1.68.63,3.34.8,5.03.33,3.03.98,6.03,1.93,8.92,1.17,4,2.59,7.91,4.27,11.72,1.02,2.4,2.3,4.67,3.81,6.79.31,1.29.74,2.55,1.11,3.81.23.78-.22,2.12,1.13,2.43-.09.41.29.33.49.44.31.78-1.39.63-.75,1.32.76.82.84,1.92,1.46,2.73,1.34,1.74,1.66,3.99,3.13,5.68,1.53,1.76,2.58,3.86,4.33,5.51,1.04.97,2.28,1.59,3.3,2.53l.15.39c.44,1.05,1.39,1.79,2.51,1.96.07.06.16.09.25.1.3,1.29,1.39,1.71,2.41,2.23.86.35,1.03,1.42,1.76,1.8,2.47,1.29,4.36,3.38,6.76,4.76.31.5.79.24,1.21.27l2.21,1.47c1.61,1.18,3.54,1.83,5.54,1.87.31.65,1.1.35,1.51.78.45.28.92.52,1.41.72,3.35,1.05,6.72,2.06,10.07,3.11,1.06.21,2.1.5,3.11.86.68.33,1.63,1.14,2.5.13.1.09.27.16.3.27.18.6.36.77.92.25.29-.27.67.17.68.5.03.88.68.87,1.22.87,2.06-.03,4.02.7,6.17.44,1.68-.2,3.46.54,5.27.67,1.97.14,3.98.22,5.96.43,1.1.2,2.22.24,3.34.12.84-.12,1.7-.03,2.5.26,1.45.38,2.95,1.07,4.53.47.19.08.37.16.56.24.3.53.83.59,1.35.68.84.48,1.68.95,2.52,1.43.09.24.35.37.6.29.24.12.49.24.73.35.08.29.31.35.56.37,1.2,1.85,3.22,2.79,4.78,4.25.67.63,1.04,1.41,1.67,2.04,2,1.75,3.79,3.74,5.32,5.91.03.32.13.54.51.4.18.08.36.15.54.23.13,1.34.94,2.44,1.26,3.73.5,1.99,1.37,3.9,1.79,5.91.5,2.36,1.24,4.65,1.71,7,.46,2.3,2.2,4.27,1.6,6.86-.28,1.2.08,2.58-.32,3.71-.95,2.64-1.22,5.57-3.06,7.87-.16.2-.12.49.08.65,0,0,0,0,0,0-.14.33-.28.67-.42,1.01-.55.48-.95,1.1-1.15,1.79l-.32.49c-.65.67-1.16,1.46-1.49,2.34-.9,1.44-1.79,2.87-2.69,4.31-1.33,1.79-2.53,3.66-3.6,5.61-.4.4-.67.91-.78,1.46-.62,1.14-1.46,2.19-1.32,3.61-.02.27-.04.55-.05.83-.46.67-1.32,1.61-1.27,2.01.16,1.37-.92,2.16-1.1,3.31-.12.75-.72,1.45-.18,2.25h0c.01.2.07.53.03.55-1.43.46-.83,1.93-1.4,2.81-.28.33-.25.82.08,1.11.09.08.2.14.32.17.07.31.37.77-.02.92-1.72.63-1.41,2.33-1.54,3.49-.1.96.4,1.59-.64,2.66-1.07,1.11-1.05,3.28-.93,5.01.06.84-.32,1.96.73,2.64.24.15.16.67-.11.91-.6.53-.62-.51-1.1-.46-.17.92-.06,1.67.97,1.96.61.17.71.7.85,1.21-.77-.22-1.43-.72-1.84-1.4-.69,1.36-.21,3.02,1.1,3.8.41.25.64.72.59,1.2-.03,3.19.16,6.39.57,9.56.53,4.95,1.7,9.81,3.48,14.46,2.56,6.96,6.62,13.27,11.88,18.5,1.17,1.09,2.4,2.1,3.69,3.04,1.76,1.5,3.61,2.9,5.53,4.18,4.88,2.96,10.36,4.58,15.57,6.82,3.89,1.67,7.96,1.88,12.08,1.82M184.11,313.92s.04.09.05.13c-.02-.04-.04-.09-.05-.13M236.15,293.27c0-.21.02-.43.06-.64.02-.11.05-.23.09-.34-.04.11-.07.22-.09.34-.04.21-.06.43-.06.64M236.44,291.96c.05-.02.1-.03.16-.04.13-.02.27,0,.39.05-.12-.05-.26-.07-.39-.05-.05,0-.11.02-.16.04M343.16,313.52c-.21.08-.4.19-.58.32.18-.14.37-.25.58-.32M341.89,314.63c.12-.2.27-.39.43-.57-.17.17-.31.36-.43.57M257.55,287.9c.13.09.27.17.41.25-.14-.08-.27-.16-.41-.25M258.95,288.73c.92.48,1.67,1.22,2.15,2.13.37.46.74.92,1.11,1.38.29.13.57.3.83.49-.26-.19-.54-.36-.83-.49-.14.12-.31.21-.5.24.19-.04.36-.12.5-.24-.37-.46-.74-.93-1.11-1.38-.48-.91-1.24-1.66-2.15-2.13M261.31,292.31c.07.09.17.16.29.18-.11-.02-.22-.09-.29-.18M282.5,309.25h0l.12-.04-.12.04M276.02,304.82s-.02.04-.03.06c0-.02.02-.04.03-.06M274.09,180.48c-.05.18-.13.35-.24.5.1-.15.18-.32.24-.5M237.98,198.07h0s.1-.05.15-.06c-.05.02-.1.04-.15.06M238.78,196.82c.11.02.23-.02.3-.11-.07.09-.19.13-.3.11M81.52,220.55h0c-.06.02-.11.04-.17.05.06-.01.11-.03.17-.05M81.52,220.76h-.02s.02,0,.02,0M90.8,231.4c-.04.06-.08.12-.11.18.03-.06.07-.12.11-.18M181.8,272.14l.04.08c.08-.03.16-.06.24-.09-.08.03-.16.06-.24.09l-.04-.08M189.81,295.59c-.07.22-.14.43-.22.65.07-.22.14-.43.22-.65l-.13-.07c-.09-.05-.18-.1-.27-.14.09.04.18.09.27.14l.13.07c.18-1.66.09-3.34-.26-4.98.35,1.64.43,3.31.26,4.98M175.42,325.58h-.25.25M175.05,326.07s.05-.08.08-.11c-.03.03-.06.07-.08.11-.02.03-.03.07-.03.11,0-.04,0-.08.03-.11M175.04,326.23c.04.07.15.15.36.23v.03s0-.03,0-.03c-.22-.08-.33-.15-.36-.23"/>
        </g>
      </g>
    </g>
  </g>
  <g id="orange">
    <g id="Group_408" data-name="Group 408">
      <g class="cls-17">
        <g id="Group_407" data-name="Group 407">
          <path id="Path_2246" data-name="Path 2246" class="cls-10" d="M151.78,288.01c.05-1.97-.08-3.95-.41-5.9-.19-.75.15-1.54-.27-2.25.11-.84-.35-1.58-.39-2.39,0-.13-.01-.25-.01-.38-.01-.56-.09-1.11-.23-1.65.07-.14.02-.31-.12-.39-.03-.12-.05-.23-.07-.35.05-.33.16-.66-.11-.95-.14-.33-.26-.67-.34-1.02-.17-1.23-.5-2.44-.99-3.59.06-.21,0-.43-.15-.58-.07-.24-.14-.48-.22-.72,0-.6-.19-1.19-.55-1.68.05-.26-.02-.52-.18-.73-.26-.76-.29-1.64-1.06-2.15,0-.47-.09-.93-.27-1.36,0-.49-.25-.94-.65-1.22-.12-.55-.32-1.07-.61-1.56-.75-2.17-2.23-3.95-3.3-5.94,0-.23-.11-.45-.31-.57-.08-.29-.11-.61-.47-.71l-.16-.19c.03-.26-.12-.39-.35-.45-.02-.27-.16-.51-.37-.67,0-.22-.16-.4-.38-.42-.07-.47-.49-.7-.73-1.06-.88-1.54-2.02-2.92-3.35-4.08-.13-.24-.25-.47-.38-.71-.33-.44-.75-.79-1.24-1.03.05-.43-.2-.85-.6-1.01-.1-.26-.3-.47-.56-.58l-.35-.35c-.43-.63-1-1.16-1.66-1.55-.28-.82-1.1-1.07-1.64-1.61-.24-.3-.57-.52-.94-.63-.13-.13-.26-.25-.39-.38-1.1-1.06-2.27-2.03-3.52-2.91-.09-.2-.28-.33-.5-.35-.12-.39-.47-.47-.81-.57-.43-.68-1.25-.79-1.84-1.24-.08-.25-.32-.42-.58-.4-.27-.13-.55-.26-.82-.39-.1.01-.2.02-.29.01.1,0,.2,0,.29-.01-.15-.33-.49-.54-.85-.51l-.45-.22c-.24-.49-.73-.59-1.18-.72h0c-.42-.51-1.01-.86-1.66-.97-.23-.34-.62-.55-1.04-.54-.55-.56-1.22-.97-1.97-1.21-.66-.12-1.27-.39-1.8-.8-1.54-1.4-3.53-1.54-5.34-2.16-.52-.31-1.13-.46-1.74-.42l-.64-.21c-1.1-.63-2.33-1.01-3.6-1.12-.02-.03-.06-.03-.09,0,0,0,0,0-.01.01-.13-.35-.49-.55-.85-.49l-.34-.06c-.38-.29-.85-.4-1.32-.32l-.35-.04c-.08-.13-.24-.2-.39-.16-.33-.07-.67-.15-1-.22-.65-.66-1.6-.29-2.33-.66l-4.64-.48c-.27-.13-.57-.19-.88-.17-.75-.09-1.49-.19-2.24-.28-.94-.06-1.86-.48-2.8-.06l-.53.03-.94-.15c-.42-.07-.86-.06-1.28.02-.14.43-.47.42-.77.4.3.03.63.03.77-.4-.7-.05-1.41-.01-2.1.11-1.68-.02-3.36-.11-5.05-.18-.34-.04-.68.06-.94.29-.3.28.29.49.12.78-1.45-.3-2.05-.13-2.23.76-.1.5-.19.65-.69.44-.45-.19-.79.13-1.05.41-.27.31.21.44.27.67.13.46.49.94.23,1.39-.28.5-.86.75-1.42.62-.97-.15-1.94-.26-2.91-.39-.23-.03-.48-.13-.46-.37.1-.92-.68-.96-1.2-1.26-1.08-.2-2.2-.02-3.17.5-.65.07-1.37-.06-1.84.59l-.34.04c-.27-.04-.55-.1-.76.16h-1.64c0-.29-.18-.38-.42-.36-.62.05-1.12-.02-1.09-.84,0-.23-.22-.25-.42-.23-1,.08-1.97.36-2.86.82-.32.18-.66.32-1.01.42-1.49.41-2.96.93-4.46,1.3-.78.19-1.33.86-2.04.97-2.06.34-3.46,1.93-5.31,2.68-.81.33-1.57.76-2.26,1.3-.83.66-1.99,1.1-2.18,2.39,0,.36-.31.65-.67.64-.07,0-.13-.01-.2-.04-.55-.2-.82.08-1.21.36-.59.42-.85,1.32-1.5,1.43-1.05.17-1.35.81-1.57,1.65-.04.16-.1.25-.31.23-.67-.16-1.35.25-1.51.92-.02.06-.03.12-.03.19-.31,1.27-1.17,2.34-2.35,2.9-.09.08-.22.1-.33.06-.58-.21-.74-.08-.59.54.07.3.22.58,0,.87-.75.94-1.94,1.58-2.05,2.97,0,.05-.07.11-.12.14-.71.43-1.17,1.17-1.25,1.99-.02.29-.24.53-.53.56-.22,0-.42-.12-.52-.32-.42-.64-.7-.64-1.07.04-.43.78-.76,1.61-1.19,2.38-.25.34-.33.78-.21,1.18.2.64-.28,1.51-.7,1.53-.93.03-.99.24-.89,1.23.04.44.32,1.02-.16,1.44-.51.46-.75,1.15-.65,1.83-.56.4-1.13.79-1.68,1.21-.11.11-.19.25-.23.4-.92,2.33-1.67,4.73-2.25,7.17-.6,2.35-1.05,4.73-1.37,7.14-.48,3.22-.67,6.47-.83,9.72,0,3.41.23,6.82.68,10.2.39,3.81,1.16,7.57,2.28,11.23.08.67.23,1.32.45,1.96.94,1.73,1.1,3.81,2.34,5.37.39.64.67,1.33.86,2.05.38.9.9,1.75,1.35,2.62.13.24.26.3.57.29.46,0,1.16.08,1.09.69-.11.55.13,1.11.6,1.41.24.17.33.48.22.75-.32.87.22,1.54.45,2.28.12.37.45.51.67.13.12-.29.44-.43.73-.31,0,0,.02,0,.02.01.35.09.58.41.55.76-.03.57.34,1.09.88,1.25.84.37,1.22,1.35.85,2.2-.04.09-.09.17-.14.25-.24.33-.06.58.17.81.18.18.45.38.61.07.32-.64.48-.13.71.04,1.15.86,1.43,2.41,2.6,3.25.16.11.13.2.06.37-.31.79.18,1.09.84,1.25.34.08,1.03-.31.72.59-.05.13.14.14.27.14.48,0,1.04-.06,1.37.31.31.34.2.89.24,1.38.37-.14.83-.67.78.22.16.97.86,1.77,1.81,2.06.63.07,1.16.07,1.24.98.06.73,1.35-.12,1.45.86,0,.03.02.06.04.08.54.49.74,1.34,1.5,1.56.64.22,1.23.56,1.73,1.01.68.55,1.56.69,2.29,1.18s1.61.92,2.29,1.47c.93.71,1.92,1.35,2.95,1.9.86.39,1.74.73,2.64,1.01.25.12.54.15.81.09.04.03.08.05.13.04.06.1.1.26.19.3,1.17.65,2.42,1.17,3.71,1.54,1.23.22,2.26,1.08,3.55,1.12.48-.09.71.54,1.2.4.13.29.41.48.73.49,1.7.26,3.3.86,4.96,1.27,1.11.28,2.26.49,3.37.69,1.14.21,2.34.31,3.5.55.53.11,1-.07,1.53,0,1.21.32,2.46.48,3.72.47.48-.12.97-.18,1.46-.17,1.99.26,4,.29,6,.12.18-.04.36-.05.54-.05,2.4.33,4.78-.21,7.18-.09.31-.02.6-.16.82-.38h.36c.06,0,.13,0,.19,0,.69.12,1.35-.24,2.03-.18,1.12-.1,2.24-.26,3.34-.49.83-.29,1.69-.46,2.57-.53.97,0,1.93-.21,2.83-.6,1.71-.17,3.36-.67,4.88-1.48.63-.33,1.35-.06,1.94-.48.8-.44,1.67-.74,2.57-.91,1.29-.32,2.5-.9,3.55-1.71.32-.25.69-.4,1.09-.44,1.31-.22,2.11-1.33,3.25-1.85l.26-.04c.74-.14,1.15-.82,1.88-1.06,1.4-.45,2.64-1.28,3.59-2.4.57-.41,1.52-.22,1.77-1.13.26,0,.5-.16.6-.4l.71-.7c.51-.19,1.08-.28,1.33-.87.44-.02.85-.27,1.05-.66.24-.08.4-.3.42-.55.32-.27.64-.54.99-.79,1.44-1.01,2.67-2.28,3.62-3.76.21-.05.36-.23.38-.44l.16-.14c.25-.03.46-.19.54-.43.09-.11.18-.22.27-.32.68-.49,1.24-1.14,1.61-1.89.69-.96,1.79-1.6,2.23-2.77.32-.39.57-.83.73-1.31l.76-1.2c.21-.06.36-.24.37-.45.21-.36.41-.74.63-1.1.91-1.39,1.7-2.85,2.36-4.38.34-.22.54-.59.55-.99.39-.75.68-1.55.88-2.37.56-.66.54-1.56.92-2.29.22-.43.09-.97.4-1.39.73-1.5,1.28-3.09,1.63-4.73.04-.36.05-.72.04-1.09-.08-.96.65-1.76.53-2.72.67-.52.2-1.32.49-1.94.02-.36.04-.72.07-1.08.13-.08.19-.25.14-.39l.04-.35s-.03-.02-.05-.03c.01.01.03.02.05.03.29-1.37.46-2.77.5-4.17-.12-1.97.29-3.88.18-5.86M14.21,296.92c0-.16-.11-.29-.26-.31.16.01.27.15.26.31M18.05,252.53h0s.05.03.08.04c-.03-.01-.06-.03-.08-.04M19.4,252.57c.06.03.11.08.14.14-.03-.06-.08-.11-.14-.14M20.72,273h0c.09,0,.17-.04.24-.1-.07.06-.15.09-.24.1M21.05,257.7c.12-.15.05-.37.07-.55.04-.51-.25-.98-.71-1.19.46.2.75.68.71,1.18-.02.18.05.4-.07.55M121.96,244.93c-.18-.22-.38-.42-.6-.6.22.18.42.38.6.6M70.56,225.94c.07,0,.15-.02.2-.07-.05.05-.13.08-.2.07-.1,0-.18-.1-.17-.21,0,0,0-.01,0-.02-.02.1.05.2.15.22,0,0,.01,0,.02,0M55.42,230.5c.12-.03.24.04.27.16,0,0,0,0,0,.01-.02-.12-.14-.2-.26-.17,0,0,0,0-.01,0M46.81,231.64h0c-.02.05-.04.1-.07.15.02-.05.04-.1.07-.15M46.35,245.37c-.34-.59-1.01-.9-1.67-.78.67-.12,1.34.19,1.67.78M37.94,255.35c-.23-.08-.48-.1-.72-.05.24-.05.49-.03.72.05M29.64,254.7h0c0-.05-.02-.1-.03-.15.01.05.02.1.03.15M35.19,308.54c-.01-.17.13-.28.3-.34-.18.06-.32.17-.3.34M38.6,313.82c-.11.61.06,1.23.47,1.69-.4-.47-.57-1.09-.47-1.69M52.11,330.6s.04-.08.06-.12c-.02.04-.04.08-.06.12M52.41,332.26h0c.08-.01.16-.03.24-.05-.08.02-.16.04-.24.05M70.48,344.8c-.03.1-.05.21-.05.31,0-.11.02-.21.05-.31.05-.11.07-.24.03-.36.04.12.02.25-.03.36M127.68,298.29c-.63,3.31-1.6,6.54-2.91,9.65-.35.95-1.43,1.7-.81,2.98.14.45,0,.94-.37,1.24-.6.35-.22,1.38-1.11,1.46-.03.08-.05.17-.04.25.06.9-.31,1.77-.99,2.36-.31.25-.57.56-.75.92-.19.51-.49.73-.88.15-.15-.22-.32-.22-.43-.04-.38.6-1.04,1.1-.77,1.96.11.43-.04.89-.39,1.16-.82.77-1.57,1.62-2.24,2.53-.21.32-.57.86-1.04.75-.4-.11-.82.1-.98.48-.41.54-.87,1.04-1.37,1.49-.45.41-.89.85-1.29,1.31-.62.79-1.08,1.76-2.29,1.8-.18,0-.36.06-.52.15-2.04,1.23-3.91,2.71-5.86,4.07-1.35.94-2.79,1.74-4.3,2.38-2.46,1-4.98,1.86-7.54,2.57-.6.26-1.23.47-1.87.62-1.56.15-3.12.29-4.67.43h-.35c-.48.36-1.06.54-1.66.53.6.01,1.18-.17,1.66-.53-1.12-.17-2.22.24-3.34.16-.35-.09-.67.11-1.01.14-.08-.24-.32-.39-.57-.35-1.71.1-3.36-.57-5.07-.37-.09,0-.18-.01-.27-.02-.43-.73-1.14-.5-1.77-.52-.09,0-.18-.02-.27-.03h0c-.54-.87-1.41-.41-2.13-.52l-.06-.03h-.06c-.6-.63-1.37-1.08-2.22-1.29-1.22-.33-2.6-.3-3.62-1.12-1.04-.73-2.22-1.23-3.47-1.46-.12-.29-.38-.5-.68-.56h0c-.06-.23-.18-.37-.45-.33-.54-.09-1.04-.36-1.4-.78h0c-.01-.21-.19-.36-.4-.35-.02,0-.03,0-.05,0-2.01-1.27-3.94-2.67-5.75-4.21-1.6-1.28-3.13-2.64-4.58-4.09-1.06-1.05-1.98-2.24-2.97-3.37-.2-.37-.52-.66-.9-.83-1.46-1.78-2.78-3.67-4.08-5.56h0c-.17-.39-.23-.85-.7-1.05-.09-.58-.75-.84-.81-1.44-.08,0-.14,0-.21,0,.06,0,.13,0,.21,0-.13-.55-.44-1.05-.89-1.4-.14-.52-.38-1-.72-1.42-.46-.92-.88-1.85-1.28-2.8-.23-.57-.22-1.36-.9-1.71-.03-.15-.05-.3-.08-.45.02-.15-.05-.3-.18-.38,0-.4-.12-.78-.33-1.12-.05-.39-.19-.77-.4-1.11-.03-.11-.06-.23-.08-.34-.21-.05-.34-.12-.26-.25-.08.13.06.2.26.25.07-.14.02-.31-.11-.4,0-.51-.52-.8-.54-1.3-.12.12-.26.22-.41.3.15-.08.29-.18.41-.3,0-.46-.12-.91-.37-1.3-.14-.54-.28-1.09-.42-1.64.04-.26.06-.51-.26-.61-.1-.66-.19-1.32-.29-1.98-.3,0-.59-.07-.85-.22.26.15.55.22.85.22-.01-.49-.07-.97-.17-1.44-.35-1.11-.26-2.28-.54-3.39-.03-.54-.06-1.09-.09-1.64-.41-.18-.51-.23-.35-.7-.16.47-.06.51.35.7.16-.44.13-.92-.09-1.33,0-.18,0-.36-.01-.54,0-1.05,0-2.1,0-3.14v-.56c.19-.72.25-1.48.18-2.22-.19-1.08.47-2.07.34-3.14-.12,0-.23-.06-.31-.15.08.09.19.14.31.14.28-.84.46-1.72.54-2.6.14-.34.23-.71.25-1.08h0c.13-.08.2-.24.16-.39.14-.91.33-1.81.58-2.7.8-.71.83-1.73,1.08-2.67.03-.04.04-.09.03-.13.24-.1.39-.34.38-.6,0-.15.02-.3.03-.45h0c.69-.87,1.13-1.91,1.27-3.01l.02-.02c.42-.07.45-.45.58-.75l.88-1.88c.13-.17.27-.35.4-.53h-.05s.05,0,.05,0c.17-.15.25-.37.2-.59.02-.04.03-.08.04-.12.04-.05.08-.11.11-.16-.03-.08-.06-.15-.08-.21.02.07.05.14.08.21.62-.38,1.04-1.01,1.15-1.73.28-.17.59-.32.55-.73.24-.37.47-.74.72-1.11.53-.27.7-.87,1.1-1.26.49-.3.58-.85.81-1.31.34.04.66-.2.7-.55,0-.04,0-.09,0-.13.76-1.34,2.2-2.08,2.97-3.41l.16-.15c.32-.19.57-.47.73-.8.43-.28.81-.62,1.14-1.01h0c.46-.24.96-.43,1.12-1,.37-.29.84-.48.92-1.02h0c.51-.1.96-.4,1.25-.84.46-.29.86-.65,1.2-1.07.18.05.38-.03.47-.19.78-.68,1.91-.88,2.48-1.83.8-.32,1.57-.72,2.3-1.18.72-.21,1.41-.53,2.04-.94,1.12-.69,2.31-1.23,3.57-1.62.17-.06.41-.03.52-.14,1.29-1.32,3.2-1.45,4.67-2.43.24-.14.46-.29.67-.47.3-.3.73-.52.59-1.06s-.64-.37-1.04-.46c.07-.47.54-.66.6-1.12.04-.28.38-.42.58-.01.16.26.28.54.37.83.08.55.59.94,1.14.86.03,0,.05,0,.08-.01.36-.09.73,0,1,.26.73.81,1.72.61,2.62.76h.75c1.74-.26,3.44.29,5.17.21.39.22.84.3,1.28.23,1.97.22,3.91.69,5.77,1.4.4.17.84.24,1.27.23.26.26.6.15.9.22.14.19.36.17.56.19,1.57.43,3.08,1.07,4.47,1.91.91.42,1.82.82,2.7,1.29.85.38,1.68.81,2.48,1.29.92.54,1.82,1.14,2.68,1.78,1.48,1.28,3.22,2.27,4.78,3.47.5.49,1.17.76,1.87.75.92-.06,1.25.43,1.11,1.37-.06.38.27.52.49.72.08.08.21.07.28,0,.01-.01.02-.02.03-.04.4-.5.78-.52,1.04.03.5.76,1.06,1.49,1.68,2.16.39.56,1.01,1.1,1.08,1.77.05.51.3.74.6.74,1.62.01,1.54,1.5,2.32,2.34-.51.12-.48-.43-.82-.34.18.89.23.94,1.05.92.15,0,.3.04.42.12.78.52,1.39,1.26,1.73,2.13.1.21.1.46.34.61.56.57.85,1.36.78,2.16-.24,1.03.39,1.71,1.03,2.38.57.6.39-.2.59-.3.11-.06.25-.02.31.1,0,0,0,0,0,0,.19.24.34.51.43.8.09.87.8,1.65.37,2.6-.05.15-.03.31.05.44.95,1.93,1.78,3.91,2.48,5.94.94,2.4,1.66,4.88,2.15,7.41.33,1.78.55,3.58.67,5.39.24,2.76.19,5.54-.13,8.29-.15,1.53-.58,3.02-.8,4.53M128.69,295.08c.17-1.11.24-2.23.21-3.35.03,1.12-.04,2.24-.21,3.35,0,.24-.02.53.21.63-.23-.11-.2-.39-.21-.63M130.61,252.11c.02-.07.07-.12.14-.13-.07,0-.13.06-.14.13M131.83,271.57c-.13-.02-.27-.06-.39-.11.13.04.26.07.39.08v.02Z"/>
          <path id="Path_2247" data-name="Path 2247" class="cls-10" d="M114.17,277.45c0-.49-.09-.97-.29-1.41-.56-1.35-.99-2.76-1.47-4.14-.33-.97-.44-2.04-1.32-2.74-.48-.48-.46-1.28-1.06-1.69-.02-.21-.17-.39-.37-.45-.19-.41-.37-.81-.56-1.22-.03-.21-.12-.38-.36-.4h0c-.71-1.24-1.62-2.36-2.7-3.3-1.79-1.76-3.89-3.18-6.19-4.17-.14-.47-.59-.46-.95-.58-.72-.64-1.61-1.07-2.57-1.22-.08-.13-.23-.21-.39-.2-.9-.19-1.66-.79-2.58-.93-1.13-.73-2.4-1.22-3.72-1.44-.63-.17-1.25-.33-1.88-.5l-.54-.04c-.14-.17-.37-.23-.58-.14-.12-.01-.24-.03-.36-.04-.99-.02-1.99-.53-2.98-.02-.31,0-.58-.27-.91-.17-.44-.34-.87-.01-1.3.02l-.55.02c-.56-.12-1.15-.07-1.69.14-.37,0-.73.02-1.09.03-.03.29-.13.44-.32.48.19-.03.29-.19.32-.48-.96-.25-1.98.02-2.93-.34-.24-.09-.42.03-.41.33,0,.16.22.37-.04.48s-.39-.12-.49-.31c-.27-.39-.75-.59-1.22-.5-1.92.05-3.8.59-5.47,1.55-.64.5-.99,1.29-.94,2.1.04.77-.4,1.49-1.1,1.81-.85.33-1.83.25-2.69.63-.61.27-.92-.04-1.34-.43-.33-.3,0-.99-.53-.96-.38.02-.72.44-1.1.61-.22.1-.41.27-.53.48-.13.2-.34.36-.43-.02-.16-.66-.49-.41-.79-.17-.45.36-.9.74-1.32,1.14-.66.63-1.29,1.5-2.12,1.67-.94.26-1.74.88-2.22,1.73-.51.67-1.77,1.12-1.22,2.39.05.1-.2.37-.36.5-.35.35-.75.63-1.2.84-.22.07-.49.2-.3.43.35.42.04.72-.14.98-1.29,2.18-2.34,4.5-3.13,6.91-.08.19-.12.47.07.61.24.17.43-.05.52-.22.29-.59,1.16-.76,1.15-1.58.02-.17.18-.29.35-.27.03,0,.05.01.08.02.3.11.17.33.1.54-.11.32-.47.54-.43.9.14,1.16-.65,2.06-.92,3.1s-.29,2.12-.56,3.15c-.06.66-.06,1.33-.01,1.99-.04.4,0,.88-.42,1.15-.17.09-.38.04-.5-.12-.34-.4-.16-.88-.16-1.33,0-.06.03-.12.08-.16.73-.6.24-.89-.27-1.24-.65-.45-.93-.34-1.16.4-.21.97-.27,1.97-.17,2.96,0,2.79.21,5.59.65,8.35.06.68.35,1.32.83,1.81.32.3.46.75.35,1.18-.08.51.07,1.03.41,1.41.74.86,1.42,1.77,2.02,2.74.33.4,1.13.93.52,1.75-.11.15.14.19.28.24.5.2,1.45,2.06,1.14,2.37-.69.69,0,.83.31,1.15,0,.39.16.69.59.65.84-.2,1.68.31,1.88,1.15.06.23.06.47,0,.71.02.66.49,1.21,1.14,1.34.97-.12,1.89.45,2.2,1.38.18.33.46.58.81.72.94.41,1.85.88,2.73,1.41,1.12.96,2.47,1.63,3.91,1.94,1.6.23,2.96,1.23,4.5,1.74.53.25,1.12.34,1.71.27,1.02-.19,2.07-.14,3.07.16,1.02.3,2.09.38,3.14.25,1.83-.19,3.67-.24,5.5-.14,2.15.22,4.32.1,6.44-.33,1.43-.38,3.04.03,4.31-1.03.14-.07.3-.09.45-.06,1.19.08,2.06-.71,3.02-1.19.89-.45,1.5-1.42,2.71-1.28.34-.03.66-.18.9-.43,1.69-1.47,3.67-2.54,5.35-4.05,1.56-1.21,2.98-2.6,4.22-4.15,1.09-1.62,2.08-3.3,2.96-5.04.67-1.38,1.19-2.82,1.55-4.31.4-.89.7-1.82.89-2.78.06-1.64.62-3.19.71-4.81.19-1.74.23-3.49.11-5.23-.34-1.65-.55-3.33-.63-5.01M57.26,269.88h-.73c.25,0,.49,0,.73,0,.09,0,.18,0,.27,0-.09,0-.18,0-.27,0M63.8,274.19s-.03-.08-.04-.12c.02.04.03.08.04.12M66.46,304.13c-.07,0-.14.02-.21.04.07-.02.15-.04.22-.04h-.01ZM66.46,304.13h0c0-.08,0-.15.01-.23,0,.08-.01.15-.01.23M74.36,303.18c.06-.05.12-.08.15-.14-.03.06-.09.1-.15.14M91.52,287.57c.12.66-.03,1.34-.42,1.88-.35.42-.58.93-.66,1.47.1.74-.2,1.4-.12,2.09-.12.36-.23.71-.34,1.07-.81.23-1.37.98-1.35,1.83.03.33.07.75-.34.69-1.17-.17-1.36.83-1.58,1.47-.13.68-.73,1.18-1.43,1.19-.89-.03-1.73.44-2.16,1.22-.37.72-1.09,1.19-1.9,1.25-.21.03-.42.11-.6.24-1.49,1.05-2.93.36-4.33-.16-1.87-.7-3.12-2.27-4.37-3.69-1.66-1.85-2.99-3.97-3.91-6.28-.12-.29-.17-.74-.61-.85h0c-.13-.04-.24-.12-.32-.22.08.1.2.18.32.21-.07-.39-.09-.8-.5-1.02-.03-.15-.06-.3-.1-.45-.23.02-.35-.32-.55-.36.2.04.32.38.55.36,0-.65-.3-1.23-.33-1.89-.1-1.99-.57-3.96-.31-5.96.05-.77-.05-1.54-.3-2.26-.24-.85,1.35-.86.55-1.69.13-.07.27-.21.39-.19.56.1.84-.26,1.13-.63.72-1.05,1.36-2.15,1.93-3.29,1.05-1.19,2.08-2.39,3.16-3.55.63-.69,1.62-1.06,1.85-2.1-.22-.3-.26-.36-.69-.29.43-.07.47-.01.69.29.15-.1.32-.19.46-.3.83-.73,1.96-1.02,3.04-.79.97.21,1.83.66,2.75.93,1.24.36,1.91,1.55,3.12,1.89.02,0,.03.05.05.08.56.81,1.21,1.55,1.96,2.19.14.2.38.32.63.31.67.04,1.17.62,1.13,1.28,0,.07-.01.13-.03.19-.25.58.1.69.45.68.26,0,.47-.03.65.18.86.81,1.35,1.92,1.36,3.1-.04.88.15,1.75.54,2.54.35,1.23.57,2.49.64,3.76.17,1.2-.23,2.39-.09,3.58M101.93,280.76c-.05-.02-.1-.04-.15-.07.05.02.1.04.15.07M104.05,283.03h0c.05.07.09.14.14.21-.04-.07-.09-.14-.14-.21M105.53,273.22c.08,0,.16,0,.23,0-.07,0-.15,0-.22,0h0ZM105.66,273.35c.17.19.3.42.38.67-.08-.25-.21-.47-.38-.67"/>
        </g>
      </g>
    </g>
  </g>
  <g id="yellow">
    <g id="Group_406" data-name="Group 406">
      <g class="cls-16">
        <g id="Group_405" data-name="Group 405">
          <path id="Path_2245" data-name="Path 2245" class="cls-5" d="M347.83,301.04c-.55-2.26-1.46-4.42-2.7-6.39-.77-.95-1.43-1.97-1.98-3.06-1.48-3.17-3.85-5.84-6.84-7.66-2.39-1.6-5.34-1.99-7.98-3.04-.47-.26-1.05-.24-1.51.05l-.6.03c-1.5-.33-2.92.19-4.34.48-5.24.89-9.58,4.54-11.37,9.54-2.13,5.45-2.22,11.14-2.05,16.84.27,8.88-1.05,17.48-5.47,25.39-2.03,3.63-5.19,6.05-9.73,5.93-2.72-.2-5.34-1.1-7.61-2.62-2.85-1.84-5.51-3.96-7.93-6.33-.18-.22-.35-.44-.53-.66-2-2.6-3.69-5.42-5.03-8.4-1.11-2.21-2.08-4.48-3.11-6.72-.07-.18-.13-.36-.2-.54.01-.09.06-.19.04-.27-2.27-7.31-4.17-14.75-7.2-21.82-1.22-2.85-1.83-5.96-3.67-8.56-.06-.17-.12-.35-.18-.52-.45-1.61-.87-3.23-1.37-4.83-.78-2.48-1.28-5.06-2.71-7.32-1.23-1.93-2.43-3.89-3.53-5.9-3.03-5.52-6.48-10.72-11.58-14.68-.89-.69-1.51-1.67-2.61-2.11l-.79-.64c-.08-.43-.45-.59-.76-.78-5.28-3.14-11.2-5.07-17.32-5.66-5.21-.64-10.19.71-14.89,2.85-6.38,2.91-10.93,8.04-15.42,13.07-3.59,4.03-5.4,9.08-7.19,14.06-1.2,3.35-2.45,6.67-3.47,10.08-.93,2.55-1.41,5.24-1.39,7.96.07,1.63-.01,3.27-.24,4.89-.36,3-.26,6.04.28,9.01l.05.42c-.5.84-.06,1.64.13,2.43.74,2.67,1.93,5.2,3.54,7.47,3.17,4.86,6.69,9.07,13.33,9.95,5.25.69,11.09-1.76,13.59-6.32,1.98-3.36,3.5-6.98,4.53-10.74.85-3.47,1.8-6.89,1.85-10.47.06-1.88.44-3.73,1.11-5.49.93-2.62,2.99-3.25,5.34-1.76.51.34.99.73,1.42,1.16,4,3.83,5.09,8.93,5.75,13.99.57,4.38,1.3,8.76,1.55,13.2.23,4.04,2.55,7.61,2.8,11.68.17,2.7,2.09,4.75,3.12,7.13,2.07,4.71,4.45,9.28,7.14,13.66,1.84,3.04,3.48,6.29,5.95,8.84,2.82,2.91,5.55,5.91,8.53,8.69,2.95,2.74,6.46,4.91,8.96,8.12.17.17.37.29.59.37,2.06.91,4.21,1.67,6.17,2.76,6.68,3.7,13.97,4.53,21.39,3.8,8.95-.72,17.63-3.41,25.41-7.9,2.91-1.73,5.88-3.35,8.64-5.32,2.16-1.55,4.2-3.25,6.23-4.95,1.33-.99,2.51-2.17,3.5-3.49,1.91-2.9,4.24-5.56,5.6-8.79.11-.26.27-.5.48-.7,1.99-1.77,2.91-4.2,3.84-6.51.81-2.32,1.4-4.7,1.76-7.13.45-2.28,1.53-4.4,1.76-6.73.35-3.49.42-7,.97-10.47,1.01-6.37-.2-12.54-2.05-18.56"/>
        </g>
      </g>
    </g>
  </g>
  <g id="darkorange">
    <g id="Group_402" data-name="Group 402">
      <g class="cls-15">
        <g id="Group_401" data-name="Group 401">
          <path id="Path_2243" data-name="Path 2243" class="cls-4" d="M194.69,387.35c1.28-4,2.31-8.07,3.1-12.2.28-1.22.46-2.46.53-3.71.1-3.33-.41-6.61-.6-9.92-.08-1.37-.43-2.71-.62-4.07-.33-2.42-.49-4.87-.98-7.25-.53-2.43-1.19-4.82-1.98-7.18-1.02-3.17-2.17-6.29-3.26-9.42-.62-1.77-2.01-3.05-2.85-4.68-.71-1.3-1.51-2.56-2.38-3.76-1.12-1.45-2.16-2.96-3.11-4.52-.6-1.28-1.47-2.41-2.54-3.33-1.83-1.31-3.47-2.93-5.57-3.85-1.13-.5-1.67-1.66-2.69-2.25-1.72-1-3.32-2.17-4.79-3.51-.32-.27-.68-.49-1.07-.65-2.66-1.33-5.3-2.69-7.94-4.04-2.71-1.39-5.18-3.27-8.17-4.07-1.23-.27-2.44-.64-3.61-1.12-3.57-1.66-7.16-3.16-11.21-3.42-2.79-.18-5.56-.88-8.36-.78-5.44.18-10.92-.05-16.25,1.44-1.14.32-2.3.57-3.42.9-.25.08-.51.16-.76.24-.16.06-.33.12-.5.18-.14.05-.27.11-.41.17s-.27.12-.4.18c-.41.19-.8.41-1.17.66h-.01c-.2-.12-.45-.13-.66-.05-2.25.52-4.46,1.21-6.61,2.08-1.54.62-2.74,1.77-4.15,2.55-2.13,1.18-4.19,2.49-6.31,3.68-2.29,1.38-4.46,2.96-6.48,4.71-3.22,2.59-6.3,5.34-9.21,8.27-2.36,2.24-4.57,4.63-6.59,7.18-2.95,3.9-5.58,8.03-7.87,12.35-2.19,4.06-4.07,8.28-5.62,12.63-1,2.98-1.62,6.06-2.5,9.06-.34,1.6-.48,3.24-.43,4.88-.29,3.24-.34,6.49-.17,9.74.37,4.13,1.55,8.15,3.47,11.83.44,1.02,1.05,1.95,1.8,2.76,1.23,1.13,2.3,2.4,3.62,3.47,2.67,2.16,5.35,4.18,8.72,5.1.67.15,1.32.41,1.92.75,1.08.65,2.34.97,3.6.92,1.22-.04,2.44.19,3.57.66.32.12.66.19,1,.22,2.48.18,4.97-.11,7.34-.83,4.44-1.17,8.68-3.02,12.55-5.48,2.22-1.31,4.2-2.97,5.88-4.93,2.64-3.23,4.7-6.9,6.09-10.84.51-1.35.9-2.77,1.51-4.05,1.21-2.68,2.27-5.42,3.19-8.22.89-2.58,1.91-5.12,2.78-7.72.9-2.26,1.97-4.46,3.2-6.56.78-1.52,1.62-3.01,2.43-4.51.91-.99,1.9-1.89,2.98-2.69.38-.25.79-.46,1.22-.62,1.3-.49,2.7-.55,4.02-.98.5.21,1.01.39,1.53.57.64.22,1.29.43,1.93.67.9.31,1.77.72,2.58,1.21.11.04.24.05.34.1.03.01.06.03.09.06,2.73,2.4,4.67,5.24,4.94,9.01-.39.21-.29.61-.3.92-.06,1.48-.46,2.9-.62,4.36-.41,2.26-1,4.48-1.77,6.64-.56,2.23-1.3,4.41-2.22,6.52-1.66,3.45-2.85,7.15-5.15,10.29-.9,1.22-1.1,2.78-1.84,4.08-1.32,2.18-2.36,4.52-3.1,6.96-.79,2.9-1.57,5.86-.92,9.01.52,2.53.54,5.16,1.09,7.71.25,1.44.61,2.85,1.08,4.23.65,1.65,1.24,3.46,2.78,4.76,1.07.9,1.54,2.4,2.42,3.56,1.7,2.29,3.82,4.24,6.26,5.72,1.93,1.04,3.99,1.8,6.12,2.28,1.74.42,3.43,1,5.06,1.74.98.4,2.03.59,3.09.55,2.88.12,5.6-.63,8.39-1.02,2.23-.22,4.42-.81,6.45-1.75,1.59-.81,2.74-2.18,4.28-3.05.73-.29,1.43-.65,2.09-1.07,1.51-1.26,2.64-2.86,4.05-4.22,2.67-2.59,4.56-5.83,6.83-8.75,2.86-3.69,4.44-8.03,6.16-12.26,1.89-4.65,3.54-9.41,5.11-14.19"/>
        </g>
      </g>
    </g>
  </g>
  <g id="green">
    <g id="Group_420" data-name="Group 420">
      <g class="cls-21">
        <g id="Group_419" data-name="Group 419">
          <path id="Path_2253" data-name="Path 2253" class="cls-3" d="M384.78,177.83c-.05-.9,0-1.81.13-2.71.14-1.48.12-2.96-.03-4.43-.01-1.45-.7-2.78-.87-4.22-.1-.9.19-1.75.04-2.63-.32-1.96-1.5-3.49-2.44-5.16-.57-1.21-1.43-2.25-2.51-3.03-.25-.11-.48-.27-.66-.47-.83-1.15-1.73-2.26-2.6-3.39.02-.11-.04-.23-.15-.27,0-.26-.31-.25-.37-.46l-2.04-3.16-.05-.05c0-.06-.03-.12-.08-.15,0-.04-.02-.07-.05-.09,0-.05-.04-.1-.08-.14,0-.04-.02-.08-.05-.1-.01-.05-.04-.09-.07-.13,0-.04-.02-.09-.06-.11-.01-.05-.04-.09-.07-.12v-.08c0-.38-.24-.49-.56-.53h-.03c-.29-.62-.69-1.17-1.18-1.64h-.02c.03-.09,0-.18-.08-.21-.01,0-.03,0-.04-.01h0c.03-.27-.16-.51-.41-.54l-.04-.03c-.04-.06-.09-.11-.13-.18h0c.03-.1,0-.19-.09-.22-.01,0-.02,0-.03,0h0c-.55-.82-1.24-1.54-2.03-2.13h-.06c0-.16-.14-.29-.3-.28,0,0,0,0,0,0h-.02c-.03-.21-.23-.37-.45-.36h-.01c-.08-.32-.35-.55-.68-.58h-.07.07c-.06-.53-.39-.98-.87-1.18h-.01c-.01-.23-.15-.32-.36-.33l-.05.03c.02-.15-.09-.28-.24-.3-.01,0-.03,0-.04,0l-.03.02c0-.15-.11-.27-.25-.28,0,0-.01,0-.02,0-.08-.18-.27-.29-.46-.28-.77-.99-1.76-1.78-2.52-2.8-.55-.73-.93-1.68-1.81-2.15h-.04c-.07-.39-.35-.51-.68-.58h-.03c.02-.11-.05-.21-.16-.24-.02,0-.03,0-.05,0h-.04c0-.15-.13-.28-.29-.28h-.03c-.04-.22-.25-.37-.48-.33,0,.12.06.23.15.29-.09-.07-.15-.18-.15-.29-.06-.02-.13-.03-.19-.05-.06,0-.13,0-.18-.03.06.03.12.04.18.03,0-.16-.12-.28-.28-.29,0,0,0,0-.01,0l-.03.02c0-.16-.13-.29-.29-.29,0,0,0,0,0,0h-.03c.01-.13-.1-.26-.24-.28-.02,0-.03,0-.05,0h-.03c-.03-.22-.23-.37-.46-.35v.05s-.01-.05-.01-.05c-.27-.54-.74-.95-1.31-1.13h-.03c.02-.11-.05-.21-.16-.23-.02,0-.04,0-.07,0h-.03c-.6-.81-1.31-1.52-2.12-2.12l-.2-.08c0-.13-.09-.23-.21-.24,0,0,0,0,0,0h.01c.03-.08-.01-.17-.09-.2-.01,0-.02,0-.03,0h0c.03-.1,0-.19-.09-.22-.01,0-.02,0-.04,0h0c.03-.1-.01-.19-.09-.22-.02,0-.03,0-.05-.01h0c.02-.16-.06-.24-.22-.26-.06-.04-.11-.07-.17-.11-.17-.45-.59-.52-.97-.64l-.04.02c0-.13-.09-.23-.21-.24,0,0,0,0,0,0h.02c.02-.34-.19-.49-.47-.57,0-.05-.04-.1-.09-.11,0-.21-.16-.39-.37-.4-.02,0-.03,0-.05,0l-.03.03c.01-.15-.09-.28-.24-.29-.02,0-.04,0-.05,0l-.06.06.05-.07c-.25-.52-.71-.91-1.26-1.09h-.03c.01-.14-.1-.28-.26-.29,0,0-.02,0-.02,0l-.07.05.07-.06c-.39-.61-.9-1.14-1.49-1.56h-.03c-.1-.54-.55-.68-.94-.9l-.07-.05c-.01-.06-.04-.1-.09-.13v-.05c-.09-.54-.51-.71-.96-.84h-.02c-.04-.07-.08-.13-.12-.19v-.03c-.06-.07-.09-.13-.13-.2v-.02c0-.11-.06-.23-.18-.25-.02,0-.04,0-.05,0h-.03c0-.15-.12-.28-.28-.29,0,0,0,0-.01,0h-.02c-.4-.66-1.26-.86-1.57-1.63-.19-.43-.6-.73-1.07-.79h-.03c-.11-.48-.26-.93-.8-1.09l-.03-.02c-.44-.91-1.12-1.7-1.96-2.26h-.01c-.77-1.09-1.68-2.06-2.71-2.89l-.02-.02c-.02-.33-.23-.48-.54-.51h-.03c-.04-.3-.28-.52-.58-.55l-.04-.02c-.05-.39-.34-.7-.73-.76-.32-.58-.78-1.07-1.34-1.42,0-.47-.39-.67-.67-.9-.57-.47-1.07-1.01-1.5-1.61-1.4-1.95-3.02-3.74-4.84-5.32h0c-.55-.84-1.19-1.62-1.91-2.32-1-1.17-2.06-2.31-3.12-3.41-1.37-1.42-2.63-2.92-3.91-4.4-1.55-1.78-2.97-3.68-4.36-5.58-1.5-2.06-3.65-3.32-5.38-5.08-1.21-1.16-2.51-2.24-3.87-3.23-1.2-.92-2.25-1.72-3.82-1.5-.22-.02-.42-.09-.6-.22-1.11-.57-2.29-1.02-3.43-1.52-1.26-.56-2.42.45-3.64.69-.34.16-.72-.17-1.05.09-.27-.27-.61.07-.89-.11-.75-.46-1.23-.13-1.61.53-.14.29-.46.45-.78.38-1.48-.1-2.94.31-4.15,1.17-1.46.99-2.75,2.2-3.84,3.59-1.5,1.6-2.51,3.6-2.9,5.76,0,.9-.2,1.79-.58,2.6-.39.53-.61,1.17-.63,1.83-.05,2.72-.54,5.42-.02,8.18.48,2.56.65,5.18,1.23,7.72.29,1.28.6,2.55.93,3.81.32,1.23.82,2.43.46,3.74-.06.22-.05.45.02.67-.26-.15-.65-.2-.81-.46-.62-.94-1.33-1.81-2.13-2.61-.9-1.19-1.87-2.33-2.9-3.41-1.2-1.25-2.31-2.6-3.3-4.02-1.06-1.4-2.21-2.73-3.44-3.99-.73-.71-1.36-1.51-1.89-2.38-1.06-1.71-2.35-3.21-3.55-4.79-.38-.49-.83-.55-1.23,0-.11.16-.21.31-.43.32-.01-.24-.13-.45-.33-.58.06-.53.39-1.03.14-1.59.26-.83-.23-1.36-.75-1.87-.29-.28-.73-.49-.88-.82-1.18-2.61-3.13-4.73-4.51-7.24-1.66-3.04-3.35-6.08-5.3-8.96-1.76-2.62-3.78-5.06-6.04-7.28-4.11-4.17-9.63-6.65-15.48-6.93-2.15-.25-4.33-.1-6.43.44-3.74,1.24-6.95,3.73-9.08,7.05-2.23,3.12-2.83,7.11-1.64,10.76,1.12,3.65,2.76,7.11,4.87,10.29-.07.1-.04.24.05.31v.06c.03.99.84,1.62,1.2,2.47.62,1.32,1.36,2.6,2.19,3.8.83,1.3,1.95,2.34,2.84,3.58.31.61.7,1.18,1.18,1.68.22.17.45.43.74.21.76-.58.83.15,1.2.56-.99,0-.86.54-.55.99,1.01,1.45,1.83,3.01,2.86,4.45,1.08,1.5,2.45,2.73,3.56,4.19,1.01,1.32,2.48,2.16,3.38,3.56.02.04.11.03.17.05l.08-.04s-.05.03-.08.05c-.05.18.05.36.23.42.02,0,.05.01.07.01.07.63.45,1.19,1.02,1.47h.03c.51,1.18,1.22,2.25,2.09,3.18.64.71,1.62,1.29,1.89,2.11.41,1,1.06,1.89,1.9,2.57.57.57,1.06,1.22,1.45,1.92.67.96,1.46,1.82,2.35,2.57h.03c.99,1.91,2.73,3.21,3.99,4.91.92,1.25,2.14,2.27,3.15,3.49,1.24,1.51,2.57,2.98,3.72,4.54,1.07,1.45,2.37,2.67,3.5,4.06,1.53,1.88,3.12,3.76,4.83,5.52,1.2,1.14,2.24,2.42,3.12,3.82.44.76,1.34.98,1.79,1.75,1.29,1.89,2.74,3.68,4.32,5.34.33.45.72.84,1.17,1.17.9.6,1.42,1.74,2.66,1.89.04,0,.09.09.11.15.21.85,1.65.84,1.4,2.01.06.05.14.09.23.1.72.13,1.4.47,1.93.98,2.25,1.62,4.72,2.9,7.34,3.8.21.07.39.22.49.42.69,1.04,1.86,1.64,3.11,1.6,2.42.23,4.85.22,7.27-.03.71-.11,1.37-.41,1.93-.85.52-.27.72-.92.44-1.43,0,0,0-.02-.01-.03-.02-.03.08-.17.15-.21,1.42-.92,2.73-2.07,4.47-2.36.63,0,1.14-.52,1.14-1.16,0-.04,0-.09,0-.13.03-.92.5-1.77,1.26-2.3,1.36-.75,1.29-2.21,2.06-3.22.05-.06-.02-.24-.07-.35-.5-1.33-.48-1.37.93-1.91.3-.12.68-.21.3-.62-.5-.65-.67-1.5-.46-2.29.2-1.37.3-2.76.28-4.15-.14-2.06-.76-4.07-.92-6.15-.17-2.18-.69-4.31-.92-6.49-.08-1.5-.35-2.98-.78-4.42-.07-.19-.22-.53.13-.64.23-.07.38.13.52.32.61.66,1.17,1.37,1.68,2.11.98,1.74,2.74,2.87,3.55,4.76.9,2.1,2.66,3.62,4.12,5.32,1.01,1.18,1.97,2.43,3.1,3.55,1.38,1.55,2.61,3.24,3.66,5.03.35.63.86,1.15,1.49,1.5.52.18.9.61,1.03,1.14.08.47.36.88.76,1.12,1.08.74,1.66,1.97,2.46,2.93.84,1.18,1.85,2.22,3.01,3.08.16.09.29.23.37.41.46,1.64,2,2.39,2.97,3.6.8.99,1.36,2.21,2.56,2.86.1.08.16.2.16.33,0,.8.59,1.2,1.09,1.66.36.33.78.6,1.14.94,1.46,1.56,3.06,2.98,4.78,4.23.58.27,1,.79,1.15,1.41.06.21.19.39.38.51,1.8,1.19,3.4,2.67,4.72,4.38,1.84,2.45,4.66,3.57,6.81,5.57.11.1.32.09.43.18,1.03.91,2.42,1.21,3.49,2.06.38.31.51.78.87,1.09.3.34.77.47,1.21.34.83-.21,1.7-.17,2.51.12,1.44.63,3.05.77,4.58.41,1.08-.29,2.12-.73,3.22-.96,1.86-.39,3.46-1.43,5.2-2.11.71-.28,1.19-1.11,2.14-.92.2,0,.37-.14.4-.34.03-.17-.08-.25-.24-.33-.41-.16-.61-.62-.45-1.02.06-.15.16-.28.29-.37.29-.23.7-.34.94-.6.34-.38,1.43-.62.41-1.44-.22-.17.09-.35.21-.52.64-.87,1.81-1.38,1.8-2.69,0-.09.15-.2.24-.26.5-.31.53-.76.51-1.3M357.7,131.39s-.04-.06-.05-.09c0,.04.03.07.05.09"/>
        </g>
      </g>
    </g>
  </g>
  <g id="brown">
    <g id="Group_418" data-name="Group 418">
      <g class="cls-20">
        <g id="Group_417" data-name="Group 417">
          <path id="Path_2252" data-name="Path 2252" class="cls-8" d="M115.71,140.26c.05.18.1.35.16.52.11.4.45.7.86.76.14.19.33.35.54.47.22.11.46.15.7.13h.03s.08.08.14.08c.02,0,.04,0,.06-.01.15.1.31.19.49.25.16.05.33.09.5.1.09,0,.17,0,.26,0,.27-.01.53-.06.78-.13.13.04.27.05.41.03.14-.02.27-.07.38-.14.39,0,.78-.05,1.17-.14.64-.15,1.23-.44,1.73-.86.1,0,.21-.01.3-.06.09-.05.17-.12.22-.21.17-.04.33-.09.49-.14,1.11-.37,2.1-1.03,2.87-1.91.04-.01.08-.04.11-.08l.32-.26c.06,0,.11-.02.14-.07.1-.09.21-.18.31-.26l.31-.18s.08,0,.12-.01c.25-.03.46-.23.49-.49l.1-.06c.09,0,.17-.03.25-.06.24-.07.42-.27.47-.52l.08-.06c.23-.13.45-.25.68-.37,1.04-.45,1.89-1.23,2.44-2.22l.08-.05s.09,0,.13-.02c.12-.04.21-.13.24-.25.47-.16.89-.47,1.19-.87.12-.02.24-.05.35-.1.33-.14.58-.41.7-.75l.09-.06c.12-.06.23-.11.35-.18.81-.4,1.51-.99,2.03-1.72.18-.02.34-.11.45-.25.04-.05.07-.1.1-.15.04,0,.08,0,.12,0,.26-.02.46-.22.5-.48.47-.16.88-.47,1.18-.88.44-.28.87-.57,1.29-.86,1.28-.88,2.47-1.87,3.57-2.96l.09-.07c.29-.12.57-.26.83-.43.43-.28.83-.62,1.23-.94.06,0,.13,0,.19,0,.12,0,.24-.04.35-.1.06-.03.11-.07.16-.11.56.15.97-.19,1.39-.43,5.64-3.29,11.55-6.06,17.34-9.07,5.82-3.02,11.88-5.52,17.48-9.02,4.69-3.01,8.99-6.57,12.83-10.61.03-.03.06-.06.1-.09.23-.22.49-.44.43-.83.06-.01.12-.03.18-.05.4-.13.68-.5.68-.92.13-.16.26-.33.39-.5.83-.55,1.52-1.28,2.04-2.13.13-.17.27-.34.41-.5,1.08-1.07,1.99-2.3,2.68-3.66.24-.38.48-.76.71-1.15,1.2-1.46,2.21-3.07,2.99-4.78.17-.31.36-.61.55-.92.47-.65.74-1.43.78-2.23.7-1.63,1.37-3.28,1.95-4.96.19-.56.38-1.13.55-1.7.78-2.6,1.12-5.32,1-8.03.17-.11.22-.22.18-.33-.04-.08-.1-.15-.18-.2.02-.21.04-.42.05-.63.06-.63.04-1.27-.05-1.9.34-.31.19-.71.16-1.06-.22-2.97-1.04-5.85-1.38-8.8-.39-2.34-1.15-4.6-2.26-6.7-1.72-3.75-4.4-6.93-6.94-10.11-3.05-3.82-6.29-7.45-11-9.67-3.24-1.52-6.57-2.84-9.81-4.36-3.3-1.43-6.68-2.67-10.12-3.72-.55-.18-1.1-.34-1.66-.46-1.7-.32-3.42-.53-5.14-.63h-.3c-.67-.54-1.44-.25-2.17-.25-2.67-.02-5.34.33-8.01.44-3.29.21-6.54.89-9.65,2.01-1.51.49-2.97,1.15-4.34,1.96-1.96,1.18-3.82,2.51-5.58,3.97-.84.54-1.64,1.16-2.37,1.84-2.16,2.6-4.63,4.91-6.46,7.8-2.3,3.63-4.38,7.27-5.24,11.58-.54,3.05-1.24,6.06-2.1,9.04-.7,2.41-1.02,4.93-.93,7.44.14,1.95.37,3.89.71,5.81.28,1.94.94,3.81,1.95,5.49.42.77,1.04,1.4,1.47,2.18,1.49,2.72,3.24,5.29,5.23,7.67.59.83,1.56,1.31,2.58,1.28,1.22-.17,2.46.16,3.43.91.29.18.62.26.96.24,2.06.21,4.13-.32,5.83-1.5.1-.06.21-.12.31-.18.47-.24,1-.46,1.03-1.15.95-.64,1.07-1.66,1.31-2.62.05-.22.11-.44.19-.66.62-2.07,1.54-4.03,2.74-5.83.15-.06.29-.14.42-.24,2.21-2.36,5.63-3.15,8.65-1.99.13.04.25.08.37.13.85.33,1.63.78,2.45,1.15l.07.08c.5.72,1.09,1.37,1.76,1.92.03.27.15.53.35.72.03.03.06.05.09.08,0,.18.03.36.1.52.07.17.2.3.37.38l.59,3.43-.72,3.87c-.05.05-.06.13-.01.19-.04.07-.07.14-.1.2-.05.02-.08.07-.1.12-.08.04-.14.09-.2.15-.14.18-.2.42-.16.65-.04.08-.09.17-.13.25-.06.03-.12.07-.18.11-.16.14-.22.35-.18.55v.02c-.06.02-.11.05-.15.08-.11.1-.16.26-.13.41-.17.05-.27.21-.26.38-.07.05-.14.11-.2.17-.46.39-.79.9-.97,1.47-.12.02-.22.11-.28.22-.02.04-.02.09-.03.13-.72.56-1.33,1.26-1.79,2.06-1.84,2.44-3.97,4.65-6.32,6.6-4.15,3.11-8.14,6.43-11.95,9.95-2.78,2.66-5.36,5.51-8.37,7.95-3.38,2.76-6.38,5.95-8.91,9.5-1.09,1.74-2.04,3.56-2.84,5.45-2.09,4.06-2.54,8.76-1.28,13.14"/>
        </g>
      </g>
    </g>
  </g>
  <g id="blue">
    <g id="Group_412" data-name="Group 412">
      <g class="cls-18">
        <g id="Group_411" data-name="Group 411">
          <path id="Path_2249" data-name="Path 2249" class="cls-11" d="M306.42,178.47c-.62-1.79-.12-3.94-1.7-5.41,0-.09-.04-.17-.11-.24-.18-1.43-.83-2.77-1.85-3.79l-.4-.39-.32-.42c-.1-.37-.35-.68-.7-.86-.69-1.9-2.24-3.12-3.65-4.4-3-2.72-6.64-4.02-10.59-4.88-4.47-1.03-9.15-.65-13.4,1.1-3.42.64-6.5,2.46-8.7,5.14-1.27,1.59-3.09,2.64-5.1,2.96-1.46.34-2.97-.32-3.72-1.62-.87-1.31-.74-3.04.31-4.21,1.01-1.29,2.47-2.17,4.09-2.45,3.98-.71,7.81-1.87,10.8-4.85,1.93-.96,3.49-2.53,4.44-4.46.09-.06.14-.16.16-.26,1.1-.47,1.81-1.55,1.79-2.75l.03-.04c2.37-1.93,3.04-4.7,3.31-7.49.51-5.29-.08-10.35-3.18-14.98-2.1-3.15-4.23-6.13-7.53-8.12-3.29-2.07-7.15-3.05-11.03-2.81-3.29.12-6.47,1.26-9.08,3.26h0c-4.8,2.09-8.68,5.86-10.89,10.61-.06.07-.1.17-.1.26-.1.16-.2.32-.3.48-.06.08-.09.18-.09.28-.55.49-.83,1.22-.74,1.96-.33.28-.48.72-.38,1.14-.48.65-.71,1.45-.65,2.26-.07,2.54-.33,5.08-.78,7.58-.05.09-.08.18-.08.29-.26.19-.4.5-.35.82-.41.25-.68.69-.7,1.17-.07.04-.1.12-.1.2l-.37.47h0c-.3-.03-.56.18-.64.47l-.05.04-.31.31c-.08.06-.13.15-.15.24-1.46.85-3.18,1.15-4.85.84-.16-.26-.44-.42-.74-.41h0c-.13-.12-.26-.24-.39-.36s-.26-.26-.39-.39l-1.47-1.85c-.13-.27-.27-.54-.4-.81,0-.1-.02-.21-.06-.31-.53-2.39-.41-4.87.35-7.2.06-.09.09-.2.08-.31.55-1.08,1.34-2.09,1.03-3.44.17-.47.35-.94.52-1.42,1.34-1.27,1.7-2.99,2.21-4.66.04-.11.05-.22.02-.33,1.11-.65.97-1.83,1.07-2.82.27-3-.03-6.02-.88-8.91-.62-2.16-.69-4.65-2.8-6.16,0-.09-.04-.18-.1-.24-.45-1.93-2.09-2.89-3.37-4.14l-.02-.02-.35-.33-.05-.04-.33-.31-.07-.07-.31-.29-.09-.09-.27-.27c-.07-.08-.17-.14-.28-.16-.15-.12-.3-.24-.45-.36h0c-.13-.1-.27-.2-.41-.31-.15-.14-.3-.28-.45-.42l-.31-.3c-.06-.08-.16-.13-.26-.14-.26-.54-.58-1.01-1.25-1.06h-.01c-.13-.29-.43-.44-.73-.39h-.01c-.56-.7-1.33-1.18-2.2-1.36-12.84-4.43-25.62.24-33.64,10.81h0c-4.12,4.4-6.23,10.31-5.84,16.31.21,3.93,1.15,7.79,2.78,11.37,2.25,4.72,5.94,8.6,10.53,11.11,3.81,2.23,8.3,3.1,12.1,5.44v-.02c.13.12.26.25.4.37s.25.28.38.41c.46.74.86,1.51,1.21,2.31.72,2.03.78,4.13-.62,5.86-1.65,2.04-3.81,2.97-6.48,2-1.05-.38-2.09-.78-3.14-1.17-.14-.11-.28-.21-.42-.32-.06-.07-.14-.11-.23-.11-.7-.9-1.67-1.54-2.78-1.82h0c-.13-.28-.42-.44-.73-.42h0c-.13-.12-.25-.24-.38-.36h0c-.61-.95-1.59-1.6-2.7-1.81-.06-.07-.14-.11-.24-.11-.58-.77-1.44-1.29-2.4-1.43-.05-.07-.13-.11-.21-.1-1.13-1.33-2.74-1.52-4.31-1.79-.08-.05-.19-.08-.29-.07-.19-.26-.51-.39-.83-.35-.33-.51-.93-.79-1.53-.72-.07-.06-.17-.09-.26-.08-.56-.61-1.36-.95-2.19-.93-3.35-.19-6.78-.93-10.05-.01-3.11.88-6.59.87-9.19,3.3-.61.57-1.35,1.09-1.99,1.62-2.51,2.1-5.19,4.1-6.88,7.03h0l-.37.37h0c-1.6,1.11-2.79,2.7-3.39,4.54h0c-.28.13-.45.42-.43.72h0c-.12.12-.24.25-.36.37l-.35.41c-.5.32-.81.87-.8,1.46-.79.17-.79.93-1.01,1.47-1.38,3.57-2.29,7.3-2.7,11.1-.32,2.68-.67,5.43.22,7.96.78,2.21,1.93,4.33,2.92,6.48,2.07,4.29,4.95,8.15,8.48,11.36,6.45,6.17,14.2,7.62,22.63,6.88,5.58-.49,9.88-3.72,13.95-7.2,1.2-.82,2.15-1.95,2.74-3.27l.02-.02c.33-.12.41-.4.43-.71,1.52-1.23,2.78-2.75,3.72-4.46,1.25-2.2,3.06-4.03,5.25-5.31,6.74-3.86,13.05-.35,13.27,7.41.09,3.15-.55,6.27-1.87,9.13-.33.29-.47.74-.36,1.16h0c-.51.5-.78,1.19-.75,1.89h0c-2.77,5.1-4.08,10.86-3.79,16.65.2,3.96,1.52,7.78,3.82,11.01,1.54,2.38,3.26,4.63,5.15,6.73,1.24,1.5,2.76,2.74,4.48,3.66,3.48,1.58,7.21,2.56,11.02,2.88,3.54.22,7.1.72,10.63-.45,2.74-1.07,5.41-2.33,7.97-3.77,4.5-2.23,8.3-5.66,10.97-9.92,2.1-3.28,4.07-6.73,4.7-10.59.63-3.36.74-6.8.32-10.19-.38-3.09-1.29-6.09-2.68-8.87-2.97-5.78-8.26-9.16-13.75-12.21-.06-.06-.14-.1-.22-.09-.16-.12-.33-.24-.49-.35h.01c-.14-.1-.28-.21-.41-.33-1.25-1.13-2.35-2.43-3.25-3.85-1.8-2.59-1.65-5.71.28-7.35,2.25-1.91,4.86-1.7,7.4.59.42.38.83.76,1.24,1.14l.35.47c0,.1.05.2.13.27l.3.35.03.03c1.39,4.53,3.39,8.86,5.96,12.84,3.34,5.08,8.2,8.96,13.89,11.1,5.1,2.07,10.49,1.46,15.73.27,3.16-.68,6.02-2.37,8.14-4.81,2.38-2.75,4.7-5.57,7.13-8.29,2.92-3.27,4.16-7.35,4.79-11.44.57-3.7.98-7.65-.3-11.34"/>
        </g>
      </g>
    </g>
  </g>
  <g id="black1">
    <g id="Group_416" data-name="Group 416">
      <g class="cls-19">
        <g id="Group_415" data-name="Group 415">
          <path id="Path_2251" data-name="Path 2251" class="cls-12" d="M268.04,240.61c.07-.91.55-1.77.33-2.71.15-1.01,1.13-2.13-.37-2.93-.51-1.28-1.83-2.03-3.18-1.82l-1.24-.31c-1.65-1.26-3.71-1.34-5.59-1.58-1.58-.23-3.18-.3-4.77-.19-1.64-.03-3.28.04-4.91.22-.83.22-1.67.35-2.52.41-3.74.23-7.42.95-10.97,2.15-5.59,1.58-11.27,2.83-17,3.75-3.18.38-6.34.96-9.44,1.75-2.87.87-5.82,1.34-8.68,2.2-3.47,1.05-6.45-.11-9.47-1.7-1-.53-1.9-1.46-3.04-1.56-2.24-.2-3.56-2.07-5.47-2.91-1.58-.85-3.3-1.41-5.07-1.67-4.71-.16-9.4.61-13.81,2.28-4.27,1.53-8.07,4.13-11.03,7.56-1.05,1.07-2.22,2.03-3.47,2.86-.94.71-2.24.7-3.17-.02-3.38-2.35-6.45-5.11-9.13-8.22-2.07-2.24-4.61-3.64-7.02-5.2-2.59-1.71-5.66-2.58-8.76-2.48-3.72.12-7.16,1.52-10.82,1.7-.19,0-.37.21-.57.29-3.32,1.3-6.18,3.42-9.22,5.23-2.56,1.57-4.88,3.5-6.9,5.73-2.05,2.19-4.26,4.21-6.2,6.51-3.21,3.54-5.48,7.83-6.59,12.49-.14.42-.05.88.23,1.22,1.07,1.05,1.38,2.53,2.2,3.71.49.7.73,2.06,2.08.89.3-.26.58.08.78.34.92,1.12,2.46,1.51,3.81.97,1.67-.47,3.3-.84,4.99-.12.56.26,1.23.1,1.62-.38,1.41-1.59,3.23-2.7,4.75-4.2,3.64-3.8,7.85-7.01,12.47-9.51,2.68-1.36,4.78-1.52,7.24.14,2.83,1.8,5.46,3.88,7.85,6.23,1.98,2.05,4.48,3.51,7.23,4.22,1.13.31,2.17.94,3.31,1.21,2.65.64,5.31,1.64,8.09.44.54-.26,1.13-.36,1.73-.31,2.71.48,5.07-.79,7.44-1.61,3.25-1.13,6.28-2.82,8.95-5,.44-.31.91-.55,1.42-.71,3.42-1.41,6.6-.13,9.59,1.18,3.91,1.71,7.52,4.14,11.84,4.85.57.09,1.23.67,1.71-.18l1.38.37c.76.51,1.65.79,2.57.82,3.67.2,7.35.07,10.99-.39,5.61-.52,11.1-1.79,16.62-2.85.6-.12,1.57-.12,1.73-1.12l.06.07-.04-.08c.56.32,1.23.37,1.83.12,2.95-.59,5.91-1.15,8.81-1.94.9-.25,2.21.17,2.71-1.13l.06-.02c.59.53,1.21.14,1.81.06,1.39-.31,2.75-.71,4.08-1.2,4.97-1.34,9.8-3.11,14.65-4.79.46-.16,1.15-.08,1.06-.9l.09-.04c1,.61,1.51.15,1.79-.82l.1-.04c.4.47.85.36,1.29.11,1.44-.88,2.81-1.87,4.09-2.97,2.29-1.81,2.39-4.63,3.43-7.02.15-.34.34-1.08-.35-1.39"/>
        </g>
      </g>
    </g>
  </g>
  <g id="black2">
    <g id="Group_414" data-name="Group 414">
      <g class="cls-22">
        <g id="Group_413" data-name="Group 413">
          <path id="Path_2250" data-name="Path 2250" class="cls-6" d="M24.38,127.57c5.67-.59,11.4-.49,17.05.31,2.83.4,5.68.71,8.52,1.13,1.53.23,3.04.62,4.56.93.29.08.6.13.9.14.29.02.58-.08.81-.26.1-.13-.08-.53-.19-.78-.23-.53-.47-1.05-.73-1.57-1.71-3.63-2.55-7.6-2.47-11.61-.05-3.77.91-7.49,2.77-10.78.78-1.37,1.19-2.94,1.96-4.32.63-.99,1.36-1.92,2.17-2.77.48-.55,1.06-1,1.58-1.52,2.87-2.87,6.22-2.92,9.74-1.56,3.44,1.3,6.56,3.3,9.19,5.87.85.84,1.13.86,1.76-.14.75-1.1,1.38-2.28,1.88-3.52.67-1.98,1.89-3.72,3.53-5.01.94-.72,1.75-1.64,2.74-2.27,3.54-2.23,7.34-2.26,11.19-1.01,4.22,1.24,7.94,3.79,10.62,7.28,2.68,3.6,3.68,8.18,2.74,12.56-.39,2.06-1.16,4.04-2.27,5.82-.72,1.22-1.07,2.67-1.81,3.87-1.39,2.25-3.08,4.25-5.73,5.09-1.8.64-3.63,1.18-5.49,1.61-1.14.11-2.3.05-3.43-.16-.45-.08-.89-.21-1.32-.39-1.45-.47-1.56-.39-1.45,1.15.34,4.17.09,8.36-.74,12.46-.4,1.3-.93,2.56-1.59,3.75-.11.25-.3.46-.43.7-.69,1.32-.6,1.59.51,2.56,2.04,1.79,4.13,3.57,5.11,6.22.32.79.5,1.63.53,2.48.02,1.62-.1,3.23-.36,4.83-.23.94-.66,1.82-1.26,2.59-.95,1.19-1.66,2.56-2.07,4.03-.19.71-.58,1.35-1.12,1.85-1.02.95-2.19,1.72-3.26,2.62-1.42,1.19-3.26,1.1-4.86,1.74-2.64,1.06-5.5.94-8.22,1.59-.48.08-.97.11-1.46.1-1.15.04-1.75.39-1.81,1.51-.11,2.03-1.27,3.49-2.32,5.07-.99,1.49-1.68,3.21-2.75,4.63-1.27,1.67-2.68,3.22-4.23,4.63-2.52,2.11-5.25,3.96-8.14,5.53-5.26,3.24-11.19,5.25-17.34,5.88-2.76.27-5.48.84-8.24,1.11-6.32.75-12.72.14-18.78-1.8-.68-.26-1.33-.59-1.94-.98-2.19-1.1-4.2-2.54-5.95-4.26-2.31-2.47-3.11-5.99-2.09-9.21.23-1.13.53-2.26.88-3.36,1.08-3.12,2.86-5.94,5.2-8.27,2.27-2.25,4.66-4.38,7.17-6.37,2.01-1.37,4.11-2.6,6.28-3.69.48-.27.99-.49,1.45-.78.68-.43.67-.79-.01-1.21-.82-.46-1.61-.97-2.38-1.52-.51-.41-.76-1.15-1.28-1.55-.72-.63-1.56-1.09-2.47-1.37-1.91-.53-3.64-1.58-4.99-3.04-1.39-1.28-1.92-3.08-2.73-4.7-.69-1.32-1.16-2.75-1.37-4.22-.18-1.83.34-3.66,1.46-5.13.55-.82.99-1.72,1.29-2.66.44-1.89,1.62-3.53,3.28-4.54.66-.48,1.29-1.01,1.88-1.58,3.02-2.16,6.58-3.44,10.28-3.72M75.43,162.24c.01.07.03.14.04.21,2.92-.6,5.85-1.18,8.76-1.81,1.13-.25,2.04-1.1,2.37-2.21.35-1.04-.52-1.73-1.19-2.4-.19-.2-.41-.37-.64-.51-1.7-1.02-3.35-2.13-5.11-3.02-1.68-.8-3.4-1.5-5.16-2.1-2.7-1.13-5.47-2.08-8.29-2.87-6.95-1.6-13.93-3.05-20.94-4.34-3.49-.64-7.08-.78-10.63-1.11-1.76-.16-3.52-.26-5.28-.38-1.48-.04-2.92.51-4,1.53-.62.47-.79,1.32-.42,2,.23.57.58,1.07,1.04,1.47,2.02,1.61,4.16,3.07,6.4,4.36,2.86,1.49,5.97,2.47,8.89,3.86,2.48,1.17,4.94,2.09,7.73,1.64.33-.04.67-.03,1,.03,3.05.42,6.11.71,9.12,1.31,1.77.45,3.49,1.06,5.15,1.81,1.61.63,3.17,1.4,4.78,2.02.43.16.77.19,1.07.65.33.32.78.47,1.24.42,1.36-.13,2.72-.37,4.07-.57M81.34,133.13c-1.1-2.93-1.05-6.15-2.84-8.8-.15-.3-.27-.61-.37-.93-.32-.75-.69-1.48-1.1-2.19-1.01-1.65-2.12-3.25-3.31-4.77-1.93-2.52-4.26-4.71-6.9-6.47-.4-.25-.88-.33-1.34-.22-.2.06-.32.8-.25,1.19.51,3.25,1.43,6.42,2.76,9.43,1.58,3.64,3.65,7.05,6.15,10.13,1.5,1.68,3.11,3.25,4.83,4.71.95.85,1.85.46,2.17-.78.11-.44.14-.89.21-1.31M94.02,103.81c-.28.34-.49.73-.62,1.15-.02.98.58,1.86,1.5,2.18.35.09.67.25.95.48,1.28,1.3,3.03,2.01,4.86,1.97.35.03.69-.1.94-.35.11-.33.05-.7-.16-.98-1.07-1.2-2.15-2.39-3.33-3.48-1.06-.98-2.47-.93-4.12-.96"/>
        </g>
      </g>
    </g>
  </g>
  <g id="purple">
    <g id="Group_410" data-name="Group 410">
      <g class="cls-23">
        <g id="Group_409" data-name="Group 409">
          <path id="Path_2248" data-name="Path 2248" class="cls-9" d="M354.65,145.17c1.6.17,3.94.2,5.86,1.57,2.76,1.78,4.9,4.38,6.08,7.45.04.29.06.57.06.86.1.52.23,1.05.38,1.56.36.85.63,1.74.82,2.64.23,3.53-.63,7.05-2.46,10.08-.93,1.71-2.34,3.16-3.39,4.81-2.4,3.77-5.85,6.4-9.38,8.98-4.23,3.09-8.61,6.01-12.51,9.48-4.56,4.05-8.67,8.61-12.98,12.94-1.68,1.69-3.45,3.3-5,5.11-1.5,1.8-2.88,3.69-4.15,5.66-1.12,1.77-1.47,3.91-.98,5.94.7,3.42,3.88,5.32,7.61,4.65,3.99-.72,7.69-2.59,10.62-5.4,4.26-4,9.45-6.41,14.59-8.92,2.44-1.2,4.69-2.85,7.22-3.77,6.05-2.21,11.66-5.42,17.9-7.28,4.72-1.44,9.6-2.26,14.52-2.45,5.83-.19,11.42,1.08,14.8,6.68.63,1.13,1.15,2.32,1.55,3.55.69,1.95,1.73,3.88,1.05,6.05-.36,1-.79,1.97-1.28,2.91-.39.81-.82,1.61-1.25,2.4-.2.45-.44.88-.73,1.28-.93,1.07-1.91,2.1-2.88,3.13-1.6,1.67-3.65,2.84-5.91,3.36-.36.09-.71.22-1.05.38-4.83,2.21-9.53,4.77-14.5,6.56-5.9,1.97-12.07,2.96-18.29,2.93-8.11.17-16.14.93-23.92,3.48-2.86.94-5.83,1.56-8.71,2.46-2.27.64-4.07,2.37-4.8,4.62-.49,1.45-.31,3.03.49,4.33,2.03,3.67,5.49,4.47,9.2,4.59,3.81.13,7.63.13,11.43-.07,5.06-.26,10.13-.57,15.15-1.21,3.43-.43,6.78-1.47,10.17-2.2,1.64-.35,3.28-.66,4.93-.95,3.22-.57,6.43-1.18,9.66-1.62,1.46-.1,2.93-.08,4.38.07,1.21.05,2.41.22,3.62.22,5.88.04,11.7,1.19,17.16,3.37.89.36,1.69.93,2.32,1.66,1.71,1.99,3.62,3.89,3.97,6.7.1.32.23.63.41.91.16.39.53.87.42,1.15-.63,1.59.59,2.58.97,3.86.87,3.07.28,6.38-1.6,8.96-1.17,1.68-2.47,3.25-3.9,4.72-.72.7-1.57,1.25-2.51,1.62-4.83,2.08-10.12,2.89-15.36,2.37-.17-.02-.34-.05-.5-.09-2.94-.62-5.91-1.17-8.83-1.87s-5.81-1.54-8.72-2.32c-8.5-2.28-17-4.54-25.48-6.86-1.48-.41-2.87-1.12-4.33-1.61-1.22-.55-2.51-.9-3.84-1.04-3.35-.03-6.69.16-10.01.57-3.58.48-4.91,1.95-5.56,5.21-.34,2.81.89,5.57,3.21,7.19,3.12,2.07,6.57,3.59,10.2,4.49,6.98,1.94,13.97,3.86,21.01,5.58,6.51,1.62,12.83,3.94,18.84,6.91,3.39,1.65,6.88,3.11,10.24,4.81,3.76,1.71,7.02,4.36,9.47,7.68,1.8,2.51,2.8,5.49,2.88,8.58.01,1.05.06,2.09.15,3.13.37,2.32-.87,4.6-3.01,5.56-1.37.71-2.78,1.35-4.14,2.07-1.45.68-3.07.9-4.64.61-1.69-.19-3.42-.07-5.13-.2-.73-.13-1.44-.33-2.13-.6-.77-.3-1.58-.5-2.41-.61-2.13-.12-4.22-.65-6.14-1.57-3.17-1.32-6.47-2.28-9.7-3.48-1.44-.53-2.83-1.23-4.23-1.89-2.16-1.02-4.38-1.94-6.43-3.15-1.94-1.14-3.68-2.61-5.51-3.93-2.82-2.03-5.59-4.13-8.47-6.07-3.19-2.15-6.49-4.14-9.71-6.25-3.35-2.2-6.66-4.47-10-6.69-1.62-1.08-3.59-1.83-4.83-3.23-1.43-1.62-3.35-1.68-4.98-2.54-3.4-1.81-6.66-3.86-9.06-7.03-.71-.92-1.57-1.71-2.54-2.35-2.32-1.52-4.3-3.5-5.82-5.81-1.85-2.79-3.4-5.79-5.25-8.57-2.29-3.43-2.85-7.39-3.89-11.22-.73-2.16-1.34-4.37-1.81-6.6-.34-2.32-1.47-4.49-.93-7.01.25-1.74.22-3.51-.09-5.24-.42-3.42.64-6.54,1.67-9.7.49-1.51.73-3.11,1.28-4.59.9-2.41,1.88-4.8,3-7.11.81-1.56,1.74-3.06,2.79-4.47,2.07-2.93,4.22-5.81,6.34-8.72,2.67-3.65,5.39-7.27,7.98-10.98,1.27-1.77,2.37-3.66,3.29-5.64,1.46-3.26,3.88-5.75,6.27-8.27,2.78-2.81,4.92-6.19,6.3-9.89,1.14-2.85,2.75-5.48,4.75-7.81,1.63-2.06,3.38-4.03,5.1-6.02,3.72-4.18,8.02-7.8,12.76-10.76,3.3-1.81,6.99-2.79,10.76-2.85"/>
        </g>
      </g>
    </g>
  </g>
</svg>