<?xml version="1.0" encoding="UTF-8"?><svg id="a" xmlns="http://www.w3.org/2000/svg" xmlns:xlink="http://www.w3.org/1999/xlink" viewBox="0 0 32 32"><defs><style>.q,.r,.s{fill:none;}.r{stroke-linejoin:round;}.r,.s{stroke:#000;stroke-linecap:round;stroke-width:.75px;}.t{fill:#fff;}.u{clip-path:url(#b);}.v{clip-path:url(#e);}.w{clip-path:url(#n);}.x{clip-path:url(#k);}.y{clip-path:url(#h);}</style><clipPath id="b"><rect class="q" width="32" height="32"/></clipPath><clipPath id="e"><rect class="q" width="32" height="32"/></clipPath><clipPath id="h"><rect class="q" width="32" height="32"/></clipPath><clipPath id="k"><rect class="q" width="32" height="32"/></clipPath><clipPath id="n"><rect class="q" width="32" height="32"/></clipPath></defs><g class="u"><g id="c"><path id="d" class="t" d="M11.3,20.4c-.3-.4-.6-1.1-1.2-2-.3-.5-1.2-1.5-1.5-1.9-.18-.3-.22-.67-.1-1,.15-.65,.73-1.11,1.4-1.1,.53,.09,1.01,.33,1.4,.7,.2,.2,.5,.6,.7,.8,.2,.2,.2,.3,.4,.5,.2,.3,.3,.5,.2,.1-.1-.5-.2-1.3-.4-2.1-.07-.37-.17-.74-.3-1.1-.1-.5-.2-.8-.3-1.3-.1-.3-.2-1.1-.3-1.5-.16-.62-.05-1.27,.3-1.8,.36-.31,.86-.39,1.3-.2,.43,.33,.74,.78,.9,1.3,.25,.64,.42,1.32,.5,2,.2,1,.5,2.5,.5,2.8-.05-.5-.05-1,0-1.5,.08-.37,.35-.67,.7-.8,.29-.08,.6-.12,.9-.1,.3,.11,.57,.28,.8,.5,.26,.56,.4,1.18,.4,1.8,.05-.54,.15-1.08,.3-1.6,.19-.22,.43-.39,.7-.5,.33-.1,.67-.1,1,0,.29,.07,.54,.25,.7,.5,.19,.55,.33,1.12,.4,1.7,.08-.24,.19-.47,.3-.7,.31-.48,.95-.61,1.43-.3,.3,.2,.48,.54,.47,.9v2.3c-.02,.57-.08,1.14-.2,1.7-.17,.49-.41,.97-.7,1.4-.5,.52-.91,1.13-1.2,1.8-.07,.33-.11,.66-.1,1,0,.3,.04,.6,.1,.9-.4,.05-.8,.05-1.2,0-.45-.23-.81-.63-1-1.1-.09-.19-.32-.28-.51-.19-.08,.04-.15,.11-.19,.19-.2,.4-.7,1.1-1.1,1.1-.7,.1-2.1,0-3.1,0,0,0,.2-1-.2-1.4l-1.1-1.1-1.1-.7Z"/></g></g><g class="v"><g id="f"><path id="g" class="r" d="M11.3,20.4c-.3-.4-.6-1.1-1.2-2-.3-.5-1.2-1.5-1.5-1.9-.18-.3-.22-.67-.1-1,.15-.65,.73-1.11,1.4-1.1,.53,.09,1.01,.33,1.4,.7,.2,.2,.5,.6,.7,.8,.2,.2,.2,.3,.4,.5,.2,.3,.3,.5,.2,.1-.1-.5-.2-1.3-.4-2.1-.07-.37-.17-.74-.3-1.1-.1-.5-.2-.8-.3-1.3-.1-.3-.2-1.1-.3-1.5-.16-.62-.05-1.27,.3-1.8,.36-.31,.86-.39,1.3-.2,.43,.33,.74,.78,.9,1.3,.25,.64,.42,1.32,.5,2,.2,1,.5,2.5,.5,2.8-.05-.5-.05-1,0-1.5,.08-.37,.35-.67,.7-.8,.29-.08,.6-.12,.9-.1,.3,.11,.57,.28,.8,.5,.26,.56,.4,1.18,.4,1.8,.05-.54,.15-1.08,.3-1.6,.19-.22,.43-.39,.7-.5,.33-.1,.67-.1,1,0,.29,.07,.54,.25,.7,.5,.19,.55,.33,1.12,.4,1.7,.08-.24,.19-.47,.3-.7,.31-.48,.95-.61,1.43-.3,.3,.2,.48,.54,.47,.9v2.3c-.02,.57-.08,1.14-.2,1.7-.17,.49-.41,.97-.7,1.4-.5,.52-.91,1.13-1.2,1.8-.07,.33-.11,.66-.1,1,0,.3,.04,.6,.1,.9-.4,.05-.8,.05-1.2,0-.45-.23-.81-.63-1-1.1-.09-.19-.32-.28-.51-.19-.08,.04-.15,.11-.19,.19-.2,.4-.7,1.1-1.1,1.1-.7,.1-2.1,0-3.1,0,0,0,.2-1-.2-1.4l-1.1-1.1-1.1-.7Z"/></g></g><g class="y"><g id="i" transform="translate(19.6 17.3)"><line id="j" class="s" x1="19.6" y1="20.7" x2="19.6" y2="17.3"/></g></g><g class="x"><g id="l" transform="translate(17.5 17.3)"><line id="m" class="s" x1="17.6" y1="20.7" x2="17.5" y2="17.3"/></g></g><g class="w"><g id="o" transform="translate(15.6 17.3)"><line id="p" class="s" x1="15.6" y1="17.3" x2="15.6" y2="20.7"/></g></g></svg>