<svg xmlns="http://www.w3.org/2000/svg" viewBox="0 0 364.63 181.71"><defs><style>.cls-1{fill:#b04d62;}</style></defs><title>fullempty_empty</title><g id="Layer_2" data-name="Layer 2"><g id="Layer_1-2" data-name="Layer 1"><path id="fullempty_empty" class="cls-1" d="M363.85,101.86q-.41-3-1-5.85c-6.25-30-25.08-55.59-43.51-80.07C316,11.55,312.59,7,307.85,4.25,301.46.49,293.64.37,286.22.36L88,0C81.88,0,75.49,0,70.07,2.88,63.54,6.29,59.61,13.09,56,19.54,33.92,59.45,8.87,98.59.74,144.22c-1.46,8.19-1.37,18.66,6.07,22.4,4,2,8.8,1.21,13.09-.08C34.55,162.16,47.19,153,60.71,145.8c44.48-23.54,99.91-24,145.78-3.32,20.48,9.25,39.08,22.38,59.85,31s45.24,12.25,65.29,2.09C357.21,162.61,367.72,130.51,363.85,101.86Z"/></g></g></svg>