<?xml version="1.0" encoding="utf-8"?>
<!-- Generator: Adobe Illustrator 28.3.0, SVG Export Plug-In . SVG Version: 6.00 Build 0)  -->
<svg version="1.1" id="Layer_1" xmlns="http://www.w3.org/2000/svg" xmlns:xlink="http://www.w3.org/1999/xlink" x="0px" y="0px"
	 viewBox="0 0 200 200" style="enable-background:new 0 0 200 200;" xml:space="preserve">
<style type="text/css">
	.st0{clip-path:url(#SVGID_00000113342215258515695600000008399805511746893708_);}
	.st1{fill:#231F20;}
</style>
<g id="Group_416" transform="translate(79.866 230.438)">
	<g>
		<defs>
			<rect id="SVGID_1_" x="-77.9" y="-150.9" width="196" height="40.8"/>
		</defs>
		<clipPath id="SVGID_00000114033223358869976920000003791591637660409494_">
			<use xlink:href="#SVGID_1_"  style="overflow:visible;"/>
		</clipPath>
		
			<g id="Group_415" transform="translate(0 0)" style="clip-path:url(#SVGID_00000114033223358869976920000003791591637660409494_);">
			<path id="Path_2251" class="st1" d="M117.3-140.3c0.1-0.9,0.6-1.8,0.3-2.8c0.2-1.1,1.2-2.2-0.4-3c-0.5-1.3-1.9-2.1-3.3-1.9
				l-1.3-0.3c-1.7-1.3-3.9-1.4-5.8-1.6c-1.6-0.2-3.3-0.3-4.9-0.2c-1.7,0-3.4,0-5.1,0.2c-0.9,0.2-1.7,0.4-2.6,0.4
				c-3.9,0.2-7.7,1-11.4,2.2c-5.8,1.6-11.7,2.9-17.6,3.9c-3.3,0.4-6.6,1-9.8,1.8c-3,0.9-6,1.4-9,2.3c-3.6,1.1-6.7-0.1-9.8-1.8
				c-1-0.5-2-1.5-3.1-1.6c-2.3-0.2-3.7-2.1-5.7-3c-1.6-0.9-3.4-1.5-5.3-1.7c-4.9-0.2-9.8,0.6-14.3,2.4c-4.4,1.6-8.4,4.3-11.4,7.8
				c-1.1,1.1-2.3,2.1-3.6,3c-1,0.7-2.3,0.7-3.3,0c-3.5-2.4-6.7-5.3-9.5-8.5c-2.1-2.3-4.8-3.8-7.3-5.4c-2.7-1.8-5.9-2.7-9.1-2.6
				c-3.9,0.1-7.4,1.6-11.2,1.8c-0.2,0-0.4,0.2-0.6,0.3c-3.4,1.3-6.4,3.5-9.6,5.4c-2.7,1.6-5.1,3.6-7.2,5.9c-2.1,2.3-4.4,4.4-6.4,6.8
				c-3.3,3.7-5.7,8.1-6.8,13c-0.1,0.4-0.1,0.9,0.2,1.3c1.1,1.1,1.4,2.6,2.3,3.8c0.5,0.7,0.8,2.1,2.2,0.9c0.3-0.3,0.6,0.1,0.8,0.4
				c1,1.2,2.6,1.6,4,1c1.7-0.5,3.4-0.9,5.2-0.1c0.6,0.3,1.3,0.1,1.7-0.4c1.5-1.7,3.4-2.8,4.9-4.4c3.8-3.9,8.1-7.3,12.9-9.9
				c2.8-1.4,5-1.6,7.5,0.1c2.9,1.9,5.7,4,8.1,6.5c2,2.1,4.6,3.6,7.5,4.4c1.2,0.3,2.3,1,3.4,1.3c2.8,0.7,5.5,1.7,8.4,0.5
				c0.6-0.3,1.2-0.4,1.8-0.3c2.8,0.5,5.3-0.8,7.7-1.7c3.4-1.2,6.5-2.9,9.3-5.2c0.5-0.3,0.9-0.6,1.5-0.7c3.5-1.5,6.8-0.1,9.9,1.2
				c4.1,1.8,7.8,4.3,12.3,5c0.6,0.1,1.3,0.7,1.8-0.2l1.4,0.4c0.8,0.5,1.7,0.8,2.7,0.8c3.8,0.2,7.6,0.1,11.4-0.4
				c5.8-0.5,11.5-1.9,17.2-3c0.6-0.1,1.6-0.1,1.8-1.2l0.1,0.1l0-0.1c0.6,0.3,1.3,0.4,1.9,0.1c3.1-0.6,6.1-1.2,9.1-2
				c0.9-0.3,2.3,0.2,2.8-1.2l0.1,0c0.6,0.6,1.3,0.1,1.9,0.1c1.4-0.3,2.9-0.7,4.2-1.2c5.2-1.4,10.2-3.2,15.2-5
				c0.5-0.2,1.2-0.1,1.1-0.9l0.1,0c1,0.6,1.6,0.2,1.9-0.9l0.1,0c0.4,0.5,0.9,0.4,1.3,0.1c1.5-0.9,2.9-1.9,4.2-3.1
				c2.4-1.9,2.5-4.8,3.6-7.3C117.8-139.3,118-140,117.3-140.3"/>
		</g>
	</g>
</g>
</svg>
