<?xml version="1.0" encoding="utf-8"?>
<!-- Generator: Adobe Illustrator 28.3.0, SVG Export Plug-In . SVG Version: 6.00 Build 0)  -->
<svg version="1.1" id="Layer_1" xmlns="http://www.w3.org/2000/svg" xmlns:xlink="http://www.w3.org/1999/xlink" x="0px" y="0px"
	 viewBox="0 0 200 200" style="enable-background:new 0 0 200 200;" xml:space="preserve">
<style type="text/css">
	.st0{clip-path:url(#SVGID_00000111152547711849782220000001930130579422621336_);}
</style>
<g id="Group_414" transform="translate(0 88.017)">
	<g>
		<defs>
			<rect id="SVGID_1_" x="1" y="-86.1" width="197" height="195"/>
		</defs>
		<clipPath id="SVGID_00000171702277970657676150000004062334023647026079_">
			<use xlink:href="#SVGID_1_"  style="overflow:visible;"/>
		</clipPath>
		
			<g id="Group_413" transform="translate(0 0)" style="clip-path:url(#SVGID_00000171702277970657676150000004062334023647026079_);">
			<path id="Path_2250" d="M42.7-18.3c9.7-1,19.5-0.8,29.2,0.5c4.9,0.7,9.7,1.2,14.6,1.9c2.6,0.4,5.2,1.1,7.8,1.6
				c0.5,0.1,1,0.2,1.5,0.2c0.5,0,1-0.1,1.4-0.4c0.2-0.2-0.1-0.9-0.3-1.3c-0.4-0.9-0.8-1.8-1.3-2.7c-2.9-6.2-4.4-13-4.2-19.9
				c-0.1-6.5,1.6-12.8,4.7-18.5c1.3-2.3,2-5,3.3-7.4c1.1-1.7,2.3-3.3,3.7-4.7c0.8-0.9,1.8-1.7,2.7-2.6c4.9-4.9,10.7-5,16.7-2.7
				c5.9,2.2,11.2,5.6,15.7,10.1c1.5,1.4,1.9,1.5,3-0.2c1.3-1.9,2.4-3.9,3.2-6c1.1-3.4,3.2-6.4,6-8.6c1.6-1.2,3-2.8,4.7-3.9
				c6.1-3.8,12.6-3.9,19.2-1.7c7.2,2.1,13.6,6.5,18.2,12.5c4.6,6.2,6.3,14,4.7,21.5c-0.7,3.5-2,6.9-3.9,10c-1.2,2.1-1.8,4.6-3.1,6.6
				c-2.4,3.8-5.3,7.3-9.8,8.7c-3.1,1.1-6.2,2-9.4,2.8c-2,0.2-3.9,0.1-5.9-0.3c-0.8-0.1-1.5-0.4-2.3-0.7c-2.5-0.8-2.7-0.7-2.5,2
				c0.6,7.1,0.2,14.3-1.3,21.3c-0.7,2.2-1.6,4.4-2.7,6.4c-0.2,0.4-0.5,0.8-0.7,1.2c-1.2,2.3-1,2.7,0.9,4.4c3.5,3.1,7.1,6.1,8.8,10.7
				c0.5,1.4,0.9,2.8,0.9,4.2c0,2.8-0.2,5.5-0.6,8.3c-0.4,1.6-1.1,3.1-2.2,4.4c-1.6,2-2.8,4.4-3.5,6.9c-0.3,1.2-1,2.3-1.9,3.2
				c-1.7,1.6-3.8,3-5.6,4.5c-2.4,2-5.6,1.9-8.3,3c-4.5,1.8-9.4,1.6-14.1,2.7c-0.8,0.1-1.7,0.2-2.5,0.2c-2,0.1-3,0.7-3.1,2.6
				c-0.2,3.5-2.2,6-4,8.7c-1.7,2.6-2.9,5.5-4.7,7.9c-2.2,2.9-4.6,5.5-7.2,7.9c-4.3,3.6-9,6.8-14,9.5c-9,5.6-19.2,9-29.7,10.1
				c-4.7,0.5-9.4,1.4-14.1,1.9c-10.8,1.3-21.8,0.2-32.2-3.1c-1.2-0.4-2.3-1-3.3-1.7c-3.8-1.9-7.2-4.3-10.2-7.3
				c-4-4.2-5.3-10.3-3.6-15.8c0.4-1.9,0.9-3.9,1.5-5.8c1.9-5.3,4.9-10.2,8.9-14.2c3.9-3.9,8-7.5,12.3-10.9c3.4-2.3,7-4.5,10.8-6.3
				c0.8-0.5,1.7-0.8,2.5-1.3c1.2-0.7,1.1-1.4,0-2.1c-1.4-0.8-2.8-1.7-4.1-2.6c-0.9-0.7-1.3-2-2.2-2.7c-1.2-1.1-2.7-1.9-4.2-2.3
				c-3.3-0.9-6.2-2.7-8.5-5.2c-2.4-2.2-3.3-5.3-4.7-8.1c-1.2-2.3-2-4.7-2.3-7.2c-0.3-3.1,0.6-6.3,2.5-8.8c0.9-1.4,1.7-2.9,2.2-4.6
				c0.8-3.2,2.8-6,5.6-7.8c1.1-0.8,2.2-1.7,3.2-2.7C30.3-15.7,36.4-17.9,42.7-18.3 M130.2,41.1c0,0.1,0,0.2,0.1,0.4c5-1,10-2,15-3.1
				c1.9-0.4,3.5-1.9,4.1-3.8c0.6-1.8-0.9-3-2-4.1c-0.3-0.3-0.7-0.6-1.1-0.9c-2.9-1.8-5.7-3.7-8.8-5.2c-2.9-1.4-5.8-2.6-8.8-3.6
				c-4.6-1.9-9.4-3.6-14.2-4.9c-11.9-2.7-23.9-5.2-35.9-7.4c-6-1.1-12.1-1.3-18.2-1.9c-3-0.3-6-0.4-9-0.6c-2.5-0.1-5,0.9-6.9,2.6
				c-1.1,0.8-1.4,2.3-0.7,3.4c0.4,1,1,1.8,1.8,2.5c3.5,2.8,7.1,5.3,11,7.5c4.9,2.6,10.2,4.2,15.2,6.6c4.2,2,8.5,3.6,13.2,2.8
				c0.6-0.1,1.1,0,1.7,0.1c5.2,0.7,10.5,1.2,15.6,2.2c3,0.8,6,1.8,8.8,3.1c2.8,1.1,5.4,2.4,8.2,3.5c0.7,0.3,1.3,0.3,1.8,1.1
				c0.6,0.5,1.3,0.8,2.1,0.7C125.6,41.8,127.9,41.4,130.2,41.1 M140.3-8.8c-1.9-5-1.8-10.5-4.9-15.1c-0.2-0.5-0.5-1-0.6-1.6
				c-0.6-1.3-1.2-2.5-1.9-3.8c-1.7-2.8-3.6-5.6-5.7-8.2c-3.3-4.3-7.3-8.1-11.8-11.1c-0.7-0.4-1.5-0.6-2.3-0.4
				c-0.3,0.1-0.6,1.4-0.4,2c0.9,5.6,2.5,11,4.7,16.2c2.7,6.2,6.3,12.1,10.5,17.4c2.6,2.9,5.3,5.6,8.3,8.1c1.6,1.5,3.2,0.8,3.7-1.3
				C140.2-7.3,140.2-8.1,140.3-8.8 M162-59.1c-0.5,0.6-0.8,1.2-1.1,2c0,1.7,1,3.2,2.6,3.7c0.6,0.2,1.2,0.4,1.6,0.8
				c2.2,2.2,5.2,3.4,8.3,3.4c0.6,0,1.2-0.2,1.6-0.6c0.2-0.6,0.1-1.2-0.3-1.7c-1.8-2.1-3.7-4.1-5.7-6C167.3-59.1,164.9-59,162-59.1"
				/>
		</g>
	</g>
</g>
</svg>
