<?xml version="1.0" encoding="utf-8"?>
<!-- Generator: Adobe Illustrator 28.3.0, SVG Export Plug-In . SVG Version: 6.00 Build 0)  -->
<svg version="1.1" id="Layer_1" xmlns="http://www.w3.org/2000/svg" xmlns:xlink="http://www.w3.org/1999/xlink" x="0px" y="0px"
	 viewBox="0 0 200 200" style="enable-background:new 0 0 200 200;" xml:space="preserve">
<style type="text/css">
	.st0{clip-path:url(#SVGID_00000169524441005209534330000003191315285995665084_);}
	.st1{fill:#700D21;}
</style>
<g id="Group_418" transform="translate(114.978 12.657)">
	<g>
		<defs>
			<rect id="SVGID_1_" x="-88" y="-10.7" width="148.7" height="196"/>
		</defs>
		<clipPath id="SVGID_00000104688870535626860060000002492184196214561664_">
			<use xlink:href="#SVGID_1_"  style="overflow:visible;"/>
		</clipPath>
		
			<g id="Group_417" transform="translate(0 0)" style="clip-path:url(#SVGID_00000104688870535626860060000002492184196214561664_);">
			<path id="Path_2252" class="st1" d="M-87,181.9c0.1,0.3,0.2,0.5,0.2,0.8c0.2,0.6,0.7,1.1,1.3,1.1c0.2,0.3,0.5,0.5,0.8,0.7
				c0.3,0.2,0.7,0.2,1.1,0.2h0c0,0.1,0.1,0.1,0.2,0.1c0,0,0.1,0,0.1,0c0.2,0.2,0.5,0.3,0.7,0.4c0.2,0.1,0.5,0.1,0.8,0.2
				c0.1,0,0.3,0,0.4,0c0.4,0,0.8-0.1,1.2-0.2c0.2,0.1,0.4,0.1,0.6,0.1c0.2,0,0.4-0.1,0.6-0.2c0.6,0,1.2-0.1,1.8-0.2
				c1-0.2,1.9-0.7,2.6-1.3c0.2,0,0.3,0,0.5-0.1c0.1-0.1,0.3-0.2,0.3-0.3c0.3-0.1,0.5-0.1,0.7-0.2c1.7-0.6,3.2-1.6,4.3-2.9
				c0.1,0,0.1-0.1,0.2-0.1l0.5-0.4c0.1,0,0.2,0,0.2-0.1c0.2-0.1,0.3-0.3,0.5-0.4l0.5-0.3c0.1,0,0.1,0,0.2,0c0.4-0.1,0.7-0.4,0.7-0.7
				l0.2-0.1c0.1,0,0.3,0,0.4-0.1c0.4-0.1,0.6-0.4,0.7-0.8l0.1-0.1c0.3-0.2,0.7-0.4,1-0.6c1.6-0.7,2.9-1.9,3.7-3.4l0.1-0.1
				c0.1,0,0.1,0,0.2,0c0.2-0.1,0.3-0.2,0.4-0.4c0.7-0.2,1.3-0.7,1.8-1.3c0.2,0,0.4-0.1,0.5-0.2c0.5-0.2,0.9-0.6,1.1-1.1l0.1-0.1
				c0.2-0.1,0.4-0.2,0.5-0.3c1.2-0.6,2.3-1.5,3.1-2.6c0.3,0,0.5-0.2,0.7-0.4c0.1-0.1,0.1-0.1,0.2-0.2c0.1,0,0.1,0,0.2,0
				c0.4,0,0.7-0.3,0.8-0.7c0.7-0.2,1.3-0.7,1.8-1.3c0.7-0.4,1.3-0.9,1.9-1.3c1.9-1.3,3.7-2.8,5.4-4.5l0.1-0.1
				c0.4-0.2,0.9-0.4,1.3-0.7c0.7-0.4,1.2-0.9,1.9-1.4c0.1,0,0.2,0,0.3,0c0.2,0,0.4-0.1,0.5-0.2c0.1,0,0.2-0.1,0.2-0.2
				c0.8,0.2,1.5-0.3,2.1-0.7c8.5-5,17.4-9.1,26.2-13.7c8.8-4.6,17.9-8.3,26.4-13.6c7.1-4.5,13.6-9.9,19.4-16c0,0,0.1-0.1,0.2-0.1
				c0.3-0.3,0.7-0.7,0.7-1.3c0.1,0,0.2,0,0.3-0.1c0.6-0.2,1-0.8,1-1.4c0.2-0.2,0.4-0.5,0.6-0.8c1.2-0.8,2.3-1.9,3.1-3.2
				c0.2-0.3,0.4-0.5,0.6-0.8c1.6-1.6,3-3.5,4-5.5c0.4-0.6,0.7-1.2,1.1-1.7c1.8-2.2,3.3-4.6,4.5-7.2c0.3-0.5,0.5-0.9,0.8-1.4
				c0.7-1,1.1-2.2,1.2-3.4c1.1-2.5,2.1-4.9,2.9-7.5c0.3-0.8,0.6-1.7,0.8-2.6c1.2-3.9,1.7-8,1.5-12.1c0.3-0.2,0.3-0.3,0.3-0.5
				c-0.1-0.1-0.2-0.2-0.3-0.3c0-0.3,0.1-0.6,0.1-1c0.1-1,0.1-1.9-0.1-2.9c0.5-0.5,0.3-1.1,0.2-1.6c-0.3-4.5-1.6-8.8-2.1-13.3
				c-0.6-3.5-1.7-6.9-3.4-10.1c-2.6-5.7-6.6-10.5-10.5-15.3C40,12.5,35.1,7,28,3.7c-4.9-2.3-9.9-4.3-14.8-6.6
				c-5-2.2-10.1-4-15.3-5.6C-2.9-8.8-3.7-9-4.6-9.2c-2.6-0.5-5.2-0.8-7.8-1l-0.5,0c-1-0.8-2.2-0.4-3.3-0.4c-4,0-8.1,0.5-12.1,0.7
				c-5,0.3-9.9,1.3-14.6,3c-2.3,0.7-4.5,1.7-6.5,3c-3,1.8-5.8,3.8-8.4,6c-1.3,0.8-2.5,1.7-3.6,2.8c-3.3,3.9-7,7.4-9.8,11.8
				c-3.5,5.5-6.6,11-7.9,17.5c-0.8,4.6-1.9,9.1-3.2,13.6c-1.1,3.6-1.5,7.4-1.4,11.2c0.2,2.9,0.6,5.9,1.1,8.8
				c0.4,2.9,1.4,5.7,2.9,8.3c0.6,1.2,1.6,2.1,2.2,3.3c2.2,4.1,4.9,8,7.9,11.6c0.9,1.2,2.4,2,3.9,1.9c1.8-0.3,3.7,0.2,5.2,1.4
				c0.4,0.3,0.9,0.4,1.4,0.4c3.1,0.3,6.2-0.5,8.8-2.3c0.2-0.1,0.3-0.2,0.5-0.3c0.7-0.4,1.5-0.7,1.5-1.7c1.4-1,1.6-2.5,2-4
				c0.1-0.3,0.2-0.7,0.3-1c0.9-3.1,2.3-6.1,4.1-8.8c0.2-0.1,0.4-0.2,0.6-0.4c3.3-3.6,8.5-4.7,13-3c0.2,0.1,0.4,0.1,0.6,0.2
				c1.3,0.5,2.5,1.2,3.7,1.7l0.1,0.1c0.7,1.1,1.6,2.1,2.7,2.9c0,0.4,0.2,0.8,0.5,1.1c0,0,0.1,0.1,0.1,0.1c0,0.3,0.1,0.5,0.2,0.8
				c0.1,0.3,0.3,0.5,0.6,0.6l0.9,5.2l-1.1,5.8c-0.1,0.1-0.1,0.2,0,0.3c-0.1,0.1-0.1,0.2-0.2,0.3c-0.1,0-0.1,0.1-0.2,0.2
				c-0.1,0.1-0.2,0.1-0.3,0.2c-0.2,0.3-0.3,0.6-0.2,1c-0.1,0.1-0.1,0.3-0.2,0.4c-0.1,0-0.2,0.1-0.3,0.2c-0.2,0.2-0.3,0.5-0.3,0.8
				l0,0c-0.1,0-0.2,0.1-0.2,0.1c-0.2,0.2-0.2,0.4-0.2,0.6c-0.2,0.1-0.4,0.3-0.4,0.6c-0.1,0.1-0.2,0.2-0.3,0.3
				c-0.7,0.6-1.2,1.4-1.5,2.2c-0.2,0-0.3,0.2-0.4,0.3c0,0.1,0,0.1,0,0.2c-1.1,0.8-2,1.9-2.7,3.1c-2.8,3.7-6,7-9.5,10
				c-6.3,4.7-12.3,9.7-18,15c-4.2,4-8.1,8.3-12.6,12c-5.1,4.2-9.6,9-13.4,14.3c-1.6,2.6-3.1,5.4-4.3,8.2
				C-88.2,168.1-88.9,175.2-87,181.9"/>
		</g>
	</g>
</g>
</svg>
