<?xml version="1.0" encoding="utf-8"?>
<!-- Generator: Adobe Illustrator 28.3.0, SVG Export Plug-In . SVG Version: 6.00 Build 0)  -->
<svg version="1.1" id="Layer_1" xmlns="http://www.w3.org/2000/svg" xmlns:xlink="http://www.w3.org/1999/xlink" x="0px" y="0px"
	 viewBox="0 0 200 200" style="enable-background:new 0 0 200 200;" xml:space="preserve">
<style type="text/css">
	.st0{clip-path:url(#SVGID_00000005230962431323448870000002285230669429081504_);}
	.st1{fill:#EE4036;}
</style>
<g id="Group_402" transform="translate(46.902 293.592)">
	<g>
		<defs>
			<rect id="SVGID_1_" x="-45.3" y="-284.6" width="196.7" height="182"/>
		</defs>
		<clipPath id="SVGID_00000113325918020183343730000016078116008426220978_">
			<use xlink:href="#SVGID_1_"  style="overflow:visible;"/>
		</clipPath>
		
			<g id="Group_401" transform="translate(0 0)" style="clip-path:url(#SVGID_00000113325918020183343730000016078116008426220978_);">
			<path id="Path_2243" class="st1" d="M146.7-162.8c1.7-5.2,3-10.5,4-15.9c0.4-1.6,0.6-3.2,0.7-4.8c0.1-4.3-0.5-8.6-0.8-12.9
				c-0.1-1.8-0.6-3.5-0.8-5.3c-0.4-3.1-0.6-6.3-1.3-9.4c-0.7-3.2-1.5-6.3-2.6-9.3c-1.3-4.1-2.8-8.2-4.2-12.2c-0.8-2.3-2.6-4-3.7-6.1
				c-0.9-1.7-2-3.3-3.1-4.9c-1.4-1.9-2.8-3.8-4-5.9c-0.8-1.7-1.9-3.1-3.3-4.3c-2.4-1.7-4.5-3.8-7.2-5c-1.5-0.6-2.2-2.2-3.5-2.9
				c-2.2-1.3-4.3-2.8-6.2-4.6c-0.4-0.3-0.9-0.6-1.4-0.9c-3.5-1.7-6.9-3.5-10.3-5.3c-3.5-1.8-6.7-4.3-10.6-5.3
				c-1.6-0.3-3.2-0.8-4.7-1.5c-4.6-2.2-9.3-4.1-14.6-4.4c-3.6-0.2-7.2-1.1-10.9-1c-7.1,0.2-14.2-0.1-21.1,1.9
				c-1.5,0.4-3,0.7-4.4,1.2c-0.3,0.1-0.7,0.2-1,0.3c-0.2,0.1-0.4,0.2-0.6,0.2c-0.2,0.1-0.4,0.1-0.5,0.2c-0.2,0.1-0.3,0.2-0.5,0.2
				c-0.5,0.3-1,0.5-1.5,0.9l0,0h0c-0.3-0.2-0.6-0.2-0.9-0.1c-2.9,0.7-5.8,1.6-8.6,2.7c-2,0.8-3.6,2.3-5.4,3.3
				c-2.8,1.5-5.4,3.2-8.2,4.8c-3,1.8-5.8,3.8-8.4,6.1c-4.2,3.4-8.2,6.9-12,10.7c-3.1,2.9-5.9,6-8.6,9.3c-3.8,5.1-7.2,10.4-10.2,16.1
				c-2.9,5.3-5.3,10.8-7.3,16.4c-1.3,3.9-2.1,7.9-3.2,11.8c-0.4,2.1-0.6,4.2-0.6,6.3c-0.4,4.2-0.4,8.4-0.2,12.7
				c0.5,5.4,2,10.6,4.5,15.4c0.6,1.3,1.4,2.5,2.3,3.6c1.6,1.5,3,3.1,4.7,4.5c3.5,2.8,7,5.4,11.3,6.6c0.9,0.2,1.7,0.5,2.5,1
				c1.4,0.8,3,1.3,4.7,1.2c1.6,0,3.2,0.2,4.6,0.9c0.4,0.2,0.9,0.3,1.3,0.3c3.2,0.2,6.5-0.1,9.5-1.1c5.8-1.5,11.3-3.9,16.3-7.1
				c2.9-1.7,5.5-3.9,7.6-6.4c3.4-4.2,6.1-9,7.9-14.1c0.7-1.8,1.2-3.6,2-5.3c1.6-3.5,3-7,4.1-10.7c1.2-3.4,2.5-6.7,3.6-10
				c1.2-2.9,2.6-5.8,4.2-8.5c1-2,2.1-3.9,3.2-5.9c1.2-1.3,2.5-2.5,3.9-3.5c0.5-0.3,1-0.6,1.6-0.8c1.7-0.6,3.5-0.7,5.2-1.3
				c0.6,0.3,1.3,0.5,2,0.7c0.8,0.3,1.7,0.6,2.5,0.9c1.2,0.4,2.3,0.9,3.4,1.6c0.1,0,0.3,0.1,0.4,0.1c0,0,0.1,0,0.1,0.1
				c3.5,3.1,6.1,6.8,6.4,11.7c-0.5,0.3-0.4,0.8-0.4,1.2c-0.1,1.9-0.6,3.8-0.8,5.7c-0.5,2.9-1.3,5.8-2.3,8.6
				c-0.7,2.9-1.7,5.7-2.9,8.5c-2.2,4.5-3.7,9.3-6.7,13.4c-1.2,1.6-1.4,3.6-2.4,5.3c-1.7,2.8-3.1,5.9-4,9c-1,3.8-2,7.6-1.2,11.7
				c0.7,3.3,0.7,6.7,1.4,10c0.3,1.9,0.8,3.7,1.4,5.5c0.8,2.1,1.6,4.5,3.6,6.2c1.4,1.2,2,3.1,3.1,4.6c2.2,3,5,5.5,8.1,7.4
				c2.5,1.3,5.2,2.3,8,3c2.3,0.5,4.5,1.3,6.6,2.3c1.3,0.5,2.6,0.8,4,0.7c3.7,0.2,7.3-0.8,10.9-1.3c2.9-0.3,5.7-1.1,8.4-2.3
				c2.1-1,3.6-2.8,5.6-4c0.9-0.4,1.9-0.8,2.7-1.4c2-1.6,3.4-3.7,5.3-5.5c3.5-3.4,5.9-7.6,8.9-11.4c3.7-4.8,5.8-10.4,8-15.9
				C142.5-150.4,144.7-156.6,146.7-162.8"/>
		</g>
	</g>
</g>
</svg>
