<?xml version="1.0" encoding="utf-8"?>
<!-- Generator: Adobe Illustrator 28.3.0, SVG Export Plug-In . SVG Version: 6.00 Build 0)  -->
<svg version="1.1" id="Layer_1" xmlns="http://www.w3.org/2000/svg" xmlns:xlink="http://www.w3.org/1999/xlink" x="0px" y="0px"
	 viewBox="0 0 200 200" style="enable-background:new 0 0 200 200;" xml:space="preserve">
<style type="text/css">
	.st0{clip-path:url(#SVGID_00000115476023162510926260000012666915693563329197_);}
	.st1{fill:#F6921E;}
</style>
<g id="Group_408" transform="translate(6.35 219.305)">
	<g>
		<defs>
			<rect id="SVGID_1_" x="-5.3" y="-210.9" width="198" height="182.6"/>
		</defs>
		<clipPath id="SVGID_00000170977020943765005350000002118807265099338136_">
			<use xlink:href="#SVGID_1_"  style="overflow:visible;"/>
		</clipPath>
		
			<g id="Group_407" transform="translate(0 0)" style="clip-path:url(#SVGID_00000170977020943765005350000002118807265099338136_);">
			<path id="Path_2246" class="st1" d="M192.6-117.3c0.1-2.7-0.1-5.4-0.6-8c-0.3-1,0.2-2.1-0.4-3.1c0.2-1.1-0.5-2.1-0.5-3.3
				c0-0.2,0-0.3,0-0.5c0-0.8-0.1-1.5-0.3-2.2c0.1-0.2,0-0.4-0.2-0.5c0-0.2-0.1-0.3-0.1-0.5c0.1-0.4,0.2-0.9-0.2-1.3
				c-0.2-0.4-0.3-0.9-0.5-1.4c-0.2-1.7-0.7-3.3-1.3-4.9c0.1-0.3,0-0.6-0.2-0.8c-0.1-0.3-0.2-0.7-0.3-1c0-0.8-0.3-1.6-0.7-2.3
				c0.1-0.4,0-0.7-0.2-1c-0.4-1-0.4-2.2-1.4-2.9c0-0.6-0.1-1.3-0.4-1.9c0-0.7-0.3-1.3-0.9-1.7c-0.2-0.7-0.4-1.5-0.8-2.1
				c-1-3-3-5.4-4.5-8.1c0-0.3-0.2-0.6-0.4-0.8c-0.1-0.4-0.1-0.8-0.6-1l-0.2-0.3c0-0.4-0.2-0.5-0.5-0.6c0-0.4-0.2-0.7-0.5-0.9
				c0-0.3-0.2-0.5-0.5-0.6c-0.1-0.6-0.7-1-1-1.4c-1.2-2.1-2.7-4-4.6-5.6c-0.2-0.3-0.3-0.6-0.5-1c-0.4-0.6-1-1.1-1.7-1.4
				c0.1-0.6-0.3-1.2-0.8-1.4c-0.1-0.4-0.4-0.6-0.8-0.8l-0.5-0.5c-0.6-0.9-1.4-1.6-2.3-2.1c-0.4-1.1-1.5-1.5-2.2-2.2
				c-0.3-0.4-0.8-0.7-1.3-0.9c-0.2-0.2-0.4-0.3-0.5-0.5c-1.5-1.4-3.1-2.8-4.8-4c-0.1-0.3-0.4-0.5-0.7-0.5c-0.2-0.5-0.6-0.6-1.1-0.8
				c-0.6-0.9-1.7-1.1-2.5-1.7c-0.1-0.3-0.4-0.6-0.8-0.5c-0.4-0.2-0.7-0.4-1.1-0.5c-0.1,0-0.3,0-0.4,0c0.1,0,0.3,0,0.4,0
				c-0.2-0.5-0.7-0.7-1.2-0.7l-0.6-0.3c-0.3-0.7-1-0.8-1.6-1l0,0c-0.6-0.7-1.4-1.2-2.3-1.3c-0.3-0.5-0.8-0.7-1.4-0.7
				c-0.7-0.8-1.7-1.3-2.7-1.6c-0.9-0.2-1.7-0.5-2.5-1.1c-2.1-1.9-4.8-2.1-7.3-2.9c-0.7-0.4-1.5-0.6-2.4-0.6l-0.9-0.3
				c-1.5-0.9-3.2-1.4-4.9-1.5c0,0-0.1,0-0.1,0c0,0,0,0,0,0c-0.2-0.5-0.7-0.7-1.2-0.7l-0.5-0.1c-0.5-0.4-1.2-0.6-1.8-0.4l-0.5-0.1
				c-0.1-0.2-0.3-0.3-0.5-0.2c-0.5-0.1-0.9-0.2-1.4-0.3c-0.9-0.9-2.2-0.4-3.2-0.9l-6.3-0.7c-0.4-0.2-0.8-0.3-1.2-0.2
				c-1-0.1-2-0.3-3.1-0.4c-1.3-0.1-2.5-0.7-3.8-0.1l-0.7,0l-1.3-0.2c-0.6-0.1-1.2-0.1-1.7,0c-0.2,0.6-0.6,0.6-1,0.5
				c0.4,0,0.9,0,1-0.5c-1-0.1-1.9,0-2.9,0.1c-2.3,0-4.6-0.2-6.9-0.2c-0.5-0.1-0.9,0.1-1.3,0.4c-0.4,0.4,0.4,0.7,0.2,1.1
				c-2-0.4-2.8-0.2-3,1c-0.1,0.7-0.3,0.9-0.9,0.6c-0.6-0.3-1.1,0.2-1.4,0.6c-0.4,0.4,0.3,0.6,0.4,0.9c0.2,0.6,0.7,1.3,0.3,1.9
				c-0.4,0.7-1.2,1-1.9,0.8c-1.3-0.2-2.6-0.4-4-0.5c-0.3,0-0.7-0.2-0.6-0.5c0.1-1.2-0.9-1.3-1.6-1.7c-1.5-0.3-3,0-4.3,0.7
				c-0.9,0.1-1.9-0.1-2.5,0.8l-0.5,0.1c-0.4-0.1-0.7-0.1-1,0.2h-2.2c0-0.4-0.2-0.5-0.6-0.5c-0.8,0.1-1.5,0-1.5-1.1
				c0-0.3-0.3-0.3-0.6-0.3c-1.4,0.1-2.7,0.5-3.9,1.1c-0.4,0.2-0.9,0.4-1.4,0.6c-2,0.6-4,1.3-6.1,1.8c-1.1,0.3-1.8,1.2-2.8,1.3
				c-2.8,0.5-4.7,2.6-7.2,3.6c-1.1,0.4-2.1,1-3.1,1.8c-1.1,0.9-2.7,1.5-3,3.2c0,0.5-0.4,0.9-0.9,0.9c-0.1,0-0.2,0-0.3,0
				c-0.7-0.3-1.1,0.1-1.7,0.5c-0.8,0.6-1.2,1.8-2,1.9c-1.4,0.2-1.8,1.1-2.1,2.2c-0.1,0.2-0.1,0.3-0.4,0.3c-0.9-0.2-1.8,0.3-2.1,1.3
				c0,0.1,0,0.2,0,0.3c-0.4,1.7-1.6,3.2-3.2,3.9c-0.1,0.1-0.3,0.1-0.5,0.1c-0.8-0.3-1-0.1-0.8,0.7c0.1,0.4,0.3,0.8,0,1.2
				c-1,1.3-2.6,2.1-2.8,4c0,0.1-0.1,0.1-0.2,0.2c-1,0.6-1.6,1.6-1.7,2.7c0,0.4-0.3,0.7-0.7,0.8c-0.3,0-0.6-0.2-0.7-0.4
				c-0.6-0.9-1-0.9-1.5,0.1c-0.6,1.1-1,2.2-1.6,3.2c-0.3,0.5-0.5,1.1-0.3,1.6c0.3,0.9-0.4,2.1-1,2.1c-1.3,0-1.3,0.3-1.2,1.7
				c0.1,0.6,0.4,1.4-0.2,2c-0.7,0.6-1,1.6-0.9,2.5c-0.8,0.5-1.5,1.1-2.3,1.6c-0.1,0.2-0.3,0.3-0.3,0.5c-1.3,3.2-2.3,6.4-3.1,9.8
				c-0.8,3.2-1.4,6.4-1.9,9.7c-0.7,4.4-0.9,8.8-1.1,13.2c0,4.6,0.3,9.3,0.9,13.9c0.5,5.2,1.6,10.3,3.1,15.3c0.1,0.9,0.3,1.8,0.6,2.7
				c1.3,2.4,1.5,5.2,3.2,7.3c0.5,0.9,0.9,1.8,1.2,2.8c0.5,1.2,1.2,2.4,1.8,3.6c0.2,0.3,0.4,0.4,0.8,0.4c0.6,0,1.6,0.1,1.5,0.9
				c-0.2,0.7,0.2,1.5,0.8,1.9c0.3,0.2,0.4,0.6,0.3,1c-0.4,1.2,0.3,2.1,0.6,3.1c0.2,0.5,0.6,0.7,0.9,0.2c0.2-0.4,0.6-0.6,1-0.4
				c0,0,0,0,0,0c0.5,0.1,0.8,0.6,0.8,1c0,0.8,0.5,1.5,1.2,1.7c1.1,0.5,1.7,1.8,1.2,3c-0.1,0.1-0.1,0.2-0.2,0.3
				c-0.3,0.5-0.1,0.8,0.2,1.1c0.2,0.2,0.6,0.5,0.8,0.1c0.4-0.9,0.7-0.2,1,0.1c1.6,1.2,1.9,3.3,3.5,4.4c0.2,0.2,0.2,0.3,0.1,0.5
				c-0.4,1.1,0.3,1.5,1.1,1.7c0.5,0.1,1.4-0.4,1,0.8c-0.1,0.2,0.2,0.2,0.4,0.2c0.7,0,1.4-0.1,1.9,0.4c0.4,0.5,0.3,1.2,0.3,1.9
				c0.5-0.2,1.1-0.9,1.1,0.3c0.2,1.3,1.2,2.4,2.5,2.8c0.9,0.1,1.6,0.1,1.7,1.3c0.1,1,1.8-0.2,2,1.2c0,0,0,0.1,0,0.1
				c0.7,0.7,1,1.8,2,2.1c0.9,0.3,1.7,0.8,2.4,1.4c0.9,0.7,2.1,0.9,3.1,1.6c1,0.7,2.2,1.3,3.1,2c1.3,1,2.6,1.8,4,2.6
				c1.2,0.5,2.4,1,3.6,1.4c0.3,0.2,0.7,0.2,1.1,0.1c0,0,0.1,0.1,0.2,0.1c0.1,0.1,0.1,0.4,0.3,0.4c1.6,0.9,3.3,1.6,5.1,2.1
				c1.7,0.3,3.1,1.5,4.8,1.5c0.6-0.1,1,0.7,1.6,0.5c0.2,0.4,0.6,0.7,1,0.7c2.3,0.3,4.5,1.2,6.8,1.7c1.5,0.4,3.1,0.7,4.6,0.9
				c1.6,0.3,3.2,0.4,4.8,0.8c0.7,0.1,1.4-0.1,2.1,0c1.7,0.4,3.4,0.7,5.1,0.6c0.6-0.2,1.3-0.2,2-0.2c2.7,0.3,5.4,0.4,8.2,0.2
				c0.2,0,0.5-0.1,0.7-0.1c3.3,0.4,6.5-0.3,9.8-0.1c0.4,0,0.8-0.2,1.1-0.5l0.5,0c0.1,0,0.2,0,0.3,0c0.9,0.2,1.8-0.3,2.8-0.2
				c1.5-0.1,3-0.4,4.6-0.7c1.1-0.4,2.3-0.6,3.5-0.7c1.3,0,2.6-0.3,3.8-0.8c2.3-0.2,4.6-0.9,6.6-2c0.9-0.4,1.8-0.1,2.6-0.7
				c1.1-0.6,2.3-1,3.5-1.2c1.8-0.4,3.4-1.2,4.8-2.3c0.4-0.3,0.9-0.5,1.5-0.6c1.8-0.3,2.9-1.8,4.4-2.5l0.4,0c1-0.2,1.6-1.1,2.6-1.4
				c1.9-0.6,3.6-1.7,4.9-3.3c0.8-0.6,2.1-0.3,2.4-1.5c0.4,0,0.7-0.2,0.8-0.5l1-1c0.7-0.3,1.5-0.4,1.8-1.2c0.6,0,1.2-0.4,1.4-0.9
				c0.3-0.1,0.5-0.4,0.6-0.8c0.4-0.4,0.9-0.7,1.3-1.1c2-1.4,3.6-3.1,4.9-5.1c0.3-0.1,0.5-0.3,0.5-0.6l0.2-0.2c0.3,0,0.6-0.3,0.7-0.6
				c0.1-0.1,0.2-0.3,0.4-0.4c0.9-0.7,1.7-1.5,2.2-2.6c0.9-1.3,2.4-2.2,3-3.8c0.4-0.5,0.8-1.1,1-1.8l1-1.6c0.3-0.1,0.5-0.3,0.5-0.6
				c0.3-0.5,0.6-1,0.9-1.5c1.2-1.9,2.3-3.9,3.2-6c0.5-0.3,0.7-0.8,0.8-1.3c0.5-1,0.9-2.1,1.2-3.2c0.8-0.9,0.7-2.1,1.3-3.1
				c0.3-0.6,0.1-1.3,0.5-1.9c1-2,1.7-4.2,2.2-6.4c0.1-0.5,0.1-1,0.1-1.5c-0.1-1.3,0.9-2.4,0.7-3.7c0.9-0.7,0.3-1.8,0.7-2.6
				c0-0.5,0.1-1,0.1-1.5c0.2-0.1,0.3-0.3,0.2-0.5l0.1-0.5c0,0,0,0-0.1,0c0,0,0,0,0.1,0c0.4-1.9,0.6-3.8,0.7-5.7
				C192.2-112,192.8-114.6,192.6-117.3 M5.3-105.2c0-0.2-0.1-0.4-0.4-0.4C5.2-105.6,5.3-105.4,5.3-105.2 M10.5-165.6L10.5-165.6
				c0,0,0.1,0,0.1,0.1C10.6-165.6,10.6-165.6,10.5-165.6 M12.4-165.6c0.1,0,0.1,0.1,0.2,0.2C12.5-165.5,12.5-165.5,12.4-165.6
				 M14.2-137.8L14.2-137.8c0.1,0,0.2-0.1,0.3-0.1C14.4-137.8,14.3-137.8,14.2-137.8 M14.6-158.6c0.2-0.2,0.1-0.5,0.1-0.7
				c0.1-0.7-0.3-1.3-1-1.6c0.6,0.3,1,0.9,1,1.6C14.7-159.1,14.8-158.8,14.6-158.6 M152-176c-0.2-0.3-0.5-0.6-0.8-0.8
				C151.5-176.6,151.8-176.3,152-176 M82-201.8c0.1,0,0.2,0,0.3-0.1C82.2-201.9,82.1-201.8,82-201.8c-0.1,0-0.2-0.1-0.2-0.3
				c0,0,0,0,0,0C81.8-202,81.9-201.9,82-201.8C82-201.8,82-201.8,82-201.8 M61.4-195.6c0.2,0,0.3,0.1,0.4,0.2c0,0,0,0,0,0
				C61.8-195.6,61.6-195.7,61.4-195.6C61.4-195.6,61.4-195.6,61.4-195.6 M49.7-194.1L49.7-194.1c0,0.1-0.1,0.1-0.1,0.2
				C49.6-193.9,49.7-194,49.7-194.1 M49.1-175.4c-0.5-0.8-1.4-1.2-2.3-1.1C47.7-176.6,48.6-176.2,49.1-175.4 M37.6-161.8
				c-0.3-0.1-0.7-0.1-1-0.1C37-161.9,37.3-161.9,37.6-161.8 M26.3-162.7L26.3-162.7c0-0.1,0-0.1,0-0.2
				C26.3-162.8,26.3-162.8,26.3-162.7 M33.9-89.4c0-0.2,0.2-0.4,0.4-0.5C34-89.8,33.9-89.6,33.9-89.4 M38.5-82.2
				c-0.1,0.8,0.1,1.7,0.6,2.3C38.6-80.5,38.4-81.4,38.5-82.2 M56.9-59.3c0-0.1,0.1-0.1,0.1-0.2C57-59.4,56.9-59.4,56.9-59.3
				 M57.3-57.1L57.3-57.1c0.1,0,0.2,0,0.3-0.1C57.5-57.1,57.4-57.1,57.3-57.1 M81.9-40c0,0.1-0.1,0.3-0.1,0.4
				C81.9-39.7,81.9-39.9,81.9-40c0.1-0.2,0.1-0.3,0-0.5C82-40.3,82-40.2,81.9-40 M159.8-103.3c-0.9,4.5-2.2,8.9-4,13.1
				c-0.5,1.3-1.9,2.3-1.1,4.1c0.2,0.6,0,1.3-0.5,1.7c-0.8,0.5-0.3,1.9-1.5,2c0,0.1-0.1,0.2,0,0.3c0.1,1.2-0.4,2.4-1.3,3.2
				c-0.4,0.3-0.8,0.8-1,1.2c-0.3,0.7-0.7,1-1.2,0.2c-0.2-0.3-0.4-0.3-0.6-0.1c-0.5,0.8-1.4,1.5-1,2.7c0.2,0.6-0.1,1.2-0.5,1.6
				c-1.1,1.1-2.1,2.2-3.1,3.4c-0.3,0.4-0.8,1.2-1.4,1c-0.5-0.1-1.1,0.1-1.3,0.7c-0.6,0.7-1.2,1.4-1.9,2c-0.6,0.6-1.2,1.2-1.8,1.8
				c-0.9,1.1-1.5,2.4-3.1,2.5c-0.2,0-0.5,0.1-0.7,0.2c-2.8,1.7-5.3,3.7-8,5.5c-1.8,1.3-3.8,2.4-5.9,3.2c-3.4,1.4-6.8,2.5-10.3,3.5
				c-0.8,0.4-1.7,0.6-2.6,0.8c-2.1,0.2-4.2,0.4-6.4,0.6h-0.5c-0.7,0.5-1.4,0.7-2.3,0.7c0.8,0,1.6-0.2,2.3-0.7
				c-1.5-0.2-3,0.3-4.6,0.2c-0.5-0.1-0.9,0.1-1.4,0.2c-0.1-0.3-0.4-0.5-0.8-0.5c-2.3,0.1-4.6-0.8-6.9-0.5c-0.1,0-0.2,0-0.4,0
				c-0.6-1-1.5-0.7-2.4-0.7c-0.1,0-0.2,0-0.4,0l0,0c-0.7-1.2-1.9-0.6-2.9-0.7l-0.1,0l-0.1,0c-0.8-0.9-1.9-1.5-3-1.8
				c-1.7-0.4-3.5-0.4-4.9-1.5c-1.4-1-3-1.7-4.7-2c-0.2-0.4-0.5-0.7-0.9-0.8l0,0c-0.1-0.3-0.3-0.5-0.6-0.5c-0.7-0.1-1.4-0.5-1.9-1.1
				l0,0c0-0.3-0.3-0.5-0.5-0.5c0,0,0,0-0.1,0c-2.7-1.7-5.4-3.6-7.8-5.7c-2.2-1.7-4.3-3.6-6.2-5.6c-1.4-1.4-2.7-3-4-4.6
				c-0.3-0.5-0.7-0.9-1.2-1.1c-2-2.4-3.8-5-5.6-7.6l0,0c-0.2-0.5-0.3-1.2-1-1.4c-0.1-0.8-1-1.1-1.1-2c-0.1,0-0.2,0-0.3,0
				c0.1,0,0.2,0,0.3,0c-0.2-0.8-0.6-1.4-1.2-1.9c-0.2-0.7-0.5-1.4-1-1.9c-0.6-1.3-1.2-2.5-1.7-3.8c-0.3-0.8-0.3-1.9-1.2-2.3
				c0-0.2-0.1-0.4-0.1-0.6c0-0.2-0.1-0.4-0.2-0.5c0-0.5-0.2-1.1-0.5-1.5c-0.1-0.5-0.3-1.1-0.5-1.5c0-0.2-0.1-0.3-0.1-0.5
				c-0.3-0.1-0.5-0.2-0.4-0.3c-0.1,0.2,0.1,0.3,0.4,0.3c0.1-0.2,0-0.4-0.2-0.5c0-0.7-0.7-1.1-0.7-1.8c-0.2,0.2-0.4,0.3-0.6,0.4
				c0.2-0.1,0.4-0.2,0.6-0.4c0-0.6-0.2-1.2-0.5-1.8c-0.2-0.7-0.4-1.5-0.6-2.2c0.1-0.4,0.1-0.7-0.3-0.8c-0.1-0.9-0.3-1.8-0.4-2.7
				c-0.4,0-0.8-0.1-1.2-0.3c0.3,0.2,0.7,0.3,1.2,0.3c0-0.7-0.1-1.3-0.2-2c-0.5-1.5-0.4-3.1-0.7-4.6c0-0.7-0.1-1.5-0.1-2.2
				c-0.6-0.2-0.7-0.3-0.5-1c-0.2,0.6-0.1,0.7,0.5,1c0.2-0.6,0.2-1.3-0.1-1.8c0-0.2,0-0.5,0-0.7c0-1.4,0-2.9,0-4.3c0-0.3,0-0.5,0-0.8
				c0.3-1,0.3-2,0.2-3c-0.3-1.5,0.6-2.8,0.5-4.3c-0.2,0-0.3-0.1-0.4-0.2c0.1,0.1,0.3,0.2,0.4,0.2c0.4-1.1,0.6-2.3,0.7-3.5
				c0.2-0.5,0.3-1,0.3-1.5l0,0c0.2-0.1,0.3-0.3,0.2-0.5c0.2-1.2,0.5-2.5,0.8-3.7c1.1-1,1.1-2.4,1.5-3.6c0,0,0.1-0.1,0-0.2
				c0.3-0.1,0.5-0.5,0.5-0.8c0-0.2,0-0.4,0-0.6l0,0c0.9-1.2,1.5-2.6,1.7-4.1l0,0c0.6-0.1,0.6-0.6,0.8-1l1.2-2.6
				c0.2-0.2,0.4-0.5,0.5-0.7l-0.1,0l0.1,0c0.2-0.2,0.3-0.5,0.3-0.8c0-0.1,0-0.1,0-0.2c0.1-0.1,0.1-0.1,0.2-0.2
				c0-0.1-0.1-0.2-0.1-0.3c0,0.1,0.1,0.2,0.1,0.3c0.8-0.5,1.4-1.4,1.6-2.4c0.4-0.2,0.8-0.4,0.7-1c0.3-0.5,0.6-1,1-1.5
				c0.7-0.4,1-1.2,1.5-1.7c0.7-0.4,0.8-1.2,1.1-1.8c0.5,0.1,0.9-0.3,1-0.7c0-0.1,0-0.1,0-0.2c1-1.8,3-2.8,4-4.6l0.2-0.2
				c0.4-0.3,0.8-0.6,1-1.1c0.6-0.4,1.1-0.8,1.6-1.4l0,0c0.6-0.3,1.3-0.6,1.5-1.4c0.5-0.4,1.1-0.7,1.3-1.4l0,0
				c0.7-0.1,1.3-0.5,1.7-1.1c0.6-0.4,1.2-0.9,1.6-1.5c0.3,0.1,0.5,0,0.6-0.3c1.1-0.9,2.6-1.2,3.4-2.5c1.1-0.4,2.1-1,3.1-1.6
				c1-0.3,1.9-0.7,2.8-1.3c1.5-0.9,3.1-1.7,4.9-2.2c0.2-0.1,0.6,0,0.7-0.2c1.8-1.8,4.4-2,6.4-3.3c0.3-0.2,0.6-0.4,0.9-0.6
				c0.4-0.4,1-0.7,0.8-1.4s-0.9-0.5-1.4-0.6c0.1-0.6,0.7-0.9,0.8-1.5c0.1-0.4,0.5-0.6,0.8,0c0.2,0.4,0.4,0.7,0.5,1.1
				c0.1,0.8,0.8,1.3,1.6,1.2c0,0,0.1,0,0.1,0c0.5-0.1,1,0,1.4,0.4c1,1.1,2.3,0.8,3.6,1l1,0c2.4-0.4,4.7,0.4,7,0.3
				c0.5,0.3,1.1,0.4,1.7,0.3c2.7,0.3,5.3,0.9,7.9,1.9c0.5,0.2,1.1,0.3,1.7,0.3c0.3,0.4,0.8,0.2,1.2,0.3c0.2,0.3,0.5,0.2,0.8,0.3
				c2.1,0.6,4.2,1.5,6.1,2.6c1.2,0.6,2.5,1.1,3.7,1.8c1.2,0.5,2.3,1.1,3.4,1.8c1.3,0.7,2.5,1.5,3.6,2.4c2,1.7,4.4,3.1,6.5,4.7
				c0.7,0.7,1.6,1,2.6,1c1.2-0.1,1.7,0.6,1.5,1.9c-0.1,0.5,0.4,0.7,0.7,1c0.1,0.1,0.3,0.1,0.4,0c0,0,0,0,0-0.1
				c0.5-0.7,1.1-0.7,1.4,0c0.7,1,1.4,2,2.3,2.9c0.5,0.8,1.4,1.5,1.5,2.4c0.1,0.7,0.4,1,0.8,1c2.2,0,2.1,2,3.2,3.2
				c-0.7,0.2-0.7-0.6-1.1-0.5c0.3,1.2,0.3,1.3,1.4,1.2c0.2,0,0.4,0.1,0.6,0.2c1.1,0.7,1.9,1.7,2.4,2.9c0.1,0.3,0.1,0.6,0.5,0.8
				c0.8,0.8,1.2,1.9,1.1,2.9c-0.3,1.4,0.5,2.3,1.4,3.2c0.8,0.8,0.5-0.3,0.8-0.4c0.2-0.1,0.3,0,0.4,0.1c0,0,0,0,0,0
				c0.3,0.3,0.5,0.7,0.6,1.1c0.1,1.2,1.1,2.2,0.5,3.5c-0.1,0.2,0,0.4,0.1,0.6c1.3,2.6,2.4,5.3,3.4,8.1c1.3,3.3,2.3,6.6,2.9,10.1
				c0.5,2.4,0.8,4.9,0.9,7.3c0.3,3.8,0.3,7.5-0.2,11.3C160.7-107.4,160.1-105.4,159.8-103.3 M161.2-107.7c0.2-1.5,0.3-3,0.3-4.6
				C161.5-110.7,161.4-109.2,161.2-107.7c0,0.3,0,0.7,0.3,0.9C161.2-107,161.2-107.4,161.2-107.7 M163.8-166.2
				c0-0.1,0.1-0.2,0.2-0.2C163.9-166.4,163.8-166.3,163.8-166.2 M165.5-139.7c-0.2,0-0.4-0.1-0.5-0.1
				C165.1-139.8,165.3-139.8,165.5-139.7L165.5-139.7z"/>
			<path id="Path_2247" class="st1" d="M141.4-131.7c0-0.7-0.1-1.3-0.4-1.9c-0.8-1.8-1.3-3.8-2-5.6c-0.5-1.3-0.6-2.8-1.8-3.7
				c-0.7-0.7-0.6-1.7-1.4-2.3c0-0.3-0.2-0.5-0.5-0.6c-0.3-0.6-0.5-1.1-0.8-1.7c0-0.3-0.2-0.5-0.5-0.5l0,0c-1-1.7-2.2-3.2-3.7-4.5
				c-2.4-2.4-5.3-4.3-8.4-5.7c-0.2-0.6-0.8-0.6-1.3-0.8c-1-0.9-2.2-1.5-3.5-1.7c-0.1-0.2-0.3-0.3-0.5-0.3c-1.2-0.3-2.3-1.1-3.5-1.3
				c-1.5-1-3.3-1.7-5.1-2c-0.9-0.2-1.7-0.5-2.6-0.7l-0.7-0.1c-0.2-0.2-0.5-0.3-0.8-0.2c-0.2,0-0.3,0-0.5,0c-1.4,0-2.7-0.7-4.1,0
				c-0.4,0-0.8-0.4-1.2-0.2c-0.6-0.5-1.2,0-1.8,0l-0.7,0c-0.8-0.2-1.6-0.1-2.3,0.2c-0.5,0-1,0-1.5,0c0,0.4-0.2,0.6-0.4,0.6
				c0.3,0,0.4-0.3,0.4-0.6c-1.3-0.3-2.7,0-4-0.5c-0.3-0.1-0.6,0-0.6,0.4c0,0.2,0.3,0.5,0,0.7s-0.5-0.2-0.7-0.4
				c-0.4-0.5-1-0.8-1.7-0.7c-2.6,0.1-5.2,0.8-7.4,2.1c-0.9,0.7-1.4,1.8-1.3,2.9c0.1,1.1-0.5,2-1.5,2.5c-1.2,0.4-2.5,0.3-3.7,0.9
				c-0.8,0.4-1.3-0.1-1.8-0.6c-0.4-0.4,0-1.4-0.7-1.3c-0.5,0-1,0.6-1.5,0.8c-0.3,0.1-0.6,0.4-0.7,0.7c-0.2,0.3-0.5,0.5-0.6,0
				c-0.2-0.9-0.7-0.6-1.1-0.2c-0.6,0.5-1.2,1-1.8,1.6c-0.9,0.9-1.8,2-2.9,2.3c-1.3,0.4-2.4,1.2-3,2.4c-0.7,0.9-2.4,1.5-1.7,3.3
				c0.1,0.1-0.3,0.5-0.5,0.7c-0.5,0.5-1,0.9-1.6,1.1c-0.3,0.1-0.7,0.3-0.4,0.6c0.5,0.6,0,1-0.2,1.3c-1.8,3-3.2,6.1-4.3,9.4
				c-0.1,0.3-0.2,0.6,0.1,0.8c0.3,0.2,0.6-0.1,0.7-0.3c0.4-0.8,1.6-1,1.6-2.2c0-0.2,0.2-0.4,0.5-0.4c0,0,0.1,0,0.1,0
				c0.4,0.1,0.2,0.5,0.1,0.7c-0.1,0.4-0.6,0.7-0.6,1.2c0.2,1.6-0.9,2.8-1.3,4.2c-0.4,1.4-0.4,2.9-0.8,4.3c-0.1,0.9-0.1,1.8,0,2.7
				c-0.1,0.5,0,1.2-0.6,1.6c-0.2,0.1-0.5,0-0.7-0.2c-0.5-0.5-0.2-1.2-0.2-1.8c0-0.1,0-0.2,0.1-0.2c1-0.8,0.3-1.2-0.4-1.7
				c-0.9-0.6-1.3-0.5-1.6,0.5c-0.3,1.3-0.4,2.7-0.2,4c0,3.8,0.3,7.6,0.9,11.4c0.1,0.9,0.5,1.8,1.1,2.5c0.4,0.4,0.6,1,0.5,1.6
				c-0.1,0.7,0.1,1.4,0.6,1.9c1,1.2,1.9,2.4,2.7,3.7c0.5,0.5,1.5,1.3,0.7,2.4c-0.2,0.2,0.2,0.3,0.4,0.3c0.7,0.3,2,2.8,1.5,3.2
				c-0.9,0.9,0,1.1,0.4,1.6c0,0.5,0.2,0.9,0.8,0.9c1.1-0.3,2.3,0.4,2.6,1.6c0.1,0.3,0.1,0.6,0,1c0,0.9,0.7,1.7,1.5,1.8
				c1.3-0.2,2.6,0.6,3,1.9c0.2,0.4,0.6,0.8,1.1,1c1.3,0.6,2.5,1.2,3.7,1.9c1.5,1.3,3.4,2.2,5.3,2.6c2.2,0.3,4,1.7,6.1,2.4
				c0.7,0.3,1.5,0.5,2.3,0.4c1.4-0.3,2.8-0.2,4.2,0.2c1.4,0.4,2.8,0.5,4.3,0.3c2.5-0.3,5-0.3,7.5-0.2c2.9,0.3,5.9,0.1,8.8-0.5
				c1.9-0.5,4.1,0,5.9-1.4c0.2-0.1,0.4-0.1,0.6-0.1c1.6,0.1,2.8-1,4.1-1.6c1.2-0.6,2-1.9,3.7-1.7c0.5,0,0.9-0.2,1.2-0.6
				c2.3-2,5-3.5,7.3-5.5c2.1-1.6,4.1-3.5,5.7-5.6c1.5-2.2,2.8-4.5,4-6.9c0.9-1.9,1.6-3.8,2.1-5.9c0.5-1.2,1-2.5,1.2-3.8
				c0.1-2.2,0.9-4.3,1-6.6c0.3-2.4,0.3-4.7,0.2-7.1C141.8-127.1,141.5-129.4,141.4-131.7 M63.9-142c-0.3,0-0.7,0-1,0
				C63.3-142,63.6-142,63.9-142c0.1,0,0.2,0,0.4,0C64.2-142,64-142,63.9-142 M72.8-136.2c0-0.1,0-0.1-0.1-0.2
				C72.8-136.3,72.8-136.2,72.8-136.2 M76.5-95.4c-0.1,0-0.2,0-0.3,0.1C76.3-95.4,76.4-95.4,76.5-95.4L76.5-95.4z M76.5-95.4
				L76.5-95.4c0-0.1,0-0.2,0-0.3C76.5-95.6,76.5-95.5,76.5-95.4 M87.2-96.7c0.1-0.1,0.2-0.1,0.2-0.2C87.4-96.8,87.3-96.7,87.2-96.7
				 M110.6-117.9c0.2,0.9,0,1.8-0.6,2.6c-0.5,0.6-0.8,1.3-0.9,2c0.1,1-0.3,1.9-0.2,2.9c-0.2,0.5-0.3,1-0.5,1.5
				c-1.1,0.3-1.9,1.3-1.8,2.5c0,0.4,0.1,1-0.5,0.9c-1.6-0.2-1.9,1.1-2.1,2c-0.2,0.9-1,1.6-1.9,1.6c-1.2,0-2.4,0.6-2.9,1.7
				c-0.5,1-1.5,1.6-2.6,1.7c-0.3,0-0.6,0.2-0.8,0.3c-2,1.4-4,0.5-5.9-0.2c-2.5-1-4.3-3.1-6-5c-2.3-2.5-4.1-5.4-5.3-8.5
				c-0.2-0.4-0.2-1-0.8-1.2v0c-0.2,0-0.3-0.1-0.4-0.3c0.1,0.1,0.3,0.2,0.4,0.3c-0.1-0.5-0.1-1.1-0.7-1.4c0-0.2-0.1-0.4-0.1-0.6
				c-0.3,0-0.5-0.4-0.7-0.5c0.3,0.1,0.4,0.5,0.7,0.5c0-0.9-0.4-1.7-0.5-2.6c-0.1-2.7-0.8-5.4-0.4-8.1c0.1-1-0.1-2.1-0.4-3.1
				c-0.3-1.2,1.8-1.2,0.8-2.3c0.2-0.1,0.4-0.3,0.5-0.3c0.8,0.1,1.1-0.4,1.5-0.9c1-1.4,1.9-2.9,2.6-4.5c1.4-1.6,2.8-3.3,4.3-4.8
				c0.9-0.9,2.2-1.4,2.5-2.9c-0.3-0.4-0.4-0.5-0.9-0.4c0.6-0.1,0.6,0,0.9,0.4c0.2-0.1,0.4-0.3,0.6-0.4c1.1-1,2.7-1.4,4.1-1.1
				c1.3,0.3,2.5,0.9,3.7,1.3c1.7,0.5,2.6,2.1,4.2,2.6c0,0,0,0.1,0.1,0.1c0.8,1.1,1.7,2.1,2.7,3c0.2,0.3,0.5,0.4,0.9,0.4
				c0.9,0.1,1.6,0.8,1.5,1.7c0,0.1,0,0.2,0,0.3c-0.3,0.8,0.1,0.9,0.6,0.9c0.4,0,0.6,0,0.9,0.2c1.2,1.1,1.8,2.6,1.9,4.2
				c-0.1,1.2,0.2,2.4,0.7,3.5c0.5,1.7,0.8,3.4,0.9,5.1C110.9-121.2,110.4-119.5,110.6-117.9 M124.7-127.2c-0.1,0-0.1-0.1-0.2-0.1
				C124.6-127.3,124.7-127.2,124.7-127.2 M127.6-124.1L127.6-124.1c0.1,0.1,0.1,0.2,0.2,0.3C127.8-123.9,127.7-124,127.6-124.1
				 M129.6-137.5c0.1,0,0.2,0,0.3,0C129.9-137.5,129.8-137.5,129.6-137.5L129.6-137.5z M129.8-137.3c0.2,0.3,0.4,0.6,0.5,0.9
				C130.2-136.7,130.1-137,129.8-137.3"/>
		</g>
	</g>
</g>
</svg>
