<?xml version="1.0" encoding="utf-8"?>
<!-- Generator: Adobe Illustrator 28.3.0, SVG Export Plug-In . SVG Version: 6.00 Build 0)  -->
<svg version="1.1" id="Layer_1" xmlns="http://www.w3.org/2000/svg" xmlns:xlink="http://www.w3.org/1999/xlink" x="0px" y="0px"
	 viewBox="0 0 200 200" style="enable-background:new 0 0 200 200;" xml:space="preserve">
<style type="text/css">
	.st0{clip-path:url(#SVGID_00000142164850330292001330000003276270945351611803_);}
	.st1{fill:#D91C5C;}
</style>
<g id="Group_404" transform="translate(64.644 77.615)">
	<g>
		<defs>
			<rect id="SVGID_1_" x="-58.6" y="-76.3" width="187" height="196.4"/>
		</defs>
		<clipPath id="SVGID_00000131327290667186262390000002221522863345259673_">
			<use xlink:href="#SVGID_1_"  style="overflow:visible;"/>
		</clipPath>
		<g id="Group_403" transform="translate(0)" style="clip-path:url(#SVGID_00000131327290667186262390000002221522863345259673_);">
			<path id="Path_2244" class="st1" d="M30.2,120.1c2,0,4,0,6-0.1c1.9,0,3.8-0.4,5.7-1l0.3-0.1c0.2,0,0.4,0,0.6-0.2l0,0
				c0.2,0.1,0.5,0,0.7-0.2l0,0l0.2,0c0.1,0,0.3-0.1,0.4-0.1c0.2,0.1,0.5,0,0.7-0.2l0,0c0.1,0,0.2,0,0.3,0c2.3-0.7,4.5-1.6,6.5-2.7
				c0.9-0.5,1.5-1.3,2.3-1.9c3.7-2.7,6.6-6.4,8.3-10.7c0.9-2.2,1.6-4.5,1.9-6.8c0.3-2,0.5-3.9,0.6-5.9c0-2.6-0.4-5.2-1-7.7
				c-0.5-2.6-1.4-5.1-2.5-7.5c-1.2-2.4-2.7-4.6-4.5-6.5c-0.5-0.6-0.7-1.3-1.3-1.8c-0.1-0.1-0.1-0.3,0-0.4c0,0,0,0,0.1-0.1
				c0.4-0.2,0.2-0.4,0-0.7c-0.5-0.7-0.9-1.6-1.1-2.4c0-0.4-0.3-0.5-0.6-0.7c-0.4-0.2-0.9-0.3-1-0.8c-0.3,0.6-0.3,0.6,0.2,1
				c0.2,0.1,0,0.2,0,0.3c-0.2,0.2-0.4,0.1-0.6,0.1c-0.1-0.1-0.2-0.3-0.4-0.4c0.2-0.3-0.4-0.7,0-0.9c0.7-0.5,0-0.7-0.1-1
				c-0.2-0.5-0.4-0.1-0.6,0.1c-0.1,0.1-0.3,0-0.3,0c-0.8,0.1-0.5-0.8-1-1c0.3,0,0.5,0,0.7,0.2c0.2,0.1,0.3,0.4,0.5,0.2
				c0.2-0.2,0-0.4-0.1-0.6c-0.4-0.9-1.2-1.6-2.1-1.9c-0.2-0.1-0.1-0.4-0.4-0.3c-0.3,0.1,0,0.3,0,0.5c0,0.2-0.2,0.2-0.3,0.1
				c-0.2-0.2-0.4-0.4-0.5-0.6c-0.1-0.4-0.4-0.3-0.6,0c-0.5-0.1-0.3-0.6-0.6-0.8c-1.1-0.7-1.7-2-2.8-2.8c-0.1-0.3,0-0.9-0.6-0.7
				c-0.1,0-0.2-0.1-0.3-0.1c0-0.1-0.1-0.1-0.1-0.1c0-0.1,0-0.2,0-0.2c-0.1-0.1-0.2-0.1-0.3-0.2c-0.1,0-0.2,0-0.2-0.1
				c0.1,0,0.2,0.1,0.2,0.1c0.2-0.3,0.2-0.6-0.3-0.6c-0.1,0-0.2-0.1-0.3-0.3c0.2-0.5-0.4-0.8-0.4-1.2c0-0.6-0.2-1.1-0.5-1.5
				c-0.3-0.4-0.6-1.2-0.3-1.5c0.6-0.8,0.5-1.8,1-2.6c0.2-0.3,0.3-0.7,0.3-1.1c0.1-0.9,1.1-1.4,1.1-2.4c0-0.1,0.2-0.1,0.3-0.2
				c0.7-0.2,1.2-0.7,1.5-1.3c0.2-0.3,0.3-0.6,0.7-0.6c-0.1,0.2-0.3,0.4,0,0.5c0.3,0.1,0.6,0,0.7-0.3l0.7,0.3l0,0.1l0.1,0
				c0.9,0.4,1.3,1.2,2,1.8c0.3,0,0.5,0.1,0.7,0.2c-0.2-0.2-0.5-0.2-0.7-0.2l1.1,1.3c0.1,0.1,0.1,0.2,0.2,0.3c0.2,0.4,0.3,0.9,0.9,1
				c0.2,0,0.4,0.2,0.4,0.5c0,0.6,0.5,1,0.9,1.4c0.5,0.5,1.3,0.8,1.5,1.4c0.5,1.2,1.9,1.5,2.6,2.4c0,0,0.1,0,0.2,0l0.3,0.2
				c0,0.2,0.1,0.3,0.2,0.4c0.3,0.7,1,0.9,1.4,1.4c0.1,0.5,0.1,0.5,0.7,0.4c0.2,0,0.2,0.1,0.3,0.2c0.5,1.2,1.5,2,2,3.2
				c0.2,0.6,0.7,1,0.6,1.7c0,0.3,0.1,0.6,0.4,0.8c0.5,0.6,1.2,1,2,1.3c2,0.7,3.9,1.6,5.9,2.1c2.2,0.5,4.4,0.9,6.7,1.2
				c2.6,0.4,5.3,0.5,8,0.2c2.6-0.2,5.2-0.2,7.7-0.9c1.4-0.4,2.9-0.7,4.3-1.1c0.9-0.3,1.7-0.7,2.6-1c2.2-0.7,4.2-1.6,6.2-2.7
				c0.6-0.4,1.5-0.4,2-1c0.4-0.5,0.8-0.9,1.5-0.7c0.2,0.1,0.4-0.2,0.5-0.3c0.8-0.7,1.9-1,2.4-2.1c0,0,0.1,0,0.1,0
				c1-0.3,1.9-1.1,2.3-2c0.2-0.4,0.4-0.7,0.7-1c0.4-0.3,0.5-0.9,0.9-1.3c0.9-0.7,1.7-1.5,2.2-2.5c0.5-0.8,1.1-1.6,1.7-2.4
				c0.6-0.6,0.8-1.4,0.7-2.3c0-0.1,0.1-0.2,0.2-0.2c0.3-0.5,0.9-1,0.9-1.5c0.1-0.8,0.4-1.6,0.8-2.3c0.1-0.2,0.3-0.4,0-0.6
				c0-0.3,0.2-0.5,0.3-0.7c0.2-0.6,0.4-1.1,0.7-1.7c0.1-0.1,0.2-0.3,0.2-0.4c0.3-0.1,0.4-0.5,0.2-0.7c0,0,0-0.1-0.1-0.1l0.2-0.5
				c0.3-0.4,0.4-0.9,0.5-1.4c0.1-0.2,0.1-0.3,0.2-0.5c0.3-0.1,0.3-0.2,0.1-0.4c0-0.1,0.1-0.3,0.1-0.4c0,0,0-0.1,0-0.1
				c0-0.1-0.1-0.2-0.2-0.3c0.1,0.1,0.1,0.2,0.2,0.3c0,0,0,0.1,0,0.1c0.6-0.2,0.1-0.8,0.3-1c0.6-0.6,0.1-0.8-0.3-1.2
				c-0.1-0.1-0.1-0.2-0.2-0.3c0.7,0,0.9-0.7,1.4-1c0.1-0.1-0.2-0.3-0.3-0.5c-0.2-0.3-0.2-0.6,0.3-0.6c0.3,0,0.4-0.1,0.5-0.3
				c0.1-0.5-0.3-0.1-0.4-0.2c-0.1,0-0.3-0.1-0.3-0.3c0-0.2,0.1-0.5,0.3-0.7c0.2-0.1,0.1,0.3,0.3,0.3c0.1-0.6,0.8-1.3-0.4-1.7
				c-0.1,0-0.1-0.1-0.1-0.1c-0.1-0.3,0.4-0.4,0.2-0.8c0.4-0.2,0.3-0.3,0-0.4c-0.2-0.1-0.3-0.4-0.2-0.6c0.5-0.5,0.3-1.1,0.1-1.7
				c0-0.1-0.1-0.1,0-0.2c0.5-0.5,0.4-1.1,0.1-1.7c-0.3-0.7,0.2-1.4,0-2.1c0-0.2,0.1-0.3,0.3-0.2c0.2,0,0.4,0,0.4-0.2
				c0-0.3-0.2-0.4-0.5-0.2c-0.2,0.1-0.4,0.1-0.5-0.1c-0.1-0.2,0-0.4,0.2-0.5c0.4,0,0.7-0.4,0.7-0.8c0-0.2,0.5-0.4,0.2-0.7
				c-0.3-0.2-0.5,0.1-0.7,0.3c-0.1,0.1-0.2,0.3-0.4,0.1c-0.1-0.1-0.2-0.3-0.1-0.4c0.1-0.4,0.1-0.9,0-1.4c0-0.2-0.2-0.8,0.5-0.8
				c0.1,0,0.2-0.1,0.2-0.2c0,0,0-0.1-0.1-0.1c-0.2-0.2,0.2-1.1-0.7-0.6c-0.3,0.2-0.4-0.2-0.3-0.3c0.2-0.6-0.3-1.3,0.3-1.9
				c0.4-0.4,0.4-1,0.1-1.4c-0.4-0.4-0.7-0.9-0.9-1.4c0-0.1,0-0.2,0.2-0.2c0.8,0.1,0.7-0.6,0.4-0.9c-0.7-0.7-0.6-1.7-1.1-2.4
				c-0.7-0.9-0.9-2.2-1.6-3.1c-0.2-0.2-0.3-0.4-0.5-0.4c-0.1-0.2-0.3-0.2-0.5-0.3c-0.1-0.4,0.2-0.8-0.3-1c-0.1-0.2-0.2-0.4-0.4-0.4
				c0-0.1,0-0.2-0.1-0.2l0,0c0.1-0.3,0-0.5-0.3-0.6l0,0c0.2-0.4,0-0.6-0.2-0.8c-0.3-0.5-0.6-0.9-1-1.3c0.2-0.2,0-0.3,0-0.5
				c-0.1-0.3,0.4-0.8-0.3-0.8c-0.5,0,0.1,0.6-0.2,0.8c0,0-0.1,0-0.1-0.1c0-0.1,0-0.2-0.1-0.2c0,0,0,0-0.1,0l0,0
				c0.2-0.5,0.1-0.9-0.5-0.9l0,0c0.1-0.3,0.1-0.7-0.1-0.9c-0.7-0.9-1.1-2-1.7-2.9c-0.3-0.5-0.5-1.2-1.2-1.5
				c-0.9-0.2-1.7-0.9-2.1-1.7c-0.1-0.3-0.4-0.4-0.7-0.3c-0.1,0-0.1,0-0.2,0.1l-0.2-0.1c0.2-0.3,0.1-0.5-0.2-0.6
				c-0.4-0.2-0.8-0.5-1.1-0.8c0,0,0-0.1,0-0.1c0.1-0.3,0.2-0.6-0.2-0.6c-0.3,0-0.5-0.2-0.7-0.4c-0.2-0.3-0.6-0.4-0.9-0.4
				c-0.5,0-1-0.4-1-1c0-0.3-0.1-0.3-0.3-0.4c-0.9-0.3-1.7-0.8-2.4-1.3c-0.6-0.4-1.2-0.7-1.9-1c-1-0.5-2.1-0.9-3.2-1.2
				c-2.1-0.7-4.3-1.1-6.5-1.6c-0.3-0.1-0.6-0.1-0.9-0.2c-0.8-0.2-1.6-0.4-2.5-0.4c-0.6-0.1-1.2,0.1-1.7-0.4c0,0-0.2,0-0.2,0
				c-0.8-0.1-1.6,0.2-2.4-0.2c-0.2-0.1-0.5,0.1-0.8,0.1c-0.1,0-0.1,0.3-0.3,0.1c-0.3-0.5-1-0.3-1.4-0.5c-0.2-0.1-0.4,0-0.5,0.1
				c0,0.1,0,0.1,0,0.2c0,0.3,0.1,0.4,0.4,0.5c0.8,0.1,1.5,0.2,2.2,0.4c0.3,0.1,0.7,0,0.9,0.4c-1.3,0-2.4,0.3-3.7,0.2
				c-0.4,0-0.5,0-0.6-0.3c-0.2-0.5-0.9-0.8-1.4-0.5c-0.1,0-0.1,0.1-0.2,0.1c-0.1,0.1-0.3,0.1-0.5,0.1c-0.9-0.1-1.8-0.1-2.6,0
				c-0.3,0-0.4,0.2-0.1,0.4c0.2,0.1,0.3,0.3,0.3,0.4c-0.7-0.2-1.3-0.3-1.8,0.3c-0.4,0.1-0.8,0.2-1.2,0.3c-0.8-0.2-1.5,0.2-2.3,0.2
				c-1.2-0.2-2.4,0.1-3.5,0.7c-0.6,0.4-1.4,0.3-1.9,0.7c-0.9,0.8-2.2,0.7-3.1,1.6c-0.2,0.2-0.8,0.1-0.7,0.5c0.1,0.4,0.6,0.2,1,0.1
				c0,0,0,0,0.1,0.1c-0.1,0.1-0.3,0.3-0.2,0.5c-1.5,0.6-2.7,1.8-4.1,2.6c-0.3-0.3-0.2-0.3,0.1-0.5c1-0.7,2-1.5,3.2-2.3
				c-0.8-0.1-1.6,0.1-2.3,0.6c-1,0.7-1.7,1.6-2.7,2.3c-1.1,0.8-2.1,1.8-2.9,3c-1.1,1.6-2.5,2.9-3.3,4.7c-0.3,1-0.7,2-1.2,3
				c0,0-0.1,0-0.1,0.1c-0.2,0-0.3,0.2-0.3,0.3c0,0,0,0,0,0c-0.3,0.2-0.4,0.5-0.5,0.8c-0.5,0.4-0.9,0.9-1.1,1.6
				c0.3,0,0.5-0.4,0.8-0.1c0,0.1,0.1,0.1,0,0.2C50.4-3.9,50.1-4,49.9-4c-0.4,0-0.7,0.2-0.8,0.5c-0.8,1.3-1.8,2.5-2.9,3.5
				c-0.2,0.2-0.5,0.5-1,0.1c-0.6-0.5-1.2-1-1.8-1.6c-0.5-0.5-0.7-1.2-0.8-1.9c-0.1-0.4,0.1-1-0.1-1.1c-0.9-0.2-0.9-1.1-1.5-1.5
				c0,0,0.1-0.1,0.1-0.1c0.8-0.4-0.2-0.7,0-1c0.1-0.2,0.2-0.3,0.3-0.5c0.2-0.1,0.2-0.3,0.2-0.5c0.3-0.9,0.5-1.7,0.8-2.6
				c0.4-0.5,0.7-1.1,0.8-1.7c0.1-0.2,0.2-0.4,0.3-0.6c0.1-0.1,0.2-0.1,0.3-0.2c0.3-0.2,0.6-1.1,1.1-0.1c0.1,0.3,0.4,0,0.5-0.2
				c0.7-0.9,1.1-1.9,1.3-3c0.1-0.8,0.2-1.7,0.3-2.5c0.4-1.6,0.1-3.2,0.3-4.7c0.1-0.6-0.4-0.9-0.4-1.5c0-3-0.6-6-1.1-8.9
				c-0.2-1.2-0.5-2.4-0.8-3.5c-0.6-1.7-1.2-3.4-1.8-5.1c-0.7-2.1-1.6-4.2-2.6-6.2c-0.6-1.1-1.4-2.1-1.9-3.2
				c-0.9-2.2-2.6-3.8-3.8-5.8c-1.4-2.2-3.6-3.8-5.3-5.7c-1.3-1.4-2.9-2.5-4.4-3.7c-1.5-1.3-3.5-2.2-5.3-3c-1.3-0.6-2.6-1.3-3.9-1.8
				c-0.9-0.4-1.8-1.1-2.7-1.3c-1.1-0.2-2.3-0.5-3.4-0.9c-3.2-0.8-6.4-1.1-9.6-1.6c-1.7-0.3-3.5-0.3-5.2-0.5
				c-0.8-0.1-1.6-0.4-2.4-0.1c-1.6,0.4-3.2,0.5-4.8,0.9c-0.9,0.3-1.8,0.5-2.8,0.7c-3.3,0.5-6.5,1.7-9.7,2.5c-2,0.6-3.9,1.3-5.7,2.1
				c-1.6,0.6-3.1,1.3-4.6,2.2c-2.1,1.4-4.1,2.8-6.2,4.2c-0.7,0.4-1.2,0.9-1.7,1.6c-0.3,0.4-0.7,0.8-1.2,1c-1.2,0.7-2.1,1.6-2.8,2.8
				c-0.2,0.4-0.4,0.8-0.7,1.2c-1.2,1.1-2.2,2.3-3,3.6c-1.4,1.9-2.6,4-3.6,6.1c-0.5,1.1-1.2,2.2-1.5,3.3c-0.9,3.4-2.2,6.7-2.4,10.2
				c-0.1,2.1-0.5,4.2-0.4,6.3c0.1,1.3,0.5,2.7,0.3,4c-0.1,0.8,0,1.7,0.2,2.5c0.2,1,0.4,1.9,0.5,2.9c0.2,1.7,0.6,3.4,1.1,5.1
				c0.7,2.3,1.5,4.5,2.4,6.7c0.6,1.4,1.3,2.7,2.2,3.9c0.2,0.7,0.4,1.5,0.6,2.2c0.1,0.4-0.1,1.2,0.6,1.4c-0.1,0.2,0.2,0.2,0.3,0.2
				c0.2,0.4-0.8,0.4-0.4,0.7c0.4,0.5,0.5,1.1,0.8,1.6c0.8,1,0.9,2.3,1.8,3.2c0.9,1,1.5,2.2,2.5,3.1c0.6,0.6,1.3,0.9,1.9,1.4l0.1,0.2
				c0.2,0.6,0.8,1,1.4,1.1c0,0,0.1,0.1,0.1,0.1c0.2,0.7,0.8,1,1.4,1.3c0.5,0.2,0.6,0.8,1,1c1.4,0.7,2.5,1.9,3.8,2.7
				c0.2,0.3,0.5,0.1,0.7,0.2l1.3,0.8c0.9,0.7,2,1,3.2,1.1c0.2,0.4,0.6,0.2,0.9,0.4c0.3,0.2,0.5,0.3,0.8,0.4c1.9,0.6,3.8,1.2,5.7,1.8
				c0.6,0.1,1.2,0.3,1.8,0.5c0.4,0.2,0.9,0.7,1.4,0.1c0.1,0.1,0.2,0.1,0.2,0.2c0.1,0.3,0.2,0.4,0.5,0.1c0.2-0.2,0.4,0.1,0.4,0.3
				c0,0.5,0.4,0.5,0.7,0.5c1.2,0,2.3,0.4,3.5,0.3c1-0.1,2,0.3,3,0.4c1.1,0.1,2.3,0.1,3.4,0.2c0.6,0.1,1.3,0.1,1.9,0.1
				c0.5-0.1,1,0,1.4,0.1c0.8,0.2,1.7,0.6,2.6,0.3c0.1,0,0.2,0.1,0.3,0.1c0.2,0.3,0.5,0.3,0.8,0.4c0.5,0.3,1,0.5,1.4,0.8
				c0.1,0.1,0.2,0.2,0.3,0.2c0.1,0.1,0.3,0.1,0.4,0.2c0,0.2,0.2,0.2,0.3,0.2c0.7,1.1,1.8,1.6,2.7,2.4c0.4,0.4,0.6,0.8,1,1.2
				c1.1,1,2.2,2.1,3,3.4c0,0.2,0.1,0.3,0.3,0.2c0.1,0,0.2,0.1,0.3,0.1c0.1,0.8,0.5,1.4,0.7,2.1c0.3,1.1,0.8,2.2,1,3.4
				c0.3,1.3,0.7,2.6,1,4c0.3,1.3,1.3,2.4,0.9,3.9c-0.2,0.7,0,1.5-0.2,2.1c-0.5,1.5-0.7,3.2-1.7,4.5c-0.1,0.1-0.1,0.3,0,0.4
				c0,0,0,0,0,0c-0.1,0.2-0.2,0.4-0.2,0.6c-0.3,0.3-0.5,0.6-0.7,1l-0.2,0.3c-0.4,0.4-0.7,0.8-0.8,1.3c-0.5,0.8-1,1.6-1.5,2.5
				c-0.8,1-1.4,2.1-2,3.2C4.2,64.3,4,64.6,4,64.9c-0.4,0.6-0.8,1.2-0.7,2.1c0,0.2,0,0.3,0,0.5c-0.3,0.4-0.8,0.9-0.7,1.1
				c0.1,0.8-0.5,1.2-0.6,1.9c-0.1,0.4-0.4,0.8-0.1,1.3l0,0c0,0.1,0,0.3,0,0.3C1,72.3,1.3,73.1,1,73.6c-0.2,0.2-0.1,0.5,0,0.6
				c0.1,0,0.1,0.1,0.2,0.1c0,0.2,0.2,0.4,0,0.5c-1,0.4-0.8,1.3-0.9,2c-0.1,0.5,0.2,0.9-0.4,1.5c-0.6,0.6-0.6,1.9-0.5,2.9
				c0,0.5-0.2,1.1,0.4,1.5c0.1,0.1,0.1,0.4-0.1,0.5C-0.6,83.6-0.6,83-0.9,83c-0.1,0.5,0,0.9,0.6,1.1c0.4,0.1,0.4,0.4,0.5,0.7
				c-0.4-0.1-0.8-0.4-1-0.8c-0.4,0.8-0.1,1.7,0.6,2.2c0.2,0.1,0.4,0.4,0.3,0.7c0,1.8,0.1,3.6,0.3,5.4c0.3,2.8,1,5.6,2,8.2
				c1.5,4,3.8,7.6,6.8,10.5c0.7,0.6,1.4,1.2,2.1,1.7c1,0.9,2.1,1.6,3.2,2.4c2.8,1.7,5.9,2.6,8.9,3.9C25.5,120,27.8,120.1,30.2,120.1
				 M9.4,58.3C9.4,58.3,9.4,58.3,9.4,58.3C9.4,58.3,9.4,58.3,9.4,58.3 M39,46.5c0-0.1,0-0.2,0-0.4c0-0.1,0-0.1,0.1-0.2
				c0,0.1,0,0.1-0.1,0.2C39,46.3,39,46.4,39,46.5 M39.1,45.8C39.2,45.7,39.2,45.7,39.1,45.8c0.2,0,0.2,0,0.3,0
				C39.4,45.7,39.3,45.7,39.1,45.8C39.2,45.7,39.2,45.7,39.1,45.8 M99.9,58c-0.1,0-0.2,0.1-0.3,0.2C99.7,58.1,99.8,58.1,99.9,58
				 M99.2,58.7c0.1-0.1,0.2-0.2,0.2-0.3C99.3,58.4,99.3,58.5,99.2,58.7 M51.2,43.4c0.1,0.1,0.2,0.1,0.2,0.1
				C51.3,43.5,51.2,43.5,51.2,43.4 M52,43.9c0.5,0.3,1,0.7,1.2,1.2c0.2,0.3,0.4,0.5,0.6,0.8c0.2,0.1,0.3,0.2,0.5,0.3
				c-0.1-0.1-0.3-0.2-0.5-0.3c-0.1,0.1-0.2,0.1-0.3,0.1c0.1,0,0.2-0.1,0.3-0.1c-0.2-0.3-0.4-0.5-0.6-0.8
				C52.9,44.6,52.5,44.2,52,43.9 M53.3,46c0,0.1,0.1,0.1,0.2,0.1C53.4,46,53.3,46,53.3,46 M65.4,55.6L65.4,55.6L65.4,55.6L65.4,55.6
				 M61.7,53.1C61.7,53.1,61.7,53.1,61.7,53.1C61.7,53.1,61.7,53.1,61.7,53.1 M60.6-17.7c0,0.1-0.1,0.2-0.1,0.3
				C60.5-17.5,60.6-17.6,60.6-17.7 M40-7.7L40-7.7C40-7.7,40.1-7.7,40-7.7C40.1-7.7,40-7.7,40-7.7 M40.5-8.4c0.1,0,0.1,0,0.2-0.1
				C40.6-8.4,40.5-8.4,40.5-8.4 M-49.1,5.1L-49.1,5.1C-49.1,5.1-49.1,5.1-49.1,5.1C-49.1,5.1-49.1,5.1-49.1,5.1 M-49.1,5.2
				L-49.1,5.2L-49.1,5.2 M-43.8,11.3c0,0,0,0.1-0.1,0.1C-43.8,11.3-43.8,11.3-43.8,11.3 M8,34.5L8,34.5c0.1,0,0.1,0,0.2,0
				C8.2,34.5,8.1,34.5,8,34.5L8,34.5 M12.6,47.8c0,0.1-0.1,0.2-0.1,0.4C12.5,48.1,12.6,48,12.6,47.8L12.6,47.8
				c-0.1-0.1-0.2-0.1-0.2-0.1C12.4,47.7,12.5,47.8,12.6,47.8L12.6,47.8c0.1-0.9,0.1-1.9-0.1-2.8C12.7,45.9,12.7,46.9,12.6,47.8
				 M4.4,64.9L4.4,64.9c0,0-0.1,0-0.1,0C4.3,64.9,4.4,64.9,4.4,64.9 M4.2,65.2C4.2,65.2,4.2,65.1,4.2,65.2
				C4.2,65.1,4.2,65.2,4.2,65.2C4.2,65.2,4.2,65.2,4.2,65.2C4.2,65.2,4.2,65.2,4.2,65.2 M4.2,65.3c0,0,0.1,0.1,0.2,0.1l0,0l0,0
				C4.3,65.4,4.2,65.3,4.2,65.3"/>
		</g>
	</g>
</g>
</svg>
