<?xml version="1.0" encoding="utf-8"?>
<!-- Generator: Adobe Illustrator 28.3.0, SVG Export Plug-In . SVG Version: 6.00 Build 0)  -->
<svg version="1.1" id="Layer_1" xmlns="http://www.w3.org/2000/svg" xmlns:xlink="http://www.w3.org/1999/xlink" x="0px" y="0px"
	 viewBox="0 0 200 200" style="enable-background:new 0 0 200 200;" xml:space="preserve">
<style type="text/css">
	.st0{clip-path:url(#SVGID_00000011019374000754908230000013990073950767558541_);}
	.st1{fill:#5356A4;}
</style>
<g id="Group_410" transform="translate(282.236 145.161)">
	<g>
		<defs>
			<rect id="SVGID_1_" x="-250.9" y="-143.2" width="139.6" height="196"/>
		</defs>
		<clipPath id="SVGID_00000143599663203126334930000015833575887993534641_">
			<use xlink:href="#SVGID_1_"  style="overflow:visible;"/>
		</clipPath>
		
			<g id="Group_409" transform="translate(0 0)" style="clip-path:url(#SVGID_00000143599663203126334930000015833575887993534641_);">
			<path id="Path_2248" class="st1" d="M-176.6-143.1c1.6,0.2,4,0.2,6,1.6c2.8,1.8,5,4.5,6.2,7.6c0,0.3,0.1,0.6,0.1,0.9
				c0.1,0.5,0.2,1.1,0.4,1.6c0.4,0.9,0.6,1.8,0.8,2.7c0.2,3.6-0.6,7.2-2.5,10.3c-1,1.8-2.4,3.2-3.5,4.9c-2.5,3.9-6,6.6-9.6,9.2
				c-4.3,3.2-8.8,6.2-12.8,9.7c-4.7,4.2-8.9,8.8-13.3,13.3c-1.7,1.7-3.5,3.4-5.1,5.2c-1.5,1.8-3,3.8-4.3,5.8c-1.1,1.8-1.5,4-1,6.1
				c0.7,3.5,4,5.5,7.8,4.8c4.1-0.7,7.9-2.7,10.9-5.5c4.4-4.1,9.7-6.6,15-9.2c2.5-1.2,4.8-2.9,7.4-3.9c6.2-2.3,12-5.6,18.4-7.5
				c4.8-1.5,9.9-2.3,14.9-2.5c6-0.2,11.7,1.1,15.2,6.9c0.7,1.2,1.2,2.4,1.6,3.6c0.7,2,1.8,4,1.1,6.2c-0.4,1-0.8,2-1.3,3
				c-0.4,0.8-0.8,1.6-1.3,2.5c-0.2,0.5-0.5,0.9-0.7,1.3c-1,1.1-2,2.2-3,3.2c-1.6,1.7-3.7,2.9-6.1,3.4c-0.4,0.1-0.7,0.2-1.1,0.4
				c-5,2.3-9.8,4.9-14.9,6.7c-6.1,2-12.4,3-18.8,3c-8.3,0.2-16.6,1-24.6,3.6c-2.9,1-6,1.6-8.9,2.5c-2.3,0.7-4.2,2.4-4.9,4.7
				c-0.5,1.5-0.3,3.1,0.5,4.4c2.1,3.8,5.6,4.6,9.4,4.7c3.9,0.1,7.8,0.1,11.7-0.1c5.2-0.3,10.4-0.6,15.6-1.2c3.5-0.4,7-1.5,10.4-2.3
				c1.7-0.4,3.4-0.7,5.1-1c3.3-0.6,6.6-1.2,9.9-1.7c1.5-0.1,3-0.1,4.5,0.1c1.2,0,2.5,0.2,3.7,0.2c6,0,12,1.2,17.6,3.5
				c0.9,0.4,1.7,1,2.4,1.7c1.8,2,3.7,4,4.1,6.9c0.1,0.3,0.2,0.6,0.4,0.9c0.2,0.4,0.5,0.9,0.4,1.2c-0.6,1.6,0.6,2.7,1,4
				c0.9,3.2,0.3,6.5-1.6,9.2c-1.2,1.7-2.5,3.3-4,4.8c-0.7,0.7-1.6,1.3-2.6,1.7c-5,2.1-10.4,3-15.8,2.4c-0.2,0-0.3,0-0.5-0.1
				c-3-0.6-6.1-1.2-9.1-1.9s-6-1.6-8.9-2.4c-8.7-2.3-17.5-4.7-26.2-7c-1.5-0.4-2.9-1.1-4.4-1.7c-1.2-0.6-2.6-0.9-3.9-1.1
				c-3.4,0-6.9,0.2-10.3,0.6c-3.7,0.5-5,2-5.7,5.3c-0.4,2.9,0.9,5.7,3.3,7.4c3.2,2.1,6.7,3.7,10.5,4.6c7.2,2,14.3,4,21.6,5.7
				c6.7,1.7,13.2,4,19.3,7.1c3.5,1.7,7.1,3.2,10.5,4.9c3.9,1.8,7.2,4.5,9.7,7.9c1.8,2.6,2.9,5.6,3,8.8c0,1.1,0.1,2.1,0.2,3.2
				c0.4,2.4-0.9,4.7-3.1,5.7c-1.4,0.7-2.9,1.4-4.3,2.1c-1.5,0.7-3.1,0.9-4.8,0.6c-1.7-0.2-3.5-0.1-5.3-0.2c-0.7-0.1-1.5-0.3-2.2-0.6
				c-0.8-0.3-1.6-0.5-2.5-0.6c-2.2-0.1-4.3-0.7-6.3-1.6c-3.2-1.4-6.6-2.3-10-3.6c-1.5-0.5-2.9-1.3-4.3-1.9c-2.2-1-4.5-2-6.6-3.2
				c-2-1.2-3.8-2.7-5.7-4c-2.9-2.1-5.7-4.2-8.7-6.2c-3.3-2.2-6.7-4.2-10-6.4c-3.4-2.3-6.8-4.6-10.3-6.9c-1.7-1.1-3.7-1.9-5-3.3
				c-1.5-1.7-3.4-1.7-5.1-2.6c-3.5-1.9-6.8-4-9.3-7.2c-0.7-0.9-1.6-1.8-2.6-2.4c-2.4-1.6-4.4-3.6-6-6c-1.9-2.9-3.5-5.9-5.4-8.8
				c-2.3-3.5-2.9-7.6-4-11.5c-0.8-2.2-1.4-4.5-1.9-6.8c-0.3-2.4-1.5-4.6-1-7.2c0.3-1.8,0.2-3.6-0.1-5.4c-0.4-3.5,0.7-6.7,1.7-10
				c0.5-1.5,0.7-3.2,1.3-4.7c0.9-2.5,1.9-4.9,3.1-7.3c0.8-1.6,1.8-3.1,2.9-4.6c2.1-3,4.3-6,6.5-8.9c2.7-3.8,5.5-7.5,8.2-11.3
				c1.3-1.8,2.4-3.8,3.4-5.8c1.5-3.4,4-5.9,6.4-8.5c2.8-2.9,5.1-6.3,6.5-10.2c1.2-2.9,2.8-5.6,4.9-8c1.7-2.1,3.5-4.1,5.2-6.2
				c3.8-4.3,8.2-8,13.1-11C-184.3-142.1-180.5-143.1-176.6-143.1"/>
		</g>
	</g>
</g>
</svg>
