<?xml version="1.0" encoding="utf-8"?>
<!-- Generator: Adobe Illustrator 28.3.0, SVG Export Plug-In . SVG Version: 6.00 Build 0)  -->
<svg version="1.1" id="Layer_1" xmlns="http://www.w3.org/2000/svg" xmlns:xlink="http://www.w3.org/1999/xlink" x="0px" y="0px"
	 viewBox="0 0 200 200" style="enable-background:new 0 0 200 200;" xml:space="preserve">
<style type="text/css">
	.st0{clip-path:url(#SVGID_00000134968949246215747770000018018689653246444458_);}
	.st1{fill:#FCE80D;}
</style>
<g id="Group_406" transform="translate(174.329 240.628)">
	<g>
		<defs>
			<rect id="SVGID_1_" x="-172.7" y="-220.6" width="196.4" height="157.7"/>
		</defs>
		<clipPath id="SVGID_00000049216550786897428220000000033954981643168924_">
			<use xlink:href="#SVGID_1_"  style="overflow:visible;"/>
		</clipPath>
		
			<g id="Group_405" transform="translate(0 0)" style="clip-path:url(#SVGID_00000049216550786897428220000000033954981643168924_);">
			<path id="Path_2245" class="st1" d="M21-153.2c-0.6-2.5-1.6-4.9-3-7.1c-0.9-1.1-1.6-2.2-2.2-3.4c-1.6-3.5-4.3-6.5-7.6-8.6
				c-2.7-1.8-6-2.2-8.9-3.4c-0.5-0.3-1.2-0.3-1.7,0.1l-0.7,0c-1.7-0.4-3.3,0.2-4.8,0.5c-5.8,1-10.7,5.1-12.7,10.7
				c-2.4,6.1-2.5,12.4-2.3,18.8c0.3,9.9-1.2,19.5-6.1,28.4c-2.3,4.1-5.8,6.8-10.9,6.6c-3-0.2-6-1.2-8.5-2.9
				c-3.2-2.1-6.1-4.4-8.9-7.1c-0.2-0.2-0.4-0.5-0.6-0.7c-2.2-2.9-4.1-6-5.6-9.4c-1.2-2.5-2.3-5-3.5-7.5c-0.1-0.2-0.1-0.4-0.2-0.6
				c0-0.1,0.1-0.2,0-0.3c-2.5-8.2-4.7-16.5-8-24.4c-1.4-3.2-2-6.7-4.1-9.6c-0.1-0.2-0.1-0.4-0.2-0.6c-0.5-1.8-1-3.6-1.5-5.4
				c-0.9-2.8-1.4-5.7-3-8.2c-1.4-2.2-2.7-4.3-3.9-6.6c-3.4-6.2-7.2-12-12.9-16.4c-1-0.8-1.7-1.9-2.9-2.4l-0.9-0.7
				c-0.1-0.5-0.5-0.7-0.8-0.9c-5.9-3.5-12.5-5.7-19.3-6.3c-5.8-0.7-11.4,0.8-16.6,3.2c-7.1,3.2-12.2,9-17.2,14.6
				c-4,4.5-6,10.1-8,15.7c-1.3,3.7-2.7,7.4-3.9,11.3c-1,2.8-1.6,5.9-1.6,8.9c0.1,1.8,0,3.6-0.3,5.5c-0.4,3.4-0.3,6.7,0.3,10.1
				l0.1,0.5c-0.6,0.9-0.1,1.8,0.1,2.7c0.8,3,2.2,5.8,3.9,8.3c3.5,5.4,7.5,10.1,14.9,11.1c5.9,0.8,12.4-2,15.2-7.1
				c2.2-3.8,3.9-7.8,5.1-12c0.9-3.9,2-7.7,2.1-11.7c0.1-2.1,0.5-4.2,1.2-6.1c1-2.9,3.3-3.6,6-2c0.6,0.4,1.1,0.8,1.6,1.3
				c4.5,4.3,5.7,10,6.4,15.6c0.6,4.9,1.5,9.8,1.7,14.7c0.3,4.5,2.8,8.5,3.1,13c0.2,3,2.3,5.3,3.5,8c2.3,5.3,5,10.4,8,15.3
				c2.1,3.4,3.9,7,6.6,9.9c3.1,3.2,6.2,6.6,9.5,9.7c3.3,3.1,7.2,5.5,10,9.1c0.2,0.2,0.4,0.3,0.7,0.4c2.3,1,4.7,1.9,6.9,3.1
				c7.5,4.1,15.6,5.1,23.9,4.2C-31.7-64-22-67-13.3-72c3.3-1.9,6.6-3.7,9.6-5.9c2.4-1.7,4.7-3.6,7-5.5c1.5-1.1,2.8-2.4,3.9-3.9
				c2.1-3.2,4.7-6.2,6.3-9.8c0.1-0.3,0.3-0.6,0.5-0.8c2.2-2,3.2-4.7,4.3-7.3c0.9-2.6,1.6-5.3,2-8c0.5-2.5,1.7-4.9,2-7.5
				c0.4-3.9,0.5-7.8,1.1-11.7C24.4-139.6,23-146.4,21-153.2"/>
		</g>
	</g>
</g>
</svg>
